<?xml version="1.0" encoding="UTF-8" standalone="no"?>
<!-- Created with Inkscape (http://www.inkscape.org/) -->

<svg
   width="1280mm"
   height="640mm"
   viewBox="0 0 1280 640"
   version="1.1"
   id="svg1"
   inkscape:version="1.4.2 (f4327f4, 2025-05-13)"
   sodipodi:docname="fontlogo.svg"
   xml:space="preserve"
   xmlns:inkscape="http://www.inkscape.org/namespaces/inkscape"
   xmlns:sodipodi="http://sodipodi.sourceforge.net/DTD/sodipodi-0.dtd"
   xmlns="http://www.w3.org/2000/svg"
   xmlns:svg="http://www.w3.org/2000/svg"><sodipodi:namedview
     id="namedview1"
     pagecolor="#ffffff"
     bordercolor="#000000"
     borderopacity="0.25"
     inkscape:showpageshadow="2"
     inkscape:pageopacity="0.0"
     inkscape:pagecheckerboard="0"
     inkscape:deskcolor="#d1d1d1"
     inkscape:document-units="px"
     inkscape:zoom="0.20031716"
     inkscape:cx="821.19774"
     inkscape:cy="3444.5377"
     inkscape:window-width="2560"
     inkscape:window-height="1566"
     inkscape:window-x="-11"
     inkscape:window-y="-11"
     inkscape:window-maximized="1"
     inkscape:current-layer="layer1" /><defs
     id="defs1"><rect
       x="698.8917"
       y="1108.2425"
       width="2680.7489"
       height="1048.3375"
       id="rect3" /></defs><g
     inkscape:label="图层 1"
     inkscape:groupmode="layer"
     id="layer1"><path
       style="font-size:211.667px;font-family:AGSL2;-inkscape-font-specification:AGSL2;text-align:center;baseline-shift:baseline;text-anchor:middle;fill:#000000;fill-opacity:1;stroke:#ffffff;stroke-width:2.19459;stroke-dasharray:none"
       d="m 481.08303,292.90694 48.63222,-0.17557 2.80909,10.53406 h -53.19698 z m 64.78445,-101.3025 h 9.83178 V 303.9677 h -9.83178 v -95.3332 h -80.58553 v 95.3332 h -9.83179 V 199.15385 h 90.41732 z m -45.12088,32.65558 -10.88519,0.5267 q -10.88518,0.70227 -11.23632,0.70227 -1.22897,0 -1.58011,-1.22897 -1.05341,-6.14486 -1.05341,-6.14486 0,-1.58011 1.40455,-1.58011 29.31978,-1.22897 54.25038,-3.51135 h 0.17557 q 1.22897,0 1.5801,1.40453 0.70228,4.74033 0.70228,6.14487 0,1.40454 -1.22898,1.40454 -1.5801,0.17557 -10.00735,0.87784 -8.42725,0.5267 -13.34314,0.87784 0,10.70961 -0.17557,15.80108 h 28.26639 q 1.40454,0 1.40454,1.40453 v 5.79373 q 0,1.58012 -1.40454,1.58012 h -26.51071 q 6.84713,20.54141 27.56411,27.56412 1.05341,0.35113 1.05341,1.40453 0,0.17557 -4.74033,7.0227 -0.70226,0.70227 -1.22897,0.70227 -0.35114,0 -2.28238,-0.70227 -1.93124,-0.87784 -5.44259,-2.98465 -3.33579,-2.28237 -7.02271,-5.26702 -3.51135,-3.16021 -7.37384,-8.42724 -3.68691,-5.26703 -6.14486,-11.58747 -3.16021,9.12952 -10.53405,16.67892 -7.19827,7.37384 -12.28973,10.35849 -5.09147,2.80908 -5.9693,2.80908 -0.70228,0 -3.16022,-3.16021 -2.45795,-3.33579 -2.45795,-4.03805 0,-1.05341 0.87784,-1.40455 22.29709,-10.70963 27.03741,-28.96865 h -25.4573 q -1.58011,0 -1.58011,-1.58012 v -5.79373 q 0,-1.40453 1.58011,-1.40453 h 26.86184 q 0.35113,-9.48065 0.35113,-15.27438 z m -45.82314,-36.69363 v -29.31978 h 100.07353 v 29.31978 h -9.30508 v -19.83914 h -81.46337 v 19.83914 z M 409.10032,155.96423 H 443.336 v 10.53405 h -21.41924 q -4.03806,4.03805 -4.91589,6.14487 -1.05341,3.86248 1.0534,5.26703 0.87784,0.5267 2.10681,0.70226 1.40455,0.17557 2.45795,0.17557 1.0534,-0.17557 2.28238,0 H 443.336 v 10.53406 h -22.82378 q -6.32044,-0.17557 -9.48065,-4.56476 -2.98465,-4.38919 -2.63352,-9.48065 0.35114,-5.09146 2.80908,-8.77838 0.70227,-0.70226 -0.35113,-0.70226 l -1.75568,-0.17558 z m 21.41926,63.3799 q 7.54939,-7.54941 4.21361,-11.06076 -1.5801,-1.22897 -6.14486,-1.22897 h -19.48801 v -10.53406 h 1.75568 21.24368 q 6.32044,0.17557 9.30509,4.56476 2.98464,4.38919 2.45793,9.83178 -0.35113,5.26703 -3.16021,9.12952 0.5267,0 1.40454,0.17556 0.87784,0 1.22897,0 v 9.65622 h -34.23568 v -10.53405 z m 4.74031,18.25902 H 443.336 V 270.961 h -8.07611 v -10.70963 h -38.62487 v -21.41924 h 7.90055 v 10.70961 h 30.72432 z m 0,40.73168 h 8.07611 v 33.35785 h -8.07611 v -10.8852 h -38.62487 v -21.24367 h 7.90055 v 10.70962 h 30.72432 z m 295.12903,-69.52476 h -80.05883 v 82.51676 h 80.05883 z M 640.14718,309.05916 V 199.50499 h 100.42467 v 109.55417 h -10.18293 v -8.60281 h -80.05883 v 8.60281 z m 49.51006,-54.60152 q -3.51135,9.30508 -10.70962,16.50336 -7.19827,7.19827 -11.9386,9.83178 -4.56475,2.63351 -5.4426,2.63351 -0.87783,0 -1.40453,-0.70226 l -3.68693,-4.74033 -0.5267,-1.0534 q 0,-0.87784 1.22898,-1.58012 1.22897,-0.87783 2.98465,-1.5801 1.93123,-0.87783 5.09145,-2.80908 3.16023,-2.10681 6.14487,-4.74033 10.70962,-9.30508 12.992,-24.75503 h -25.4573 q -1.93124,0 -1.93124,-1.75568 v -4.74033 q 0,-1.93123 1.93124,-1.93123 h 25.984 q 0.17557,-6.496 0.17557,-16.32779 0,-1.75568 1.75568,-1.75568 h 5.09146 q 1.93124,0 1.93124,1.75568 0,2.80908 -0.17557,8.25168 0,5.44259 0,8.07611 h 26.86185 q 1.75567,0 1.75567,1.93123 v 4.74033 q 0,1.75568 -1.75567,1.75568 h -26.68628 q 4.91589,24.22833 28.44195,32.12887 1.22898,0.35114 1.22898,1.75567 0,0.70228 -0.52672,1.22898 -0.35113,0.5267 -1.75567,1.93124 -1.40454,1.40455 -2.80908,2.98466 -0.70227,0.70226 -1.40454,0.70226 -0.35114,0 -2.10681,-0.5267 -1.75568,-0.70227 -5.09146,-2.63351 -3.33578,-2.10681 -6.84713,-4.91589 -3.33579,-2.80909 -7.02271,-8.07612 -3.68691,-5.26703 -6.32043,-11.58746 z m -98.31785,-71.45601 q 1.75568,0 2.80908,1.40454 7.54941,14.39655 14.04541,32.12888 1.22897,2.45794 -0.87784,4.03805 -2.63351,1.40454 -7.90054,3.86249 -1.22898,0.70226 -2.63351,0.35113 -1.22898,-0.5267 -1.75568,-1.75568 -7.19827,-20.36584 -12.81643,-32.12887 -1.75568,-2.28238 0.70226,-4.03805 7.0227,-3.86249 8.42725,-3.86249 z m 22.82379,-24.93059 h 4.9159 l 3.16021,-3.86248 q 6.14487,4.91588 15.09881,14.39653 l -5.26703,5.9693 q -3.33578,-3.33579 -4.74032,-4.91589 v 138.87396 q 0.17556,1.22897 -0.70227,2.10681 -0.70227,1.05341 -1.93125,1.22897 h -10.00735 q -1.40454,0.17557 -2.45795,-0.70227 -1.0534,-0.87784 -1.0534,-2.10681 V 253.0531 q -21.06811,18.61017 -21.94596,19.31244 -2.45794,2.28238 -4.56475,0.17556 -0.52671,-0.70227 -5.44259,-7.5494 -2.28238,-2.28238 0.35113,-4.38919 14.92325,-11.4119 31.60217,-25.63288 v -73.38724 q -0.17557,-1.40453 0.70227,-2.45795 1.0534,-1.0534 2.28238,-1.0534 z m 30.02205,0.17557 h 96.38662 v 29.31978 h -9.3051 v -19.83914 h -81.46336 v 19.83914 h -9.30508 v -22.12152 l -0.17556,0.35115 q -8.95394,-9.83179 -14.39654,-14.22098 l 4.74033,-5.61816 q 7.90053,6.496 13.51869,12.28973 z m 209.45204,134.66033 48.63222,-0.17557 2.80909,10.53406 H 851.8816 Z m 64.78445,-101.3025 h 9.83178 V 303.9677 h -9.83178 v -95.3332 h -80.58553 v 95.3332 h -9.83178 V 199.15385 h 90.41731 z m -70.75375,32.30445 5.4426,-5.79373 q 12.11417,11.23631 25.28174,24.75502 11.23633,-13.86984 19.48799,-26.86183 l 7.02271,5.26702 q -11.41189,16.50335 -20.71697,27.56411 14.39654,14.74768 25.10615,26.5107 l -6.67156,7.72498 q -9.12951,-11.06076 -24.22832,-27.38854 -14.22098,16.32778 -28.44195,28.26637 -2.45795,-3.68691 -6.14487,-7.02269 14.57211,-11.06076 28.96866,-27.38856 -12.11417,-12.99199 -25.10618,-25.63285 z m -20.19026,-36.3425 v -29.31978 h 100.07352 v 29.31978 h -9.30508 v -19.83914 h -81.46337 v 19.83914 z m -59.69298,123.24845 q -2.98464,-10.88519 -2.98464,-11.23633 0,-1.75568 1.75567,-2.10681 12.81643,-2.80908 25.80843,-6.14487 12.99201,-3.16021 19.48801,-4.91589 6.67156,-1.75567 6.84713,-1.75567 2.28238,0 2.28238,2.28237 v 0.70228 q 0,0.5267 -0.17557,1.5801 0,1.05341 -0.17556,2.28238 0,1.22897 0,2.63351 0,1.58011 0,2.98465 0,1.75567 -1.75568,2.10682 -14.04541,3.33578 -26.33515,6.67156 -12.11416,3.33579 -17.38119,4.9159 l -5.26702,1.5801 q -1.75567,0 -2.10681,-1.5801 z m 25.63286,-85.32585 z m -0.87784,1.40454 q -6.32043,0.35114 -11.93859,0.87784 -5.61816,0.35113 -8.25168,0.70227 -2.45794,0.17556 -2.63351,0.17556 -1.75567,0 -2.10681,-1.5801 l -2.63351,-10.00735 v -0.17557 q -0.17556,-0.17557 -0.17556,-0.35113 0,-0.35114 0.5267,-1.40454 14.39653,-20.01471 30.37318,-58.63958 0.5267,-1.40454 2.10681,-1.40454 0.70227,0 0.87784,0.17557 l 10.00736,4.03805 q 1.22897,0.5267 1.22897,2.10681 0,0.5267 -4.38919,9.48065 -4.38919,8.95394 -11.23633,21.94595 -6.84714,12.81643 -12.11417,21.41925 10.8852,-0.35114 18.08347,-0.52671 6.67157,-12.11416 10.35849,-19.488 0.70227,-1.22897 1.93124,-1.22897 0.35114,0 1.05341,0.35113 l 9.83179,5.09147 q 1.22897,0.70226 1.22897,1.93123 0,0.70228 -5.09147,9.48066 -5.09145,8.60281 -14.0454,22.47265 -8.77838,13.86983 -17.03006,25.80843 7.37384,-1.0534 15.09882,-2.28237 7.90054,-1.40455 12.11416,-2.28238 l 4.21363,-0.70227 q 2.28237,0 2.28237,2.28237 l -0.35114,1.58011 q -0.17556,1.5801 -0.5267,4.21362 -0.17556,2.63352 -0.35113,4.9159 0,1.58011 -1.93125,1.93124 -7.72497,1.22897 -19.31243,3.16022 -11.58746,1.93125 -19.31244,3.33578 -7.72497,1.22897 -7.90054,1.22897 -1.93125,0 -2.28238,-1.75567 -2.28237,-11.23633 -2.28237,-11.41189 0,-0.70227 2.28237,-3.33579 2.45795,-2.80908 8.77838,-11.41189 6.32044,-8.60282 13.5187,-20.71698 z m 315.49665,-18.08346 h -80.0605 v 82.51676 h 80.0605 z M 1017.793,309.05916 V 199.50499 h 100.4262 v 109.55417 h -10.1828 v -8.60281 h -80.0605 v 8.60281 z m 49.5117,-54.60152 q -3.5114,9.30508 -10.7096,16.50336 -7.1987,7.19827 -11.9393,9.83178 -4.565,2.63351 -5.4429,2.63351 -0.8779,0 -1.4046,-0.70226 l -3.6872,-4.74033 -0.5267,-1.0534 q 0,-0.87784 1.229,-1.58012 1.2291,-0.87783 2.9849,-1.5801 1.9313,-0.87783 5.0918,-2.80908 3.1603,-2.10681 6.1452,-4.74033 10.71,-9.30508 12.9923,-24.75503 h -25.4584 q -1.9313,0 -1.9313,-1.75568 v -4.74033 q 0,-1.93123 1.9313,-1.93123 h 25.9852 q 0.1755,-6.496 0.1755,-16.32779 0,-1.75568 1.7556,-1.75568 h 5.0916 q 1.9312,0 1.9312,1.75568 0,2.80908 -0.1756,8.25168 0,5.44259 0,8.07611 h 26.8619 q 1.7557,0 1.7557,1.93123 v 4.74033 q 0,1.75568 -1.7557,1.75568 h -26.6863 q 4.9159,24.22833 28.442,32.12887 1.2289,0.35114 1.2289,1.75567 0,0.70228 -0.5267,1.22898 -0.3511,0.5267 -1.7556,1.93124 -1.4046,1.40455 -2.8091,2.98466 -0.7023,0.70226 -1.4045,0.70226 -0.3512,0 -2.1069,-0.5267 -1.7557,-0.70227 -5.0914,-2.63351 -3.3359,-2.10681 -6.8472,-4.91589 -3.3358,-2.80909 -7.0227,-8.07612 -3.6869,-5.26703 -6.3204,-11.58746 z m -49.1605,-66.89125 v -29.31978 h 100.075 v 29.31978 h -9.3049 v -19.83914 h -81.465 v 19.83914 z m -61.62427,6.32043 h 17.9079 q 0.35113,-22.82379 0.35113,-36.51804 h 11.76303 q -0.17557,5.61816 -0.35113,18.08345 0,12.46529 0,18.43459 h 28.96864 q -0.7023,57.4106 -1.5801,83.74575 -0.8778,26.68626 -12.2897,26.86183 -5.61819,0 -13.51873,-0.5267 -0.35113,-6.67157 -0.70227,-11.23633 1.93124,0.52671 9.65621,0.17557 1.5801,0 2.45795,-1.22897 1.05344,-1.22897 1.58014,-4.3892 0.5267,-2.98464 0.7022,-5.26701 0.3512,-2.45795 0.5267,-7.72498 0.7023,-25.28174 1.229,-65.66228 h -17.20561 q -0.5267,26.68628 -3.33578,43.89189 -2.63352,17.20563 -8.07611,29.3198 -5.26704,12.11416 -15.44995,25.984 -0.5267,-1.75568 -4.74033,-4.21363 -4.03805,-2.45795 -4.74032,-4.56475 14.04541,-18.08346 18.9613,-37.04476 5.09146,-19.13687 5.61816,-53.37255 h -17.73233 z"
       id="path1" /><path
       style="font-size:158.75px;font-family:bslang-letter;-inkscape-font-specification:bslang-letter;text-align:center;baseline-shift:baseline;text-anchor:middle;fill:#000000;stroke:#ffffff;stroke-width:2.19459;stroke-dasharray:none"
       d="m 614.47298,461.2119 q -1.80024,0 -2.95755,-1.41449 -1.15731,-1.41448 -1.15731,-3.47191 v -54.39329 h -82.29717 v 53.87894 q 0,2.18601 -1.1573,3.6005 -1.02872,1.41448 -2.95756,1.41448 -1.80025,0 -2.95756,-1.41448 -1.1573,-1.41449 -1.1573,-3.6005 v -58.76533 q 0,-2.18602 1.1573,-3.6005 1.15731,-1.41449 2.95756,-1.41449 h 90.52689 q 1.92885,0 2.95756,1.41449 1.1573,1.41448 1.1573,3.6005 v 58.76533 q 0,2.57178 -1.28589,3.98626 -1.2859,1.41449 -2.82897,1.41449 z m 2.05743,-89.241 h -94.64174 q -1.80026,0 -2.95756,-1.41448 -1.15731,-1.41449 -1.15731,-3.60051 0,-2.18602 1.15731,-3.34331 1.1573,-1.1573 2.95756,-1.1573 h 94.64174 q 1.92883,0 2.95756,1.41447 1.15729,1.41448 1.15729,3.47192 0,2.18602 -1.28588,3.47191 -1.28589,1.1573 -2.82897,1.1573 z m -67.89516,60.43699 q -1.80025,0 -2.95757,-1.41449 -1.15729,-1.41447 -1.15729,-3.47191 V 371.9709 q 0,-2.18602 1.15729,-3.6005 1.15732,-1.41449 2.95757,-1.41449 1.92884,0 2.95754,1.41449 1.15731,1.41448 1.15731,3.6005 v 55.55059 q 0,2.05744 -1.28589,3.47191 -1.28589,1.41449 -2.82896,1.41449 z m 41.14858,0 q -1.80025,0 -2.95755,-1.41449 -1.15732,-1.41447 -1.15732,-3.47191 V 371.9709 q 0,-2.18602 1.15732,-3.6005 1.1573,-1.41449 2.95755,-1.41449 1.92884,0 2.95755,1.41449 1.15731,1.41448 1.15731,3.6005 v 55.55059 q 0,2.05744 -1.28589,3.47191 -1.2859,1.41449 -2.82897,1.41449 z m 155.97886,28.28965 q -1.67166,0 -2.95756,-1.1573 -1.1573,-1.2859 -1.1573,-2.95756 v 0 -44.74909 q 0,-4.24344 -3.08614,-7.201 -2.95756,-3.08615 -7.201,-3.08615 v 0 h -50.40703 q -1.67165,0 -2.95754,-1.1573 -1.15731,-1.28589 -1.15731,-2.95754 0,-1.80026 1.15731,-2.95757 1.28589,-1.1573 2.95754,-1.1573 v 0 h 50.40703 q 7.71535,0 13.1161,5.40075 5.40077,5.40075 5.40077,13.11611 v 44.74909 q 0,1.67166 -1.2859,2.95756 -1.1573,1.1573 -2.82897,1.1573 z m -89.75535,-37.80526 q -1.67166,0 -2.95756,-1.15731 -1.15731,-1.28589 -1.15731,-2.95755 v 0 -42.56308 q 0,-1.80025 1.15731,-2.95754 1.2859,-1.15731 2.95756,-1.15731 1.80024,0 2.95755,1.15731 1.15731,1.15729 1.15731,2.95754 v 0 42.56308 q 0,1.67166 -1.15731,2.95755 -1.15731,1.15731 -2.95755,1.15731 z m 20.05993,9.51561 q -1.80024,0 -2.95754,-1.15731 -1.15732,-1.28589 -1.15732,-2.95755 v 0 -61.72289 q 0,-1.67165 1.15732,-2.82896 1.1573,-1.28588 2.95754,-1.28588 1.67167,0 2.82897,1.28588 1.2859,1.15731 1.2859,2.82896 v 0 61.72289 q 0,1.67166 -1.2859,2.95755 -1.1573,1.15731 -2.82897,1.15731 z M 811.9862,365.28425 q 0.64294,-1.1573 1.80025,-1.80025 1.1573,-0.64295 2.70038,-0.64295 l 7.45818,0.90013 -2.05744,3.60051 -2.4432,4.62921 q -0.90012,1.54307 -0.38576,3.08614 0.51436,1.54308 2.05744,2.18603 0.25717,0.38576 0.77152,0.38576 0.64295,0 1.2859,0 h 47.32088 q 1.80025,0 2.95755,1.2859 1.1573,1.28589 1.1573,2.82896 0,0 0,0 0,0 0,0 v 0 q 0,1.54307 -1.28589,2.82897 -1.28589,1.28589 -2.82896,1.28589 h -57.60803 q -1.02871,0 -2.05742,0.64295 -1.02872,0.51435 -1.67167,1.41448 -3.08614,4.62921 -6.42946,9.00125 -3.34333,4.37203 -6.81525,8.3583 -0.90012,1.15732 -2.57177,1.41449 -1.54307,0.25718 -3.08616,-0.64294 l -1.28588,-0.77155 q -1.28589,-0.90012 -1.54307,-2.57177 -0.25719,-1.67167 0.77153,-3.21474 0,0 0,-0.1286 0,-0.25717 0.38577,-0.25717 3.47191,-3.85767 6.81524,-7.97254 3.21473,-4.11486 6.04369,-8.35831 2.95756,-4.24344 5.65794,-8.61548 2.57178,-4.37204 4.88639,-8.87267 z m 40.37705,93.09868 q -0.64294,1.15731 -1.80026,1.80025 -1.1573,0.64295 -2.70037,0.64295 l -7.45818,-0.90013 2.05743,-3.6005 q 0.64295,-1.28589 1.15731,-2.44319 0.64295,-1.15732 1.2859,-2.18602 0.90012,-1.54307 0.38575,-3.08614 -0.51435,-1.54308 -2.05743,-2.18602 -0.25717,-0.38577 -0.90012,-0.38577 -0.51436,0 -1.15731,0 H 793.8551 q -1.80025,0 -2.95756,-1.1573 -1.1573,-1.15732 -1.1573,-2.95756 0,0 0,0 0,0 0,0 v 0 q 0,-1.54308 1.2859,-2.82897 1.28589,-1.2859 2.82896,-1.2859 h 57.60803 q 1.0287,0 2.05742,-0.51435 1.02872,-0.64295 1.67167,-1.54307 3.08614,-4.62921 6.42946,-9.00125 3.34332,-4.37204 6.81524,-8.35832 0.90012,-1.15729 2.44319,-1.41447 1.67166,-0.25718 3.21474,0.64294 l 1.28589,0.77153 q 1.54307,0.90014 1.80025,2.5718 0.38577,1.67166 -0.51436,3.21473 0,0 -0.12859,0.25718 0,0.12859 -0.38576,0.12859 -3.60051,3.85768 -6.94383,7.97253 -3.34333,4.11486 -6.30087,8.35831 -2.95757,4.24345 -5.65794,8.61549 -2.57179,4.37204 -4.88639,8.87266 z m 160.86585,-75.35335 v -0.38576 q 0,-1.54308 -1.1574,-2.57179 -1.0287,-1.1573 -2.5718,-1.1573 h -25.84694 q -1.54307,0 -2.70038,-1.02872 -1.02871,-1.1573 -1.02871,-2.70037 v -9.00125 q 0,-1.54309 -1.15731,-2.57179 -1.02871,-1.1573 -2.57178,-1.1573 v 0 q -1.54307,0 -2.70038,1.1573 -1.02871,1.0287 -1.02871,2.57179 v 9.00125 q 0,1.54307 -1.15731,2.70037 -1.02872,1.02872 -2.57179,1.02872 h -12.34456 q -1.54308,0 -2.5718,-1.02872 -1.02871,-1.1573 -1.02871,-2.70037 v -9.00125 q 0.25717,-1.54309 -0.77153,-2.57179 -1.02872,-1.1573 -2.5718,-1.1573 v 0 q -1.54307,0 -2.70037,1.1573 -1.02872,1.0287 -1.02872,2.57179 v 9.00125 q 0,1.54307 -1.15731,2.70037 -1.0287,1.02872 -2.57178,1.02872 h -23.78903 q -1.54307,0 -2.70036,1.1573 -1.02872,1.02871 -1.02872,2.57179 v 0.38576 q 0,1.54308 1.02872,2.70038 1.15729,1.02871 2.70036,1.02871 h 23.78903 q 1.54308,0 2.57178,1.15731 1.15731,1.02871 1.15731,2.57178 v 9.00126 q 0,1.54307 -1.15731,2.70037 -1.0287,1.02872 -2.57178,1.02872 h -19.67416 q -1.54307,0 -2.70038,1.1573 -1.02871,1.02872 -1.02871,2.57179 v 50.53561 q 0,1.54307 1.02871,2.70037 1.15731,1.02872 2.70038,1.02872 h 81.01145 q 1.5432,0 2.5719,-1.02872 1.1574,-1.1573 1.1574,-2.70037 v -50.14984 q 0,-1.54307 -1.1574,-2.57179 -1.0287,-1.1573 -2.5719,-1.1573 h -19.67434 q -1.54307,0 -2.70038,-1.02872 -1.02871,-1.1573 -1.02871,-2.70037 v -9.00125 q 0,-1.54308 1.02871,-2.57179 1.15731,-1.15731 2.70038,-1.15731 l 25.84694,-0.38577 q 1.5431,0 2.5718,-1.02871 1.1574,-1.1573 1.1574,-2.70038 z m -71.23909,70.33836 h -12.34458 q -1.54307,0 -2.57177,-1.02871 -1.02872,-1.15731 -1.02872,-2.70038 v -10.28714 q 0,-1.54308 1.02872,-2.57178 1.0287,-1.02872 2.57177,-1.02872 h 12.34458 q 1.54308,0 2.57178,1.02872 1.15731,1.0287 1.15731,2.57178 v 10.28714 q 0,1.54307 -1.15731,2.70038 -1.0287,1.02871 -2.57178,1.02871 z m 0,-24.68915 h -12.34458 q -1.54307,0 -2.57177,-1.02871 -1.02872,-1.15729 -1.02872,-2.70038 v -10.28715 q 0,-1.54307 1.02872,-2.57177 1.0287,-1.02872 2.57177,-1.02872 h 12.34458 q 1.54308,0 2.57178,1.02872 1.15731,1.0287 1.15731,2.57177 v 10.28715 q 0,1.54309 -1.15731,2.70038 -1.0287,1.02871 -2.57178,1.02871 z m 26.74658,24.68915 h -12.34456 q -1.54308,0 -2.5718,-1.02871 -1.02871,-1.15731 -1.02871,-2.70038 v -9.77278 q 0,-1.54307 1.02871,-2.57179 1.02872,-1.1573 2.5718,-1.1573 h 12.34456 q 1.54307,0 2.57179,1.1573 1.15731,1.02872 1.15731,2.57179 v 9.77278 q 0,1.54307 -1.15731,2.70038 -1.02872,1.02871 -2.57179,1.02871 z m 0,-24.68915 h -12.34456 q -1.54308,0 -2.5718,-1.02871 -1.02871,-1.15729 -1.02871,-2.70038 v -10.28715 q 0,-1.54307 1.02871,-2.57177 1.02872,-1.02872 2.5718,-1.02872 h 12.34456 q 1.54307,0 2.57179,1.02872 1.15731,1.0287 1.15731,2.57177 v 10.28715 q 0,1.54309 -1.15731,2.70038 -1.02872,1.02871 -2.57179,1.02871 z m 0,-25.46068 h -12.34456 q -1.54308,0 -2.5718,-1.02872 -1.02871,-1.1573 -1.02871,-2.70037 v -9.00126 q 0,-1.54307 1.02871,-2.57178 1.02872,-1.15731 2.5718,-1.15731 h 12.34456 q 1.54307,0 2.57179,1.15731 1.15731,1.02871 1.15731,2.57178 v 9.00126 q 0,1.80024 -1.15731,2.82897 -1.02872,0.90012 -2.57179,0.90012 z m 27.26095,50.14983 H 983.1386 q -1.54307,0 -2.57179,-1.02871 -1.02871,-1.15731 -1.02871,-2.70038 v -9.77278 q 0,-1.54307 1.02871,-2.57179 1.02872,-1.1573 2.57179,-1.1573 h 12.85894 q 1.54307,0 2.57179,1.1573 1.0287,1.02872 1.0287,2.57179 v 10.28715 q 0,1.1573 -1.0287,2.18601 -1.02872,1.02871 -2.57179,1.02871 z m 3.60049,-38.70539 v 10.28715 q 0,1.54309 -1.0287,2.70038 -1.02872,1.02871 -2.57179,1.02871 H 983.1386 q -1.54307,0 -2.57179,-1.02871 -1.02871,-1.15729 -1.02871,-2.70038 v -10.28715 q 0,-1.54307 1.02871,-2.57177 1.02872,-1.02872 2.57179,-1.02872 h 12.85894 q 1.54307,0 2.57179,1.02872 1.0287,1.0287 1.0287,2.57177 z"
       id="path2" /><g
       id="g4"
       transform="matrix(3.5149224,0,0,3.2743125,-151.47407,-34.122064)"
       style="fill:#ffffff"><path
         style="fill:#ffffff;fill-opacity:1;fill-rule:nonzero;stroke:#989898;stroke-width:0.269733;stroke-opacity:1"
         d="m 85.867445,79.955637 c -14.438652,-0.177214 -13.383547,0.273552 -13.383547,-5.717744 0,-5.275008 0.07494,-5.405748 3.10084,-5.407791 1.243939,-7.93e-4 7.836675,-0.07925 14.650539,-0.174248 15.980633,-0.222795 14.699563,-0.692394 14.697863,5.38779 -0.002,6.518242 1.15298,6.160149 -19.065695,5.911993 z"
         id="path165-4" /><path
         style="fill:#ffffff;fill-opacity:1;fill-rule:nonzero;stroke:#989898;stroke-width:0.269733;stroke-opacity:1"
         d="m 71.643903,144.06236 c -0.672956,-1.70284 -0.195299,-31.81949 0.529117,-33.36115 1.656426,-3.52507 3.200215,-4.11319 11.265533,-4.29166 7.711669,-0.17066 8.020499,-0.31334 8.020499,-3.70536 0,-3.980758 -0.205423,-4.074882 -9.256622,-4.241312 C 73.091861,98.295356 71.91411,97.695603 71.697826,93.113541 71.39992,86.802629 72.17435,86.50456 88.59202,86.611096 c 17.48457,0.113461 15.37963,-4.076861 15.37963,30.616444 0,27.40189 0,27.40189 -5.912087,27.47348 -7.47757,0.0905 -6.600511,1.72562 -6.600511,-12.30528 0,-13.52169 -0.07827,-13.82595 -3.55667,-13.82595 -3.666948,0 -3.706902,0.1461 -3.86839,14.14211 -0.1375,11.91753 -0.1375,11.91753 -6.123561,11.98882 -5.986062,0.0713 -5.986062,0.0713 -6.266528,-0.63836 z"
         id="path137-5" /><path
         style="fill:#ffffff;fill-opacity:1;fill-rule:nonzero;stroke:#989898;stroke-width:0.298731;stroke-opacity:1"
         d="m 131.90724,81.284156 c -5.02389,-2.592343 -5.06571,-10.256017 -0.0706,-12.943084 4.95572,-2.665883 10.40185,0.820795 10.36944,6.638613 -0.0304,5.450265 -5.48418,8.788843 -10.29881,6.304471 z"
         id="path159-2"
         sodipodi:nodetypes="sscs" /><path
         style="fill:#ffffff;fill-opacity:1;fill-rule:nonzero;stroke:#989898;stroke-width:0.262488;stroke-opacity:1"
         d="m 112.08786,101.76872 c -1.31059,-0.43769 -3.13007,-2.153316 -3.61684,-3.410393 -0.75602,-1.952431 -0.48732,-26.567316 0.30369,-27.819872 1.43635,-2.274443 1.79488,-2.421001 5.81305,-2.37614 3.04321,0.03397 3.8332,0.422177 4.84683,2.381758 0.78271,1.513173 0.93,26.73229 0.16441,28.147854 -1.43179,2.647303 -4.73974,4.002353 -7.51114,3.076793 z"
         id="path151-7" /><path
         style="fill:#ffffff;fill-opacity:1;fill-rule:nonzero;stroke:#989898;stroke-width:0.269733;stroke-opacity:1"
         d="m 129.94165,143.87309 c -0.30106,-0.46864 -0.15532,-26.67038 0.1527,-27.45253 0.7932,-2.01413 2.39221,-2.8225 5.61524,-2.83874 3.59235,-0.0181 4.98936,0.57505 6.12022,2.59855 0.56161,1.00494 0.89712,25.88095 0.36716,27.22198 -0.29684,0.7511 -11.79157,1.1926 -12.25532,0.47074 z"
         id="path133-6" /><path
         style="fill:#ffffff;fill-opacity:1;fill-rule:nonzero;stroke:#989898;stroke-width:0.263634;stroke-opacity:1"
         d="m 109.95247,143.61201 c -1.79808,-1.36943 -1.80104,-1.39499 -1.80104,-15.62234 0,-12.86539 0,-12.86539 1.04226,-14.12089 0.57323,-0.69054 5.5466,-5.59456 11.05188,-10.89786 12.31892,-11.866891 11.71888,-11.591539 16.07746,-7.377675 4.59366,4.441125 4.62186,4.375067 -6.49542,15.208785 -10.46174,10.19487 -9.35164,7.82429 -9.35164,19.97008 0,10.73082 -0.0172,10.85949 -1.67369,12.51664 -1.0861,1.08653 -7.53817,1.3222 -8.84981,0.32326 z"
         id="path131-1" /></g></g></svg>
