<?xml version="1.0" encoding="UTF-8" standalone="no"?>
<!-- Created with Inkscape (http://www.inkscape.org/) -->

<svg
   width="1280mm"
   height="640mm"
   viewBox="0 0 1280 640"
   version="1.1"
   id="svg1"
   inkscape:version="1.4.2 (f4327f4, 2025-05-13)"
   sodipodi:docname="fontlogo.svg"
   xml:space="preserve"
   xmlns:inkscape="http://www.inkscape.org/namespaces/inkscape"
   xmlns:sodipodi="http://sodipodi.sourceforge.net/DTD/sodipodi-0.dtd"
   xmlns="http://www.w3.org/2000/svg"
   xmlns:svg="http://www.w3.org/2000/svg"><sodipodi:namedview
     id="namedview1"
     pagecolor="#ffffff"
     bordercolor="#000000"
     borderopacity="0.25"
     inkscape:showpageshadow="2"
     inkscape:pageopacity="0.0"
     inkscape:pagecheckerboard="0"
     inkscape:deskcolor="#d1d1d1"
     inkscape:document-units="px"
     inkscape:zoom="0.28329124"
     inkscape:cx="2642.1572"
     inkscape:cy="1782.6178"
     inkscape:window-width="2560"
     inkscape:window-height="1566"
     inkscape:window-x="-11"
     inkscape:window-y="-11"
     inkscape:window-maximized="1"
     inkscape:current-layer="layer1" /><defs
     id="defs1"><rect
       x="698.8917"
       y="1108.2425"
       width="2680.7489"
       height="1048.3375"
       id="rect3" /></defs><g
     inkscape:label="图层 1"
     inkscape:groupmode="layer"
     id="layer1"><rect
       style="fill:#ffffff;fill-opacity:1;stroke:#ffffff;stroke-width:8.9047"
       id="rect1"
       width="1267.0135"
       height="633.02319"
       x="6.4931684"
       y="3.4883847"
       ry="21.800144"
       inkscape:label="background" /><path
       style="font-size:211.667px;font-family:AGSL2;-inkscape-font-specification:AGSL2;text-align:center;baseline-shift:baseline;text-anchor:middle;fill:#000000;fill-opacity:1;stroke:#ffffff;stroke-width:2.19459;stroke-dasharray:none"
       d="m 481.08303,246.86915 48.63222,-0.17557 2.80909,10.53406 h -53.19698 z m 64.78445,-101.3025 h 9.83178 v 112.36326 h -9.83178 v -95.3332 h -80.58553 v 95.3332 h -9.83179 V 153.11606 h 90.41732 z m -45.12088,32.65558 -10.88519,0.5267 q -10.88518,0.70227 -11.23632,0.70227 -1.22897,0 -1.58011,-1.22897 -1.05341,-6.14486 -1.05341,-6.14486 0,-1.58011 1.40455,-1.58011 29.31978,-1.22897 54.25038,-3.51135 h 0.17557 q 1.22897,0 1.5801,1.40453 0.70228,4.74033 0.70228,6.14487 0,1.40454 -1.22898,1.40454 -1.5801,0.17557 -10.00735,0.87784 -8.42725,0.5267 -13.34314,0.87784 0,10.70961 -0.17557,15.80108 h 28.26639 q 1.40454,0 1.40454,1.40453 v 5.79373 q 0,1.58012 -1.40454,1.58012 h -26.51071 q 6.84713,20.54141 27.56411,27.56412 1.05341,0.35113 1.05341,1.40453 0,0.17557 -4.74033,7.0227 -0.70226,0.70227 -1.22897,0.70227 -0.35114,0 -2.28238,-0.70227 -1.93124,-0.87784 -5.44259,-2.98465 -3.33579,-2.28237 -7.02271,-5.26702 -3.51135,-3.16021 -7.37384,-8.42724 -3.68691,-5.26703 -6.14486,-11.58747 -3.16021,9.12952 -10.53405,16.67892 -7.19827,7.37384 -12.28973,10.35849 -5.09147,2.80908 -5.9693,2.80908 -0.70228,0 -3.16022,-3.16021 -2.45795,-3.33579 -2.45795,-4.03805 0,-1.05341 0.87784,-1.40455 22.29709,-10.70963 27.03741,-28.96865 h -25.4573 q -1.58011,0 -1.58011,-1.58012 v -5.79373 q 0,-1.40453 1.58011,-1.40453 h 26.86184 q 0.35113,-9.48065 0.35113,-15.27438 z M 454.92346,141.5286 v -29.31978 h 100.07353 v 29.31978 h -9.30508 V 121.68946 H 464.22854 V 141.5286 Z M 409.10032,109.92644 H 443.336 v 10.53405 h -21.41924 q -4.03806,4.03805 -4.91589,6.14487 -1.05341,3.86248 1.0534,5.26703 0.87784,0.5267 2.10681,0.70226 1.40455,0.17557 2.45795,0.17557 1.0534,-0.17557 2.28238,0 H 443.336 v 10.53406 h -22.82378 q -6.32044,-0.17557 -9.48065,-4.56476 -2.98465,-4.38919 -2.63352,-9.48065 0.35114,-5.09146 2.80908,-8.77838 0.70227,-0.70226 -0.35113,-0.70226 l -1.75568,-0.17558 z m 21.41926,63.3799 q 7.54939,-7.54941 4.21361,-11.06076 -1.5801,-1.22897 -6.14486,-1.22897 h -19.48801 v -10.53406 h 1.75568 21.24368 q 6.32044,0.17557 9.30509,4.56476 2.98464,4.38919 2.45793,9.83178 -0.35113,5.26703 -3.16021,9.12952 0.5267,0 1.40454,0.17556 0.87784,0 1.22897,0 v 9.65622 h -34.23568 v -10.53405 z m 4.74031,18.25902 h 8.07611 v 33.35785 h -8.07611 v -10.70963 h -38.62487 v -21.41924 h 7.90055 v 10.70961 h 30.72432 z m 0,40.73168 h 8.07611 v 33.35785 h -8.07611 v -10.8852 h -38.62487 v -21.24367 h 7.90055 v 10.70962 h 30.72432 z m 295.12903,-69.52476 h -80.05883 v 82.51676 h 80.05883 z M 640.14718,263.02137 V 153.4672 h 100.42467 v 109.55417 h -10.18293 v -8.60281 h -80.05883 v 8.60281 z m 49.51006,-54.60152 q -3.51135,9.30508 -10.70962,16.50336 -7.19827,7.19827 -11.9386,9.83178 -4.56475,2.63351 -5.4426,2.63351 -0.87783,0 -1.40453,-0.70226 l -3.68693,-4.74033 -0.5267,-1.0534 q 0,-0.87784 1.22898,-1.58012 1.22897,-0.87783 2.98465,-1.5801 1.93123,-0.87783 5.09145,-2.80908 3.16023,-2.10681 6.14487,-4.74033 10.70962,-9.30508 12.992,-24.75503 h -25.4573 q -1.93124,0 -1.93124,-1.75568 v -4.74033 q 0,-1.93123 1.93124,-1.93123 h 25.984 q 0.17557,-6.496 0.17557,-16.32779 0,-1.75568 1.75568,-1.75568 h 5.09146 q 1.93124,0 1.93124,1.75568 0,2.80908 -0.17557,8.25168 0,5.44259 0,8.07611 h 26.86185 q 1.75567,0 1.75567,1.93123 v 4.74033 q 0,1.75568 -1.75567,1.75568 h -26.68628 q 4.91589,24.22833 28.44195,32.12887 1.22898,0.35114 1.22898,1.75567 0,0.70228 -0.52672,1.22898 -0.35113,0.5267 -1.75567,1.93124 -1.40454,1.40455 -2.80908,2.98466 -0.70227,0.70226 -1.40454,0.70226 -0.35114,0 -2.10681,-0.5267 -1.75568,-0.70227 -5.09146,-2.63351 -3.33578,-2.10681 -6.84713,-4.91589 -3.33579,-2.80909 -7.02271,-8.07612 -3.68691,-5.26703 -6.32043,-11.58746 z m -98.31785,-71.45601 q 1.75568,0 2.80908,1.40454 7.54941,14.39655 14.04541,32.12888 1.22897,2.45794 -0.87784,4.03805 -2.63351,1.40454 -7.90054,3.86249 -1.22898,0.70226 -2.63351,0.35113 -1.22898,-0.5267 -1.75568,-1.75568 -7.19827,-20.36584 -12.81643,-32.12887 -1.75568,-2.28238 0.70226,-4.03805 7.0227,-3.86249 8.42725,-3.86249 z m 22.82379,-24.93059 h 4.9159 l 3.16021,-3.86248 q 6.14487,4.91588 15.09881,14.39653 l -5.26703,5.9693 q -3.33578,-3.33579 -4.74032,-4.91589 v 138.87396 q 0.17556,1.22897 -0.70227,2.10681 -0.70227,1.05341 -1.93125,1.22897 h -10.00735 q -1.40454,0.17557 -2.45795,-0.70227 -1.0534,-0.87784 -1.0534,-2.10681 v -56.00606 q -21.06811,18.61017 -21.94596,19.31244 -2.45794,2.28238 -4.56475,0.17556 -0.52671,-0.70227 -5.44259,-7.5494 -2.28238,-2.28238 0.35113,-4.38919 14.92325,-11.4119 31.60217,-25.63288 V 115.5446 q -0.17557,-1.40453 0.70227,-2.45795 1.0534,-1.0534 2.28238,-1.0534 z m 30.02205,0.17557 h 96.38662 v 29.31978 h -9.3051 v -19.83914 h -81.46336 v 19.83914 h -9.30508 v -22.12152 l -0.17556,0.35115 q -8.95394,-9.83179 -14.39654,-14.22098 l 4.74033,-5.618157 q 7.90053,6.495997 13.51869,12.289727 z m 209.45204,134.66033 48.63222,-0.17557 2.80909,10.53406 H 851.8816 Z m 64.78445,-101.3025 h 9.83178 v 112.36326 h -9.83178 v -95.3332 h -80.58553 v 95.3332 h -9.83178 V 153.11606 h 90.41731 z m -70.75375,32.30445 5.4426,-5.79373 q 12.11417,11.23631 25.28174,24.75502 11.23633,-13.86984 19.48799,-26.86183 l 7.02271,5.26702 q -11.41189,16.50335 -20.71697,27.56411 14.39654,14.74768 25.10615,26.5107 l -6.67156,7.72498 q -9.12951,-11.06076 -24.22832,-27.38854 -14.22098,16.32778 -28.44195,28.26637 -2.45795,-3.68691 -6.14487,-7.02269 14.57211,-11.06076 28.96866,-27.38856 -12.11417,-12.99199 -25.10618,-25.63285 z m -20.19026,-36.3425 v -29.31978 h 100.07352 v 29.31978 h -9.30508 v -19.83914 h -81.46337 v 19.83914 z m -59.69298,123.24845 q -2.98464,-10.88519 -2.98464,-11.23633 0,-1.75568 1.75567,-2.10681 12.81643,-2.80908 25.80843,-6.14487 12.99201,-3.16021 19.48801,-4.91589 6.67156,-1.75567 6.84713,-1.75567 2.28238,0 2.28238,2.28237 v 0.70228 q 0,0.5267 -0.17557,1.5801 0,1.05341 -0.17556,2.28238 0,1.22897 0,2.63351 0,1.58011 0,2.98465 0,1.75567 -1.75568,2.10682 -14.04541,3.33578 -26.33515,6.67156 -12.11416,3.33579 -17.38119,4.9159 l -5.26702,1.5801 q -1.75567,0 -2.10681,-1.5801 z m 25.63286,-85.32585 z m -0.87784,1.40454 q -6.32043,0.35114 -11.93859,0.87784 -5.61816,0.35113 -8.25168,0.70227 -2.45794,0.17556 -2.63351,0.17556 -1.75567,0 -2.10681,-1.5801 l -2.63351,-10.00735 v -0.17557 q -0.17556,-0.17557 -0.17556,-0.35113 0,-0.35114 0.5267,-1.40454 14.39653,-20.01471 30.37318,-58.63958 0.5267,-1.40454 2.10681,-1.40454 0.70227,0 0.87784,0.17557 l 10.00736,4.03805 q 1.22897,0.5267 1.22897,2.10681 0,0.5267 -4.38919,9.48065 -4.38919,8.95394 -11.23633,21.94595 -6.84714,12.81643 -12.11417,21.41925 10.8852,-0.35114 18.08347,-0.52671 6.67157,-12.11416 10.35849,-19.488 0.70227,-1.22897 1.93124,-1.22897 0.35114,0 1.05341,0.35113 l 9.83179,5.09147 q 1.22897,0.70226 1.22897,1.93123 0,0.70228 -5.09147,9.48066 -5.09145,8.60281 -14.0454,22.47265 -8.77838,13.86983 -17.03006,25.80843 7.37384,-1.0534 15.09882,-2.28237 7.90054,-1.40455 12.11416,-2.28238 l 4.21363,-0.70227 q 2.28237,0 2.28237,2.28237 l -0.35114,1.58011 q -0.17556,1.5801 -0.5267,4.21362 -0.17556,2.63352 -0.35113,4.9159 0,1.58011 -1.93125,1.93124 -7.72497,1.22897 -19.31243,3.16022 -11.58746,1.93125 -19.31244,3.33578 -7.72497,1.22897 -7.90054,1.22897 -1.93125,0 -2.28238,-1.75567 -2.28237,-11.23633 -2.28237,-11.41189 0,-0.70227 2.28237,-3.33579 2.45795,-2.80908 8.77838,-11.41189 6.32044,-8.60282 13.5187,-20.71698 z m 315.49665,-18.08346 h -80.0605 v 82.51676 h 80.0605 z M 1017.793,263.02137 V 153.4672 h 100.4262 v 109.55417 h -10.1828 v -8.60281 h -80.0605 v 8.60281 z m 49.5117,-54.60152 q -3.5114,9.30508 -10.7096,16.50336 -7.1987,7.19827 -11.9393,9.83178 -4.565,2.63351 -5.4429,2.63351 -0.8779,0 -1.4046,-0.70226 l -3.6872,-4.74033 -0.5267,-1.0534 q 0,-0.87784 1.229,-1.58012 1.2291,-0.87783 2.9849,-1.5801 1.9313,-0.87783 5.0918,-2.80908 3.1603,-2.10681 6.1452,-4.74033 10.71,-9.30508 12.9923,-24.75503 h -25.4584 q -1.9313,0 -1.9313,-1.75568 v -4.74033 q 0,-1.93123 1.9313,-1.93123 h 25.9852 q 0.1755,-6.496 0.1755,-16.32779 0,-1.75568 1.7556,-1.75568 h 5.0916 q 1.9312,0 1.9312,1.75568 0,2.80908 -0.1756,8.25168 0,5.44259 0,8.07611 h 26.8619 q 1.7557,0 1.7557,1.93123 v 4.74033 q 0,1.75568 -1.7557,1.75568 h -26.6863 q 4.9159,24.22833 28.442,32.12887 1.2289,0.35114 1.2289,1.75567 0,0.70228 -0.5267,1.22898 -0.3511,0.5267 -1.7556,1.93124 -1.4046,1.40455 -2.8091,2.98466 -0.7023,0.70226 -1.4045,0.70226 -0.3512,0 -2.1069,-0.5267 -1.7557,-0.70227 -5.0914,-2.63351 -3.3359,-2.10681 -6.8472,-4.91589 -3.3358,-2.80909 -7.0227,-8.07612 -3.6869,-5.26703 -6.3204,-11.58746 z m -49.1605,-66.89125 v -29.31978 h 100.075 v 29.31978 h -9.3049 v -19.83914 h -81.465 v 19.83914 z m -61.62427,6.32043 h 17.9079 q 0.35113,-22.82379 0.35113,-36.51804 h 11.76303 q -0.17557,5.61816 -0.35113,18.08345 0,12.46529 0,18.43459 h 28.96864 q -0.7023,57.4106 -1.5801,83.74575 -0.8778,26.68626 -12.2897,26.86183 -5.61819,0 -13.51873,-0.5267 -0.35113,-6.67157 -0.70227,-11.23633 1.93124,0.52671 9.65621,0.17557 1.5801,0 2.45795,-1.22897 1.05344,-1.22897 1.58014,-4.3892 0.5267,-2.98464 0.7022,-5.26701 0.3512,-2.45795 0.5267,-7.72498 0.7023,-25.28174 1.229,-65.66228 h -17.20561 q -0.5267,26.68628 -3.33578,43.89189 -2.63352,17.20563 -8.07611,29.3198 -5.26704,12.11416 -15.44995,25.984 -0.5267,-1.75568 -4.74033,-4.21363 -4.03805,-2.45795 -4.74032,-4.56475 14.04541,-18.08346 18.9613,-37.04476 5.09146,-19.13687 5.61816,-53.37255 h -17.73233 z"
       id="path1" /><path
       style="font-size:158.75px;font-family:bslang-letter;-inkscape-font-specification:bslang-letter;text-align:center;baseline-shift:baseline;text-anchor:middle;fill:#000000;stroke:#ffffff;stroke-width:2.19459;stroke-dasharray:none"
       d="m 614.47298,397.89873 q -1.80024,0 -2.95755,-1.41449 -1.15731,-1.41448 -1.15731,-3.47191 v -54.39329 h -82.29717 v 53.87894 q 0,2.18601 -1.1573,3.6005 -1.02872,1.41448 -2.95756,1.41448 -1.80025,0 -2.95756,-1.41448 -1.1573,-1.41449 -1.1573,-3.6005 v -58.76533 q 0,-2.18602 1.1573,-3.6005 1.15731,-1.41449 2.95756,-1.41449 h 90.52689 q 1.92885,0 2.95756,1.41449 1.1573,1.41448 1.1573,3.6005 v 58.76533 q 0,2.57178 -1.28589,3.98626 -1.2859,1.41449 -2.82897,1.41449 z m 2.05743,-89.241 h -94.64174 q -1.80026,0 -2.95756,-1.41448 -1.15731,-1.41449 -1.15731,-3.60051 0,-2.18602 1.15731,-3.34331 1.1573,-1.1573 2.95756,-1.1573 h 94.64174 q 1.92883,0 2.95756,1.41447 1.15729,1.41448 1.15729,3.47192 0,2.18602 -1.28588,3.47191 -1.28589,1.1573 -2.82897,1.1573 z m -67.89516,60.43699 q -1.80025,0 -2.95757,-1.41449 -1.15729,-1.41447 -1.15729,-3.47191 v -55.55059 q 0,-2.18602 1.15729,-3.6005 1.15732,-1.41449 2.95757,-1.41449 1.92884,0 2.95754,1.41449 1.15731,1.41448 1.15731,3.6005 v 55.55059 q 0,2.05744 -1.28589,3.47191 -1.28589,1.41449 -2.82896,1.41449 z m 41.14858,0 q -1.80025,0 -2.95755,-1.41449 -1.15732,-1.41447 -1.15732,-3.47191 v -55.55059 q 0,-2.18602 1.15732,-3.6005 1.1573,-1.41449 2.95755,-1.41449 1.92884,0 2.95755,1.41449 1.15731,1.41448 1.15731,3.6005 v 55.55059 q 0,2.05744 -1.28589,3.47191 -1.2859,1.41449 -2.82897,1.41449 z m 155.97886,28.28965 q -1.67166,0 -2.95756,-1.1573 -1.1573,-1.2859 -1.1573,-2.95756 v 0 -44.74909 q 0,-4.24344 -3.08614,-7.201 -2.95756,-3.08615 -7.201,-3.08615 v 0 h -50.40703 q -1.67165,0 -2.95754,-1.1573 -1.15731,-1.28589 -1.15731,-2.95754 0,-1.80026 1.15731,-2.95757 1.28589,-1.1573 2.95754,-1.1573 v 0 h 50.40703 q 7.71535,0 13.1161,5.40075 5.40077,5.40075 5.40077,13.11611 v 44.74909 q 0,1.67166 -1.2859,2.95756 -1.1573,1.1573 -2.82897,1.1573 z m -89.75535,-37.80526 q -1.67166,0 -2.95756,-1.15731 -1.15731,-1.28589 -1.15731,-2.95755 v 0 -42.56308 q 0,-1.80025 1.15731,-2.95754 1.2859,-1.15731 2.95756,-1.15731 1.80024,0 2.95755,1.15731 1.15731,1.15729 1.15731,2.95754 v 0 42.56308 q 0,1.67166 -1.15731,2.95755 -1.15731,1.15731 -2.95755,1.15731 z m 20.05993,9.51561 q -1.80024,0 -2.95754,-1.15731 -1.15732,-1.28589 -1.15732,-2.95755 v 0 -61.72289 q 0,-1.67165 1.15732,-2.82896 1.1573,-1.28588 2.95754,-1.28588 1.67167,0 2.82897,1.28588 1.2859,1.15731 1.2859,2.82896 v 0 61.72289 q 0,1.67166 -1.2859,2.95755 -1.1573,1.15731 -2.82897,1.15731 z M 811.9862,301.97108 q 0.64294,-1.1573 1.80025,-1.80025 1.1573,-0.64295 2.70038,-0.64295 l 7.45818,0.90013 -2.05744,3.60051 -2.4432,4.62921 q -0.90012,1.54307 -0.38576,3.08614 0.51436,1.54308 2.05744,2.18603 0.25717,0.38576 0.77152,0.38576 0.64295,0 1.2859,0 h 47.32088 q 1.80025,0 2.95755,1.2859 1.1573,1.28589 1.1573,2.82896 0,0 0,0 0,0 0,0 v 0 q 0,1.54307 -1.28589,2.82897 -1.28589,1.28589 -2.82896,1.28589 h -57.60803 q -1.02871,0 -2.05742,0.64295 -1.02872,0.51435 -1.67167,1.41448 -3.08614,4.62921 -6.42946,9.00125 -3.34333,4.37203 -6.81525,8.3583 -0.90012,1.15732 -2.57177,1.41449 -1.54307,0.25718 -3.08616,-0.64294 l -1.28588,-0.77155 q -1.28589,-0.90012 -1.54307,-2.57177 -0.25719,-1.67167 0.77153,-3.21474 0,0 0,-0.1286 0,-0.25717 0.38577,-0.25717 3.47191,-3.85767 6.81524,-7.97254 3.21473,-4.11486 6.04369,-8.35831 2.95756,-4.24344 5.65794,-8.61548 2.57178,-4.37204 4.88639,-8.87267 z m 40.37705,93.09868 q -0.64294,1.15731 -1.80026,1.80025 -1.1573,0.64295 -2.70037,0.64295 l -7.45818,-0.90013 2.05743,-3.6005 q 0.64295,-1.28589 1.15731,-2.44319 0.64295,-1.15732 1.2859,-2.18602 0.90012,-1.54307 0.38575,-3.08614 -0.51435,-1.54308 -2.05743,-2.18602 -0.25717,-0.38577 -0.90012,-0.38577 -0.51436,0 -1.15731,0 H 793.8551 q -1.80025,0 -2.95756,-1.1573 -1.1573,-1.15732 -1.1573,-2.95756 0,0 0,0 0,0 0,0 v 0 q 0,-1.54308 1.2859,-2.82897 1.28589,-1.2859 2.82896,-1.2859 h 57.60803 q 1.0287,0 2.05742,-0.51435 1.02872,-0.64295 1.67167,-1.54307 3.08614,-4.62921 6.42946,-9.00125 3.34332,-4.37204 6.81524,-8.35832 0.90012,-1.15729 2.44319,-1.41447 1.67166,-0.25718 3.21474,0.64294 l 1.28589,0.77153 q 1.54307,0.90014 1.80025,2.5718 0.38577,1.67166 -0.51436,3.21473 0,0 -0.12859,0.25718 0,0.12859 -0.38576,0.12859 -3.60051,3.85768 -6.94383,7.97253 -3.34333,4.11486 -6.30087,8.35831 -2.95757,4.24345 -5.65794,8.61549 -2.57179,4.37204 -4.88639,8.87266 z m 160.86585,-75.35335 v -0.38576 q 0,-1.54308 -1.1574,-2.57179 -1.0287,-1.1573 -2.5718,-1.1573 h -25.84694 q -1.54307,0 -2.70038,-1.02872 -1.02871,-1.1573 -1.02871,-2.70037 v -9.00125 q 0,-1.54309 -1.15731,-2.57179 -1.02871,-1.1573 -2.57178,-1.1573 v 0 q -1.54307,0 -2.70038,1.1573 -1.02871,1.0287 -1.02871,2.57179 v 9.00125 q 0,1.54307 -1.15731,2.70037 -1.02872,1.02872 -2.57179,1.02872 h -12.34456 q -1.54308,0 -2.5718,-1.02872 -1.02871,-1.1573 -1.02871,-2.70037 v -9.00125 q 0.25717,-1.54309 -0.77153,-2.57179 -1.02872,-1.1573 -2.5718,-1.1573 v 0 q -1.54307,0 -2.70037,1.1573 -1.02872,1.0287 -1.02872,2.57179 v 9.00125 q 0,1.54307 -1.15731,2.70037 -1.0287,1.02872 -2.57178,1.02872 h -23.78903 q -1.54307,0 -2.70036,1.1573 -1.02872,1.02871 -1.02872,2.57179 v 0.38576 q 0,1.54308 1.02872,2.70038 1.15729,1.02871 2.70036,1.02871 h 23.78903 q 1.54308,0 2.57178,1.15731 1.15731,1.02871 1.15731,2.57178 v 9.00126 q 0,1.54307 -1.15731,2.70037 -1.0287,1.02872 -2.57178,1.02872 h -19.67416 q -1.54307,0 -2.70038,1.1573 -1.02871,1.02872 -1.02871,2.57179 v 50.53561 q 0,1.54307 1.02871,2.70037 1.15731,1.02872 2.70038,1.02872 h 81.01145 q 1.5432,0 2.5719,-1.02872 1.1574,-1.1573 1.1574,-2.70037 V 344.0198 q 0,-1.54307 -1.1574,-2.57179 -1.0287,-1.1573 -2.5719,-1.1573 h -19.67434 q -1.54307,0 -2.70038,-1.02872 -1.02871,-1.1573 -1.02871,-2.70037 v -9.00125 q 0,-1.54308 1.02871,-2.57179 1.15731,-1.15731 2.70038,-1.15731 l 25.84694,-0.38577 q 1.5431,0 2.5718,-1.02871 1.1574,-1.1573 1.1574,-2.70038 z m -71.23909,70.33836 h -12.34458 q -1.54307,0 -2.57177,-1.02871 -1.02872,-1.15731 -1.02872,-2.70038 v -10.28714 q 0,-1.54308 1.02872,-2.57178 1.0287,-1.02872 2.57177,-1.02872 h 12.34458 q 1.54308,0 2.57178,1.02872 1.15731,1.0287 1.15731,2.57178 v 10.28714 q 0,1.54307 -1.15731,2.70038 -1.0287,1.02871 -2.57178,1.02871 z m 0,-24.68915 h -12.34458 q -1.54307,0 -2.57177,-1.02871 -1.02872,-1.15729 -1.02872,-2.70038 v -10.28715 q 0,-1.54307 1.02872,-2.57177 1.0287,-1.02872 2.57177,-1.02872 h 12.34458 q 1.54308,0 2.57178,1.02872 1.15731,1.0287 1.15731,2.57177 v 10.28715 q 0,1.54309 -1.15731,2.70038 -1.0287,1.02871 -2.57178,1.02871 z m 26.74658,24.68915 h -12.34456 q -1.54308,0 -2.5718,-1.02871 -1.02871,-1.15731 -1.02871,-2.70038 v -9.77278 q 0,-1.54307 1.02871,-2.57179 1.02872,-1.1573 2.5718,-1.1573 h 12.34456 q 1.54307,0 2.57179,1.1573 1.15731,1.02872 1.15731,2.57179 v 9.77278 q 0,1.54307 -1.15731,2.70038 -1.02872,1.02871 -2.57179,1.02871 z m 0,-24.68915 h -12.34456 q -1.54308,0 -2.5718,-1.02871 -1.02871,-1.15729 -1.02871,-2.70038 v -10.28715 q 0,-1.54307 1.02871,-2.57177 1.02872,-1.02872 2.5718,-1.02872 h 12.34456 q 1.54307,0 2.57179,1.02872 1.15731,1.0287 1.15731,2.57177 v 10.28715 q 0,1.54309 -1.15731,2.70038 -1.02872,1.02871 -2.57179,1.02871 z m 0,-25.46068 h -12.34456 q -1.54308,0 -2.5718,-1.02872 -1.02871,-1.1573 -1.02871,-2.70037 v -9.00126 q 0,-1.54307 1.02871,-2.57178 1.02872,-1.15731 2.5718,-1.15731 h 12.34456 q 1.54307,0 2.57179,1.15731 1.15731,1.02871 1.15731,2.57178 v 9.00126 q 0,1.80024 -1.15731,2.82897 -1.02872,0.90012 -2.57179,0.90012 z m 27.26095,50.14983 H 983.1386 q -1.54307,0 -2.57179,-1.02871 -1.02871,-1.15731 -1.02871,-2.70038 v -9.77278 q 0,-1.54307 1.02871,-2.57179 1.02872,-1.1573 2.57179,-1.1573 h 12.85894 q 1.54307,0 2.57179,1.1573 1.0287,1.02872 1.0287,2.57179 v 10.28715 q 0,1.1573 -1.0287,2.18601 -1.02872,1.02871 -2.57179,1.02871 z m 3.60049,-38.70539 v 10.28715 q 0,1.54309 -1.0287,2.70038 -1.02872,1.02871 -2.57179,1.02871 H 983.1386 q -1.54307,0 -2.57179,-1.02871 -1.02871,-1.15729 -1.02871,-2.70038 v -10.28715 q 0,-1.54307 1.02871,-2.57177 1.02872,-1.02872 2.57179,-1.02872 h 12.85894 q 1.54307,0 2.57179,1.02872 1.0287,1.0287 1.0287,2.57177 z"
       id="path2" /><g
       id="g4"
       transform="matrix(3.5149224,0,0,3.2743125,-151.47407,-34.122064)"
       style="fill:#404040;stroke:#232323;stroke-opacity:1"><path
         style="fill:#404040;fill-opacity:1;fill-rule:nonzero;stroke:#232323;stroke-width:0.269733;stroke-opacity:1"
         d="m 85.867445,79.955637 c -14.438652,-0.177214 -13.383547,0.273552 -13.383547,-5.717744 0,-5.275008 0.07494,-5.405748 3.10084,-5.407791 1.243939,-7.93e-4 7.836675,-0.07925 14.650539,-0.174248 15.980633,-0.222795 14.699563,-0.692394 14.697863,5.38779 -0.002,6.518242 1.15298,6.160149 -19.065695,5.911993 z"
         id="path165-4" /><path
         style="fill:#404040;fill-opacity:1;fill-rule:nonzero;stroke:#232323;stroke-width:0.269733;stroke-opacity:1"
         d="m 71.643903,144.06236 c -0.672956,-1.70284 -0.195299,-31.81949 0.529117,-33.36115 1.656426,-3.52507 3.200215,-4.11319 11.265533,-4.29166 7.711669,-0.17066 8.020499,-0.31334 8.020499,-3.70536 0,-3.980758 -0.205423,-4.074882 -9.256622,-4.241312 C 73.091861,98.295356 71.91411,97.695603 71.697826,93.113541 71.39992,86.802629 72.17435,86.50456 88.59202,86.611096 c 17.48457,0.113461 15.37963,-4.076861 15.37963,30.616444 0,27.40189 0,27.40189 -5.912087,27.47348 -7.47757,0.0905 -6.600511,1.72562 -6.600511,-12.30528 0,-13.52169 -0.07827,-13.82595 -3.55667,-13.82595 -3.666948,0 -3.706902,0.1461 -3.86839,14.14211 -0.1375,11.91753 -0.1375,11.91753 -6.123561,11.98882 -5.986062,0.0713 -5.986062,0.0713 -6.266528,-0.63836 z"
         id="path137-5"
         sodipodi:nodetypes="sssssssscsssss" /><path
         style="fill:#404040;fill-opacity:1;fill-rule:nonzero;stroke:#232323;stroke-width:0.298731;stroke-opacity:1"
         d="m 131.90724,81.284156 c -5.02389,-2.592343 -5.06571,-10.256017 -0.0706,-12.943084 4.95572,-2.665883 10.40185,0.820795 10.36944,6.638613 -0.0304,5.450265 -5.48418,8.788843 -10.29881,6.304471 z"
         id="path159-2"
         sodipodi:nodetypes="sscs" /><path
         style="fill:#404040;fill-opacity:1;fill-rule:nonzero;stroke:#232323;stroke-width:0.262488;stroke-opacity:1"
         d="m 112.08786,101.76872 c -1.31059,-0.43769 -3.13007,-2.153316 -3.61684,-3.410393 -0.75602,-1.952431 -0.48732,-26.567316 0.30369,-27.819872 1.43635,-2.274443 1.79488,-2.421001 5.81305,-2.37614 3.04321,0.03397 3.8332,0.422177 4.84683,2.381758 0.78271,1.513173 0.93,26.73229 0.16441,28.147854 -1.43179,2.647303 -4.73974,4.002353 -7.51114,3.076793 z"
         id="path151-7" /><path
         style="fill:#404040;fill-opacity:1;fill-rule:nonzero;stroke:#232323;stroke-width:0.269733;stroke-opacity:1"
         d="m 129.94165,143.87309 c -0.30106,-0.46864 -0.15532,-26.67038 0.1527,-27.45253 0.7932,-2.01413 2.39221,-2.8225 5.61524,-2.83874 3.59235,-0.0181 4.98936,0.57505 6.12022,2.59855 0.56161,1.00494 0.89712,25.88095 0.36716,27.22198 -0.29684,0.7511 -11.79157,1.1926 -12.25532,0.47074 z"
         id="path133-6"
         sodipodi:nodetypes="ssssss" /><path
         id="path131-1"
         style="fill:#404040;fill-opacity:1;fill-rule:nonzero;stroke:#232323;stroke-width:0.263634;stroke-opacity:1"
         d="M 132.56881 92.946867 C 130.59778 92.88041 127.94491 95.554078 120.24558 102.97088 C 114.7403 108.27418 109.76687 113.17823 109.19364 113.86877 C 108.15138 115.12427 108.15141 115.12435 108.15141 127.98974 C 108.15141 142.21709 108.15433 142.24265 109.95241 143.61208 C 111.26405 144.61102 117.71619 144.37523 118.80229 143.2887 C 119.61477 142.47589 120.03294 142.03085 120.24808 140.52205 A 13.759785 14.770911 0 0 1 116.80428 130.74739 A 13.759785 14.770911 0 0 1 121.38352 119.74487 C 122.48614 117.66363 124.8439 115.65869 129.82762 110.8021 C 140.9449 99.968382 140.91663 100.03438 136.32297 95.593255 C 134.6885 94.013056 133.75143 92.986741 132.56881 92.946867 z " /></g><path
       d="m 604.43544,491.46775 h 55.87169 l 5.37712,-5.29311 7.14149,7.05748 h -58.89632 q -1.76436,0 -3.44472,0.16804 -1.68035,0.25205 -3.3607,0.75615 z m 37.89192,-53.77125 -3.19266,2.26848 q 1.84838,4.70498 3.69677,8.73783 1.9324,4.03284 3.78079,7.47756 1.84839,3.3607 3.78079,6.04926 2.01642,2.8566 3.94883,5.04106 3.86481,4.20088 8.40176,7.14149 4.53694,2.94062 9.74603,4.36892 v 1.09223 q -3.52873,0.25205 -5.54516,1.09222 -1.9324,0.84018 -2.43651,2.52053 -4.87301,-2.94061 -8.82184,-6.88944 -3.86481,-4.03284 -6.72141,-8.90586 -1.34428,-2.60455 -2.77258,-5.20909 -1.4283,-2.8566 -2.77258,-5.79721 -1.26026,-3.02464 -2.43651,-6.38534 -1.34428,-3.19267 -2.52052,-6.72141 -0.67214,3.94883 -1.4283,7.47757 -0.84018,3.44472 -1.76437,6.38533 -0.84018,2.8566 -1.68035,5.29311 -1.09223,2.35249 -2.18446,4.20088 -2.18446,3.69677 -4.95704,6.72141 -2.68856,3.02463 -5.79721,5.46114 -3.27668,2.26847 -7.05748,4.36891 -3.78079,2.01642 -8.23372,3.78079 l -0.58812,-1.09223 q 3.69677,-1.84838 7.14149,-4.20087 3.52874,-2.43651 6.72141,-5.54516 3.27668,-3.19267 5.88123,-7.30953 2.68856,-4.20088 4.70498,-9.49399 0.9242,-2.52053 1.76437,-5.54516 0.84018,-2.94061 1.4283,-6.2173 0.58812,-3.27669 0.92419,-6.80542 0.50411,-3.69678 0.67215,-7.56159 z m 107.20643,37.21979 q 0.25205,6.38533 0.92419,8.31774 0.67214,1.9324 1.93241,2.68856 0.25205,0.16804 0.33607,0.33607 0.084,0.16804 0.084,0.42009 0,0.16803 -0.084,0.33607 0,0.084 0,0.33607 -1.93241,3.52874 -3.86481,4.45293 -1.84839,1.00821 -8.73783,1.4283 -2.18446,0.084 -6.2173,0.084 -4.03284,0.084 -8.56979,0.084 -4.53695,0 -8.98988,-0.084 -4.45293,0 -7.72962,-0.084 -7.6456,-0.33607 -10.41818,-1.4283 -2.68856,-1.09223 -2.68856,-5.79721 v -46.12565 q 0,-1.68035 -0.084,-4.53695 0,-2.8566 -0.084,-4.62097 l 5.46115,4.20088 h 35.28738 l 2.43651,-3.19266 5.20909,3.52873 q 0.33607,0.25206 0.5041,0.42009 0.16804,0.16804 0.16804,0.33607 0,0.084 -0.16804,0.25205 -0.084,0.084 -0.42009,0.25206 l -2.52052,1.68035 v 13.69486 q 0,1.00821 0.16803,4.20088 0.25205,3.19267 0.25205,3.52874 0,0.67214 -0.42008,1.09223 -0.42009,0.33607 -1.68035,0.75616 -0.58813,0.25205 -1.00822,0.42008 -0.33607,0.084 -0.58812,0.084 -0.42009,0 -0.5041,-0.25205 -0.084,-0.25205 -0.084,-0.84018 v -3.78079 h -38.31202 v 28.39794 q 0,2.52053 1.76437,3.36071 1.84839,0.75615 7.72962,1.00821 2.52053,0.084 5.88123,0.16803 3.3607,0.084 6.97346,0.084 5.37712,0 10.83827,-0.084 5.46114,-0.16803 9.66202,-0.5041 3.69677,-0.33607 4.95703,-2.68857 1.26027,-2.43651 1.26027,-11.93049 h 1.34428 z m -12.09853,-19.5761 v -18.81993 h -38.31202 v 18.81993 z m 52.84706,-18.90395 h -15.12316 q -1.09223,0 -2.8566,0.16803 -1.76437,0.16804 -2.68856,0.58813 l -2.26848,-2.68856 q 1.4283,0.084 3.19267,0.16803 1.84839,0.084 3.19267,0.084 h 51.67081 l 3.27668,-4.45293 4.95704,4.87302 q 0.16804,0.25205 0.25205,0.5041 0.16804,0.16804 0.16804,0.25205 0,0.33607 -0.25205,0.42009 -0.16804,0.084 -0.58813,0.084 h -38.98415 l -7.22551,22.43269 h 32.17873 l 2.77258,-3.52874 5.29311,4.62097 q 0.25205,0.33607 0.42008,0.58812 0.16804,0.16804 0.16804,0.33607 0,0.16804 -0.16804,0.42009 -0.16803,0.16804 -0.5041,0.16804 l -3.3607,1.26026 q -1.17625,7.30953 -2.3525,12.77067 -1.09223,5.37713 -2.35249,9.24193 -1.59633,4.87302 -5.12507,7.72962 -3.52874,2.94062 -10.25015,4.11686 -0.16803,0 -0.33607,0 -0.16803,0 -0.25205,0 -0.58812,0 -0.92419,-0.33607 -0.33607,-0.25205 -0.50411,-0.84017 -0.16803,-1.68035 -2.18445,-3.02464 -1.93241,-1.34428 -10.41818,-4.11686 l 0.33607,-1.17624 q 5.54516,1.9324 9.578,2.85659 4.03284,0.84018 6.88944,0.84018 4.53695,0 6.63739,-2.10044 2.10044,-2.18446 3.27669,-6.04926 0.58812,-1.59634 1.17624,-4.20088 0.50411,-2.43651 1.00821,-5.37713 0.58813,-3.02463 1.26027,-6.13328 0.5041,-3.27669 0.84017,-6.30132 H 787.7618 l -2.01643,2.68856 q -0.084,0.16804 -0.33607,0.25206 -0.16803,0.084 -0.42008,0.084 -0.084,0 -0.25206,0 -0.16803,-0.084 -0.5041,-0.25205 l -4.789,-3.61275 4.45293,-2.43651 6.38533,-20.92038 z m 114.59996,60.32462 q -1.26027,0 -2.01642,-1.59634 -0.75616,-1.59633 -1.51232,-6.7214 l -28.06187,3.10865 q -6.88944,0.67214 -10.75425,1.9324 -3.78079,1.34428 -5.62918,2.52053 -0.42009,0.42009 -0.84017,0.16804 -0.33607,-0.25206 -0.50411,-0.84018 l -3.3607,-7.47756 q 2.01642,-0.25206 3.27668,-0.9242 1.34429,-0.75616 2.60455,-3.19267 4.87302,-9.15791 8.56979,-16.63548 3.61276,-7.30952 6.38534,-13.52683 2.85659,-6.30131 4.95703,-11.84647 2.18446,-5.7132 4.11687,-11.42639 l 6.7214,5.46114 q 0.67214,0.58812 0.58812,1.00821 0,0.33607 -1.00821,0.58812 -2.18445,0.50411 -3.02463,1.09223 -0.84018,0.50411 -1.4283,1.68035 -2.68856,5.29311 -5.12507,10.16613 -2.43651,4.87302 -5.37712,10.41818 -2.94062,5.54516 -6.72141,12.26656 -3.61276,6.72141 -8.65381,15.62727 l 42.84896,-2.43651 q -0.92419,-3.44472 -3.44472,-8.06568 -2.52053,-4.62097 -7.6456,-12.35059 l 0.75616,-1.09223 q 8.98988,7.81364 12.77067,13.3588 3.86481,5.46114 4.789,10.08211 0.50411,3.02463 -0.67214,5.79721 -1.09223,2.8566 -2.60454,2.8566 z"
       id="text1"
       style="font-size:86.034px;font-family:bstnchinglish;-inkscape-font-specification:bstnchinglish;text-align:center;text-anchor:middle;stroke:#232323;stroke-width:1.4339"
       aria-label="agsl" /><g
       id="g3"
       transform="translate(-3.7041668)"><circle
         style="fill:#ffffff;fill-opacity:1;stroke:none;stroke-width:3.67327"
         id="path3"
         cx="307.44867"
         cy="393.98596"
         r="48.364578" /><g
         style="fill:currentColor"
         id="g1"
         transform="matrix(4.2117405,0,0,4.1728254,273.75475,360.60336)"><path
           d="M 10.943,6 H 5.057 L 5,8 H 5.5 C 5.68,6.904 5.856,6.808 7.194,6.765 l 0.293,-0.01 v 5.09 c 0,0.47 -0.1,0.582 -0.898,0.655 V 13 H 9.41 V 12.5 C 8.607,12.427 8.507,12.316 8.507,11.846 V 6.755 l 0.298,0.01 c 1.338,0.043 1.514,0.14 1.694,1.235 h 0.5 L 10.942,6 Z"
           id="path1-0" /><path
           d="M 14,4.5 V 14 a 2,2 0 0 1 -2,2 H 4 A 2,2 0 0 1 2,14 V 2 A 2,2 0 0 1 4,0 h 5.5 z m -3,0 A 1.5,1.5 0 0 1 9.5,3 V 1 H 4 A 1,1 0 0 0 3,2 v 12 a 1,1 0 0 0 1,1 h 8 a 1,1 0 0 0 1,-1 V 4.5 Z"
           id="path2-9" /></g></g></g></svg>
