<?xml version="1.0" encoding="UTF-8" standalone="no"?>
<!-- Created with Inkscape (http://www.inkscape.org/) -->

<svg
   width="180"
   height="180"
   viewBox="0 0 180 180"
   version="1.1"
   id="svg1"
   sodipodi:docname="ch.svg"
   inkscape:version="1.4.2 (f4327f4, 2025-05-13)"
   xmlns:inkscape="http://www.inkscape.org/namespaces/inkscape"
   xmlns:sodipodi="http://sodipodi.sourceforge.net/DTD/sodipodi-0.dtd"
   xmlns="http://www.w3.org/2000/svg"
   xmlns:svg="http://www.w3.org/2000/svg">
  <sodipodi:namedview
     id="namedview1"
     pagecolor="#ffffff"
     bordercolor="#000000"
     borderopacity="0.25"
     inkscape:showpageshadow="2"
     inkscape:pageopacity="0.0"
     inkscape:pagecheckerboard="0"
     inkscape:deskcolor="#d1d1d1"
     inkscape:zoom="7.0666667"
     inkscape:cx="89.929245"
     inkscape:cy="56.037736"
     inkscape:window-width="2560"
     inkscape:window-height="1566"
     inkscape:window-x="-11"
     inkscape:window-y="-11"
     inkscape:window-maximized="1"
     inkscape:current-layer="svg1" />
  <defs
     id="defs1" />
  <path
     id="text3"
     style="font-size:64px;font-family:'Microsoft YaHei';-inkscape-font-specification:'Microsoft YaHei';display:none;stroke-width:2.84296"
     d="m 8.6757812,21.591797 c 15.0156248,0 30.0312498,0 45.0468748,0 0,11.046224 0,22.092448 0,33.138672 -13.492187,0 -26.984375,0 -40.476562,0 -1.63737,16.42513 -3.2747398,32.85026 -4.9121096,49.275391 14.4303386,0 28.8606766,0 43.2910156,0 -0.634592,13.16184 -1.310443,26.34793 -3.140974,39.40715 -0.460842,4.00693 -2.035569,8.12511 -5.329187,10.64162 -3.338054,2.63798 -7.765066,3.23155 -11.896575,3.07492 -6.914055,-0.0935 -13.815869,-0.58637 -20.70553,-1.14322 0.826672,3.47264 1.573179,6.96526 2.208985,10.47851 7.937461,0.21858 15.877232,0.49804 23.818359,0.44727 5.251982,-0.16168 10.75076,-1.50133 14.726247,-5.11952 4.083334,-3.67268 6.030404,-9.1042 6.853008,-14.40901 0.572511,-4.06697 0.709124,-8.18001 1.071638,-12.26862 0.936223,-12.93755 1.787141,-25.87376 2.626451,-38.83371 -14.36849,0 -28.736979,0 -43.105469,0 1.110496,-11.275803 2.214862,-22.55221 3.324219,-33.828125 10.548828,0 21.097656,0 31.646484,0 0,1.781901 0,3.563802 0,5.345703 3.183594,0 6.367188,0 9.550782,0 0,-17.977213 -10e-7,-35.954427 0,-53.93164 -18.199219,-1e-6 -36.398438,0 -54.5976568,0 1e-7,2.574869 0,5.149739 0,7.724609 z" />
  <path
     id="text4"
     style="font-size:64px;font-family:'Microsoft YaHei';-inkscape-font-specification:'Microsoft YaHei';display:none;stroke-width:1.9079"
     d="m 72.539062,41.898438 c 3.102214,-10e-7 6.204428,0 9.306641,0 0,-6.601563 0,-13.203126 0,-19.804688 27.373697,0 54.747397,0 82.121097,0 0,6.601563 0,13.203125 0,19.804688 3.10156,0 6.20312,-10e-7 9.30468,0 0,-9.697917 0,-19.395834 0,-29.09375 -33.57747,-1e-6 -67.15494,0 -100.732418,0 0,9.697916 10e-7,19.395833 0,29.09375 z" />
  <path
     id="text5"
     style="font-size:64px;font-family:'Microsoft YaHei';-inkscape-font-specification:'Microsoft YaHei';display:none;stroke-width:1.94576"
     d="m 70.886719,167.40234 c 3.481771,0 6.963541,0 10.445312,0 0,-2.95703 0,-5.91406 0,-8.87109 27.369139,0 54.738279,0 82.107419,0 0,2.95703 0,5.91406 0,8.87109 3.48177,0 6.96354,0 10.44532,0 0,-37.41145 0,-74.822913 0,-112.234371 -34.33269,0 -68.66537,0 -102.998051,0 0,37.411458 0,74.822921 0,112.234371 z M 83.332031,64.53125 c 26.702479,0 53.404949,0 80.107419,0 0,28.21224 0,56.42448 0,84.63672 -27.36914,0 -54.73828,0 -82.107419,0 0,-28.21224 0,-56.42448 0,-84.63672 0.666667,0 1.333334,0 2,0 z" />
  <path
     id="text6"
     style="font-size:64px;font-family:'Microsoft YaHei';-inkscape-font-specification:'Microsoft YaHei';display:none;stroke-width:1.07973"
     d="M 118.87109,70.869141 A 1.8894275,1.8894275 0 0 0 116.98242,72.75 c -0.0117,2.732445 -0.0234,5.464913 -0.0352,8.197266 -0.0219,2.842172 -0.0651,5.687599 -0.10743,8.535156 H 90.164062 a 1.8894275,1.8894275 0 0 0 -1.888671,1.888672 v 4.904297 a 1.8894275,1.8894275 0 0 0 1.888671,1.888671 h 26.197268 c -0.43232,3.002898 -0.98682,5.948328 -2.00586,8.687498 a 1.8894275,1.8894275 0 0 0 -0.0117,0.0332 c -2.23437,6.38279 -6.31958,12.08688 -11.46094,16.54687 a 1.8894275,1.8894275 0 0 0 -0.008,0.008 c -4.316178,3.78675 -9.320294,6.80538 -14.59375,9.27149 a 1.8894275,1.8894275 0 0 0 -0.675781,2.89062 c 1.287282,1.61147 2.558253,3.21566 3.771484,4.84375 a 1.8894275,1.8894275 0 0 0 2.410156,0.53516 c 8.610581,-4.63 16.773901,-10.73384 22.511721,-19.00977 l 0.002,-0.004 c 2.32671,-3.28609 4.04567,-6.89191 5.46485,-10.57227 1.16961,2.92261 2.42446,5.85831 4.17578,8.66016 4.18337,6.99296 10.22167,12.80814 17.32421,16.77539 0.71086,0.4046 1.6638,0.91882 2.50782,1.33789 h -0.004 c 1.07539,0.53665 2.17394,1.05414 3.30078,1.5332 a 1.8894275,1.8894275 0 0 0 2.21289,-0.55664 c 1.39329,-1.73989 2.95342,-3.39016 4.57422,-5.0293 a 1.8894275,1.8894275 0 0 0 -0.74414,-3.11914 c -8.27766,-2.77216 -15.97445,-7.63749 -21.1582,-14.56054 a 1.8894275,1.8894275 0 0 0 -0.01,-0.0137 c -4.03128,-5.27795 -6.51508,-11.65892 -7.9082,-18.257818 h 27.24609 a 1.8894275,1.8894275 0 0 0 1.88867,-1.888671 v -4.904297 a 1.8894275,1.8894275 0 0 0 -1.88867,-1.888672 h -27.5 c 0.0827,-5.572415 0.14505,-11.146253 0.14844,-16.722656 a 1.8894275,1.8894275 0 0 0 -1.88867,-1.890625 z" />
  <path
     id="text9"
     style="font-size:64px;font-family:'Microsoft YaHei';-inkscape-font-specification:'Microsoft YaHei';stroke-width:2.64129"
     d="M 51.001953,11.090821 C 40.514935,27.70329 26.955255,42.236691 11.550781,54.258407 13.188229,57.209623 16.773143,62.191243 18.263672,65.22141 35.151331,51.210033 50.201048,34.87293 62.457031,16.559733 L 52.029297,9.4473401 Z M 53.259766,48.49877 C 42.53892,67.327964 29.784461,85.198238 13.837464,99.85991 c -1.705276,1.56238 -3.442365,3.08998 -5.22223,4.56469 1.466476,3.07286 4.838474,8.19222 6.111328,11.35261 7.094142,-6.36371 13.717984,-13.24417 20.044718,-20.384563 L 34.628906,93.3341 v 73.34949 H 46.380859 V 80.939759 C 52.616811,72.592809 58.398541,63.899294 63.697266,54.91303 l -10.13086,-6.960109 z"
     sodipodi:nodetypes="cccccccccccccccccc" />
</svg>
