<?xml version="1.0" encoding="UTF-8" standalone="no"?>
<!-- Created with Inkscape (http://www.inkscape.org/) -->

<svg
   width="180"
   height="180"
   viewBox="0 0 180 180"
   version="1.1"
   id="svg1"
   sodipodi:docname="f.svg"
   inkscape:version="1.4.2 (f4327f4, 2025-05-13)"
   xmlns:inkscape="http://www.inkscape.org/namespaces/inkscape"
   xmlns:sodipodi="http://sodipodi.sourceforge.net/DTD/sodipodi-0.dtd"
   xmlns="http://www.w3.org/2000/svg"
   xmlns:svg="http://www.w3.org/2000/svg">
  <sodipodi:namedview
     id="namedview1"
     pagecolor="#ffffff"
     bordercolor="#000000"
     borderopacity="0.25"
     inkscape:showpageshadow="2"
     inkscape:pageopacity="0.0"
     inkscape:pagecheckerboard="0"
     inkscape:deskcolor="#d1d1d1"
     inkscape:zoom="14.133334"
     inkscape:cx="20.235849"
     inkscape:cy="83.702829"
     inkscape:window-width="2560"
     inkscape:window-height="1566"
     inkscape:window-x="-11"
     inkscape:window-y="-11"
     inkscape:window-maximized="1"
     inkscape:current-layer="svg1" />
  <defs
     id="defs1" />
  <path
     id="text15"
     style="font-size:64px;font-family:'Microsoft YaHei';-inkscape-font-specification:'Microsoft YaHei';display:inline;stroke-width:2.46426"
     d="m 11.154297,14.412109 v 12.842936 h 17.589844 c 0.304156,7.8e-5 0.550703,0.246626 0.550781,0.550782 V 81.40625 c -7.8e-5,0.304156 -0.246625,0.550703 -0.550781,0.550781 H 4.0957031 V 94.798014 H 28.744141 c 0.304156,7.8e-5 0.550703,0.246625 0.550781,0.550781 V 163.20898 H 43.439453 V 95.348795 c 7.8e-5,-0.304156 0.246625,-0.550703 0.550781,-0.550781 h 26.41211 V 81.957031 h -26.41211 c -0.304156,-7.8e-5 -0.550703,-0.246625 -0.550781,-0.550781 V 27.805827 c 7.8e-5,-0.304156 0.246625,-0.550704 0.550781,-0.550782 h 20.13086 V 14.412109 Z"
     transform="matrix(1,0,0,1.0092813,0,-0.12605841)"
     sodipodi:nodetypes="ccccccccccccccccccccccc" />
</svg>
