<?xml version="1.0" encoding="UTF-8" standalone="no"?>
<!-- Created with Inkscape (http://www.inkscape.org/) -->

<svg
   width="180"
   height="180"
   viewBox="0 0 180 180"
   version="1.1"
   id="svg1"
   sodipodi:docname="g.svg"
   inkscape:version="1.4.2 (f4327f4, 2025-05-13)"
   xmlns:inkscape="http://www.inkscape.org/namespaces/inkscape"
   xmlns:sodipodi="http://sodipodi.sourceforge.net/DTD/sodipodi-0.dtd"
   xmlns="http://www.w3.org/2000/svg"
   xmlns:svg="http://www.w3.org/2000/svg">
  <sodipodi:namedview
     id="namedview1"
     pagecolor="#ffffff"
     bordercolor="#000000"
     borderopacity="0.25"
     inkscape:showpageshadow="2"
     inkscape:pageopacity="0.0"
     inkscape:pagecheckerboard="0"
     inkscape:deskcolor="#d1d1d1"
     inkscape:zoom="4"
     inkscape:cx="76.25"
     inkscape:cy="99.75"
     inkscape:window-width="2560"
     inkscape:window-height="1566"
     inkscape:window-x="-11"
     inkscape:window-y="-11"
     inkscape:window-maximized="1"
     inkscape:current-layer="svg1" />
  <defs
     id="defs1" />
  <path
     d="m 76.433937,14.245388 -5.314831,6.18987 C 65.174371,14.034846 60.25323,9.2134839 56.355689,5.9711696 l 4.8424,-5.87406197 C 66.670395,4.5184445 71.749011,9.2345366 76.433937,14.245388 Z m -8.326568,9.158481 -5.551045,6.189872 C 55.233668,21.761658 50.351898,16.687647 47.911013,14.37171 l 4.606186,-5.6845764 c 4.527447,3.5370704 9.724172,8.4426494 15.59017,14.7167354 z"
     id="text17"
     style="font-size:64px;font-family:'Microsoft YaHei';-inkscape-font-specification:'Microsoft YaHei';display:inline;stroke-width:1.95436"
     aria-label="ãŽ" />
  <path
     id="text22"
     style="font-size:64px;font-family:'Microsoft YaHei';-inkscape-font-specification:'Microsoft YaHei';stroke-width:2.4729"
     d="m 44.25,12.634766 c -1.771287,0.05522 -3.161327,1.794514 -2.951172,3.530859 0,25.082161 0,50.164323 0,75.246484 -10.56336,9.015651 -21.393125,17.832021 -32.4414061,26.304691 -1.3977677,1.08201 -1.5180713,3.30177 -0.3244862,4.5841 1.8542163,2.52479 3.6284383,5.11412 5.5315173,7.59949 1.204498,1.31258 3.450469,1.22314 4.629927,-0.0848 7.559825,-6.56029 15.084144,-13.16126 22.604448,-19.76678 0.0065,19.11573 -0.01303,38.23271 0.0098,57.34765 0.06024,1.76892 1.809236,3.14836 3.542578,2.9375 3.410815,-0.0292 6.827427,0.0582 10.23466,-0.0431 1.629898,-0.24179 2.806078,-1.87683 2.619246,-3.49747 -0.0065,-50.41013 0.01302,-100.82151 -0.0098,-151.23086 -0.06024,-1.768915 -1.809236,-3.148357 -3.542578,-2.9375 -3.300739,0.0066 -6.602782,-0.01314 -9.902734,0.0098 z M 20.867188,38.132812 c -1.490201,0.0455 -2.67794,1.099308 -4.017887,1.62577 -1.525422,0.802988 -3.152872,1.438116 -4.610008,2.354463 -1.261854,0.982819 -1.483197,2.877702 -0.649521,4.207503 5.018843,10.690697 9.184111,21.7568 13.093822,32.892343 0.671242,1.735088 2.970157,2.439916 4.536017,1.467701 2.691223,-1.329634 5.444729,-2.544207 8.096795,-3.946217 1.29747,-0.925931 1.601264,-2.768992 0.884195,-4.150302 C 34.135339,61.254068 29.347435,50.166 23.705078,39.535156 23.03771,38.656346 21.975464,38.110034 20.867188,38.132812 Z" />
</svg>
