<?xml version="1.0" encoding="UTF-8" standalone="no"?>
<!-- Created with Inkscape (http://www.inkscape.org/) -->

<svg
   width="180"
   height="180"
   viewBox="0 0 180 180"
   version="1.1"
   id="svg1"
   sodipodi:docname="j.svg"
   inkscape:version="1.4.2 (f4327f4, 2025-05-13)"
   xmlns:inkscape="http://www.inkscape.org/namespaces/inkscape"
   xmlns:sodipodi="http://sodipodi.sourceforge.net/DTD/sodipodi-0.dtd"
   xmlns="http://www.w3.org/2000/svg"
   xmlns:svg="http://www.w3.org/2000/svg">
  <sodipodi:namedview
     id="namedview1"
     pagecolor="#ffffff"
     bordercolor="#000000"
     borderopacity="0.25"
     inkscape:showpageshadow="2"
     inkscape:pageopacity="0.0"
     inkscape:pagecheckerboard="0"
     inkscape:deskcolor="#d1d1d1"
     inkscape:zoom="2.4984439"
     inkscape:cx="-74.046088"
     inkscape:cy="108.06726"
     inkscape:window-width="2560"
     inkscape:window-height="1566"
     inkscape:window-x="-11"
     inkscape:window-y="-11"
     inkscape:window-maximized="1"
     inkscape:current-layer="svg1" />
  <defs
     id="defs1" />
  <path
     d="m 78.348481,20.508952 -6.609522,7.516867 C 64.346085,20.253275 58.226156,14.398305 53.379171,10.460898 l 6.022011,-7.1333525 c 6.80536,5.3691898 13.121127,11.0963255 18.947299,17.1814065 z m -10.354919,11.121894 -6.90328,7.516865 C 51.983828,29.636575 45.912859,23.47479 42.877374,20.662357 l 5.728253,-6.903241 c 5.630334,4.295351 12.092978,10.252593 19.387935,17.87173 z"
     id="text17"
     style="font-size:64px;font-family:'Microsoft YaHei';-inkscape-font-specification:'Microsoft YaHei';display:inline;stroke-width:2.4017"
     aria-label="ぎ" />
  <path
     d="m 66.909861,90.640874 h -24.78392 c 0.04768,18.915826 -1.430384,32.426796 -4.434187,44.532926 -2.979964,12.10612 -10.093583,22.69898 -17.340857,31.77858 l -7.826274,-11.4368 c 6.460562,-7.97374 11.049708,-16.76233 13.767435,-26.36574 2.717727,-9.66162 4.112351,-21.16461 4.18387,-38.508966 H 5.8325112 V 76.985815 H 30.404409 V 40.492842 C 21.08308,42.995549 16.610598,44.363309 12.986962,44.596119 L 10.805628,32.504539 C 29.519804,30.700261 46.06203,26.160465 56.432306,18.885149 l 3.540197,11.655061 -17.703524,7.682734 v 38.762871 h 24.640882 z"
     id="text22"
     style="font-size:115.465px;font-family:'Microsoft YaHei';-inkscape-font-specification:'Microsoft YaHei';stroke-width:1.78797"
     aria-label="チ"
     sodipodi:nodetypes="ccccccccccccccccccc" />
</svg>
