<?xml version="1.0" encoding="UTF-8" standalone="no"?>
<!-- Created with Inkscape (http://www.inkscape.org/) -->

<svg
   width="180"
   height="180"
   viewBox="0 0 180 180"
   version="1.1"
   id="svg1"
   sodipodi:docname="l.svg"
   inkscape:version="1.4.2 (f4327f4, 2025-05-13)"
   xmlns:inkscape="http://www.inkscape.org/namespaces/inkscape"
   xmlns:sodipodi="http://sodipodi.sourceforge.net/DTD/sodipodi-0.dtd"
   xmlns="http://www.w3.org/2000/svg"
   xmlns:svg="http://www.w3.org/2000/svg">
  <sodipodi:namedview
     id="namedview1"
     pagecolor="#ffffff"
     bordercolor="#000000"
     borderopacity="0.25"
     inkscape:showpageshadow="2"
     inkscape:pageopacity="0.0"
     inkscape:pagecheckerboard="0"
     inkscape:deskcolor="#d1d1d1"
     inkscape:zoom="7.0666667"
     inkscape:cx="31.839623"
     inkscape:cy="89.009434"
     inkscape:window-width="2560"
     inkscape:window-height="1566"
     inkscape:window-x="-11"
     inkscape:window-y="-11"
     inkscape:window-maximized="1"
     inkscape:current-layer="svg1" />
  <defs
     id="defs1" />
  <path
     d="M 8.090426,49.403154 H 26.523419 C 26.661895,37.769598 26.754211,23.924521 26.80037,11.867925 H 38.824044 C 38.731724,23.078444 38.61633,36.92352 38.477855,49.403154 h 29.780073 c -0.553901,41.352011 -1.08472,68.594526 -1.592462,85.727586 -0.600061,18.19066 -4.846638,27.39175 -12.739728,27.60326 -3.78499,0 -8.354673,-0.21153 -13.70905,-0.63455 -0.184634,-4.12463 -0.199169,-5.45504 -0.706912,-11.37757 4.575105,1.10737 5.238463,0.31155 9.862062,0.0519 4.477367,-0.21152 4.946842,-7.86966 5.408426,-18.97442 0.553901,-18.93097 0.969327,-38.726865 1.246278,-67.387723 H 38.33938 c -0.415426,27.550318 -2.331,44.279193 -5.746723,58.186583 -3.646515,15.4409 -11.173842,29.18298 -21.744121,43.46054 C 9.5561002,162.25142 2.5902771,161.34969 1.1132075,157.1193 11.129585,144.21663 17.70716,131.2082 20.845933,118.09402 24.100102,106.19606 25.923359,89.635255 26.315706,64.411586 H 8.090426 Z"
     id="text20-5"
     style="font-size:107.319px;font-family:'Microsoft YaHei';-inkscape-font-specification:'Microsoft YaHei';stroke-width:1.67685"
     aria-label="力"
     sodipodi:nodetypes="ccccccccccccccccccccc" />
</svg>
