<?xml version="1.0" encoding="UTF-8" standalone="no"?>
<!-- Created with Inkscape (http://www.inkscape.org/) -->

<svg
   width="180"
   height="180"
   viewBox="0 0 180 180"
   version="1.1"
   id="svg1"
   sodipodi:docname="n.svg"
   inkscape:version="1.4.2 (f4327f4, 2025-05-13)"
   xmlns:inkscape="http://www.inkscape.org/namespaces/inkscape"
   xmlns:sodipodi="http://sodipodi.sourceforge.net/DTD/sodipodi-0.dtd"
   xmlns="http://www.w3.org/2000/svg"
   xmlns:svg="http://www.w3.org/2000/svg">
  <sodipodi:namedview
     id="namedview1"
     pagecolor="#ffffff"
     bordercolor="#000000"
     borderopacity="0.25"
     inkscape:showpageshadow="2"
     inkscape:pageopacity="0.0"
     inkscape:pagecheckerboard="0"
     inkscape:deskcolor="#d1d1d1"
     inkscape:zoom="4.9968879"
     inkscape:cx="7.2044842"
     inkscape:cy="99.261783"
     inkscape:window-width="2560"
     inkscape:window-height="1566"
     inkscape:window-x="-11"
     inkscape:window-y="-11"
     inkscape:window-maximized="1"
     inkscape:current-layer="svg1" />
  <defs
     id="defs1" />
  <path
     d="m 72.364734,35.847055 -5.571982,6.485187 C 60.560388,35.62647 55.401146,30.575084 51.315026,27.17808 l 5.076694,-6.15431 c 5.737077,4.632277 11.061415,9.573371 15.973014,14.823285 z m -8.729438,9.59543 -5.819626,6.485187 C 50.138718,43.721925 45.020751,38.405835 42.461766,35.979406 l 4.829051,-5.955784 c 4.746502,3.70582 10.194662,8.845441 16.344479,15.418863 z"
     id="text17"
     style="font-size:64px;font-family:'Microsoft YaHei';-inkscape-font-specification:'Microsoft YaHei';display:inline;stroke-width:2.04825"
     aria-label="ぎ" />
  <path
     d="M 7.7808028,50.568954 H 26.213795 C 26.352271,38.935398 26.444587,25.090321 26.490746,13.033725 H 38.51442 C 38.4221,24.244244 38.306706,38.08932 38.168231,50.568954 h 29.780073 c -0.553901,41.352009 -1.08472,68.594536 -1.592462,85.727596 -0.600061,18.19066 -4.846638,27.39175 -12.739728,27.60326 -3.78499,0 -8.354673,-0.21153 -13.70905,-0.63455 -0.184634,-4.12463 -0.199169,-5.45504 -0.706912,-11.37758 4.575105,1.10737 5.238463,0.31155 9.862062,0.0519 4.477367,-0.21152 4.946842,-7.86966 5.408426,-18.97442 0.553901,-18.93097 0.969327,-38.726879 1.246278,-67.387733 H 38.029756 c -0.415426,27.550318 -2.331,44.279203 -5.746723,58.186593 -3.646515,15.4409 -11.173842,29.18298 -21.74412,43.46054 C 9.246477,163.41723 2.2806539,162.5155 0.8035843,158.28511 10.819962,145.38244 17.397536,132.37401 20.536309,119.25982 23.790478,107.36187 25.613735,90.801054 26.006082,65.577386 H 7.7808028 Z"
     id="text20"
     style="font-size:107.319px;font-family:'Microsoft YaHei';-inkscape-font-specification:'Microsoft YaHei';stroke-width:1.67685"
     aria-label="力"
     sodipodi:nodetypes="ccccccccccccccccccccc" />
</svg>
