<?xml version="1.0" encoding="UTF-8" standalone="no"?>
<!-- Created with Inkscape (http://www.inkscape.org/) -->

<svg
   width="180"
   height="180"
   viewBox="0 0 180 180"
   version="1.1"
   id="svg1"
   sodipodi:docname="p.svg"
   inkscape:version="1.4.2 (f4327f4, 2025-05-13)"
   xmlns:inkscape="http://www.inkscape.org/namespaces/inkscape"
   xmlns:sodipodi="http://sodipodi.sourceforge.net/DTD/sodipodi-0.dtd"
   xmlns="http://www.w3.org/2000/svg"
   xmlns:svg="http://www.w3.org/2000/svg">
  <sodipodi:namedview
     id="namedview1"
     pagecolor="#ffffff"
     bordercolor="#000000"
     borderopacity="0.25"
     inkscape:showpageshadow="2"
     inkscape:pageopacity="0.0"
     inkscape:pagecheckerboard="0"
     inkscape:deskcolor="#d1d1d1"
     inkscape:zoom="7.0666667"
     inkscape:cx="125.58962"
     inkscape:cy="62.264151"
     inkscape:window-width="2560"
     inkscape:window-height="1566"
     inkscape:window-x="-11"
     inkscape:window-y="-11"
     inkscape:window-maximized="1"
     inkscape:current-layer="svg1" />
  <defs
     id="defs1" />
  <path
     id="text18"
     style="font-size:64px;font-family:'Microsoft YaHei';-inkscape-font-specification:'Microsoft YaHei';display:inline;stroke-width:1.43683"
     sodipodi:type="inkscape:offset"
     inkscape:radius="1.4118237"
     inkscape:original="M 66.025391 2.75 C 63.312408 2.75 61.050843 3.7314403 59.242188 5.6972656 C 57.433532 7.6323753 56.529297 9.9674447 56.529297 12.701172 C 56.529297 15.342751 57.433532 17.661661 59.242188 19.658203 C 61.080014 21.654746 63.225345 22.652344 65.675781 22.652344 C 68.65131 22.652344 71.01336 21.654746 72.763672 19.658203 C 74.543154 17.661661 75.433594 15.358909 75.433594 12.748047 C 75.433594 9.9528886 74.529358 7.5874534 72.720703 5.6523438 C 70.912047 3.7172341 68.680029 2.75 66.025391 2.75 z M 66.419922 6.8964844 C 67.791 6.8964844 68.971049 7.4792749 69.962891 8.6464844 C 70.983907 9.8136939 71.494141 11.149212 71.494141 12.654297 C 71.494141 14.25153 70.970108 15.633571 69.919922 16.800781 C 68.869735 17.937273 67.482859 18.505859 65.761719 18.505859 C 64.478157 18.505859 63.282359 17.969592 62.173828 16.894531 C 61.094469 15.819469 60.554688 14.451635 60.554688 12.792969 C 60.554687 11.103588 61.094469 9.7053864 62.173828 8.5996094 C 63.253186 7.4631169 64.66961 6.8964844 66.419922 6.8964844 z "
     d="m 66.025391,1.3378906 c -3.051961,0 -5.771532,1.1794122 -7.81836,3.4023438 -2.031242,2.1764945 -3.089844,4.9189414 -3.089844,7.9609376 0,2.963765 1.061478,5.678157 3.078125,7.904297 a 1.4119649,1.4119649 0 0 0 0.0078,0.0098 c 2.049896,2.226928 4.639041,3.449219 7.472656,3.449219 3.287042,0 6.131309,-1.177661 8.142578,-3.466797 l 0.002,-0.002 c 1.981393,-2.224032 3.025391,-4.916707 3.025391,-7.847656 0,-3.0996426 -1.053474,-5.8776224 -3.09375,-8.060547 C 71.707889,2.5005233 69.022967,1.3378906 66.025391,1.3378906 Z m 0.394531,6.9707032 c 0.971005,0 1.682603,0.3291066 2.466797,1.2519531 a 1.4119649,1.4119649 0 0 0 0.01367,0.015625 c 0.823104,0.9409601 1.18164,1.8921181 1.18164,3.0781251 0,1.282573 -0.375336,2.264289 -1.203125,3.189453 -0.788317,0.851516 -1.708847,1.25 -3.117187,1.25 -0.887631,0 -1.688371,-0.327916 -2.597657,-1.207031 -0.816786,-0.81682 -1.197265,-1.745432 -1.197265,-3.09375 -10e-7,-1.388649 0.388626,-2.358591 1.216797,-3.2070315 a 1.4119649,1.4119649 0 0 0 0.01367,-0.013672 c 0.816001,-0.8591957 1.777046,-1.2636719 3.222656,-1.2636718 z"
     transform="matrix(1.0521009,0,0,1.0747193,-4.4282594,-0.94902288)" />
  <path
     id="text19"
     style="font-size:64px;font-family:'Microsoft YaHei';-inkscape-font-specification:'Microsoft YaHei';display:inline;stroke-width:3.0576"
     d="m 14.119141,16.527344 a 0.93684784,0.93684784 0 0 0 -0.9375,0.9375 V 163.28711 a 0.93684784,0.93684784 0 0 0 0.9375,0.9375 h 9.759765 a 0.93684784,0.93684784 0 0 0 0.9375,-0.9375 v -13.39453 h 36.708985 a 0.93684784,0.93684784 0 0 0 0.9375,-0.9375 V 17.464844 a 0.93684784,0.93684784 0 0 0 -0.9375,-0.9375 z m 10.697265,10.86914 h 1.0625 24.949219 V 76.533203 H 24.816406 Z m 0,60.00586 h 1.0625 24.949219 v 51.619136 c -8.670574,0 -17.341146,0 -26.011719,0 z" />
</svg>
