<?xml version="1.0" encoding="UTF-8" standalone="no"?>
<!-- Created with Inkscape (http://www.inkscape.org/) -->

<svg
   width="180"
   height="180"
   viewBox="0 0 180 180"
   version="1.1"
   id="svg1"
   sodipodi:docname="r.svg"
   inkscape:version="1.4.2 (f4327f4, 2025-05-13)"
   xmlns:inkscape="http://www.inkscape.org/namespaces/inkscape"
   xmlns:sodipodi="http://sodipodi.sourceforge.net/DTD/sodipodi-0.dtd"
   xmlns="http://www.w3.org/2000/svg"
   xmlns:svg="http://www.w3.org/2000/svg">
  <sodipodi:namedview
     id="namedview1"
     pagecolor="#ffffff"
     bordercolor="#000000"
     borderopacity="0.25"
     inkscape:showpageshadow="2"
     inkscape:pageopacity="0.0"
     inkscape:pagecheckerboard="0"
     inkscape:deskcolor="#d1d1d1"
     inkscape:zoom="7.0666667"
     inkscape:cx="32.40566"
     inkscape:cy="87.59434"
     inkscape:window-width="2560"
     inkscape:window-height="1566"
     inkscape:window-x="-11"
     inkscape:window-y="-11"
     inkscape:window-maximized="1"
     inkscape:current-layer="svg1" />
  <defs
     id="defs1" />
  <path
     id="text13"
     style="font-size:64px;font-family:'Microsoft YaHei';-inkscape-font-specification:'Microsoft YaHei';display:inline;stroke-width:2.58405"
     d="m 52.023437,7.9570312 a 1.8143605,1.8143605 0 0 0 -2.30664,1.1855469 C 41.2112,36.647176 28.91508,61.36425 12.789063,83.271484 a 1.8143605,1.8143605 0 0 0 -0.242188,1.703125 c 1.384606,3.756746 2.677293,7.372964 3.939453,10.949219 A 1.8143605,1.8143605 0 0 0 19.625,96.439453 c 4.950417,-6.323572 9.722653,-13.099011 14.279297,-20.404297 v 88.775394 a 1.8143605,1.8143605 0 0 0 1.814453,1.81445 h 9.212891 a 1.8143605,1.8143605 0 0 0 1.814453,-1.81445 V 52.865234 C 52.665932,40.863066 58.162163,27.765593 63.277344,13.671875 a 1.8143605,1.8143605 0 0 0 -1.13086,-2.339844 z" />
</svg>
