<?xml version="1.0" encoding="UTF-8" standalone="no"?>
<!-- Created with Inkscape (http://www.inkscape.org/) -->

<svg
   width="180"
   height="180"
   viewBox="0 0 180 180"
   version="1.1"
   id="svg1"
   sodipodi:docname="s.svg"
   inkscape:version="1.4.2 (f4327f4, 2025-05-13)"
   xmlns:inkscape="http://www.inkscape.org/namespaces/inkscape"
   xmlns:sodipodi="http://sodipodi.sourceforge.net/DTD/sodipodi-0.dtd"
   xmlns="http://www.w3.org/2000/svg"
   xmlns:svg="http://www.w3.org/2000/svg">
  <sodipodi:namedview
     id="namedview1"
     pagecolor="#ffffff"
     bordercolor="#000000"
     borderopacity="0.25"
     inkscape:showpageshadow="2"
     inkscape:pageopacity="0.0"
     inkscape:pagecheckerboard="0"
     inkscape:deskcolor="#d1d1d1"
     inkscape:zoom="7.0666667"
     inkscape:cx="42.028302"
     inkscape:cy="90.424528"
     inkscape:window-width="2560"
     inkscape:window-height="1566"
     inkscape:window-x="-11"
     inkscape:window-y="-11"
     inkscape:window-maximized="1"
     inkscape:current-layer="svg1" />
  <defs
     id="defs1" />
  <path
     id="text3"
     style="font-size:64px;font-family:'Microsoft YaHei';-inkscape-font-specification:'Microsoft YaHei';display:none;stroke-width:2.84296"
     d="m 8.6757812,21.591797 c 15.0156248,0 30.0312498,0 45.0468748,0 0,11.046224 0,22.092448 0,33.138672 -13.492187,0 -26.984375,0 -40.476562,0 -1.63737,16.42513 -3.2747398,32.85026 -4.9121096,49.275391 14.4303386,0 28.8606766,0 43.2910156,0 -0.634592,13.16184 -1.310443,26.34793 -3.140974,39.40715 -0.460842,4.00693 -2.035569,8.12511 -5.329187,10.64162 -3.338054,2.63798 -7.765066,3.23155 -11.896575,3.07492 -6.914055,-0.0935 -13.815869,-0.58637 -20.70553,-1.14322 0.826672,3.47264 1.573179,6.96526 2.208985,10.47851 7.937461,0.21858 15.877232,0.49804 23.818359,0.44727 5.251982,-0.16168 10.75076,-1.50133 14.726247,-5.11952 4.083334,-3.67268 6.030404,-9.1042 6.853008,-14.40901 0.572511,-4.06697 0.709124,-8.18001 1.071638,-12.26862 0.936223,-12.93755 1.787141,-25.87376 2.626451,-38.83371 -14.36849,0 -28.736979,0 -43.105469,0 1.110496,-11.275803 2.214862,-22.55221 3.324219,-33.828125 10.548828,0 21.097656,0 31.646484,0 0,1.781901 0,3.563802 0,5.345703 3.183594,0 6.367188,0 9.550782,0 0,-17.977213 -10e-7,-35.954427 0,-53.93164 -18.199219,-1e-6 -36.398438,0 -54.5976568,0 1e-7,2.574869 0,5.149739 0,7.724609 z" />
  <path
     id="text4"
     style="font-size:64px;font-family:'Microsoft YaHei';-inkscape-font-specification:'Microsoft YaHei';display:none;stroke-width:1.9079"
     d="m 72.539062,41.898438 c 3.102214,-10e-7 6.204428,0 9.306641,0 0,-6.601563 0,-13.203126 0,-19.804688 27.373697,0 54.747397,0 82.121097,0 0,6.601563 0,13.203125 0,19.804688 3.10156,0 6.20312,-10e-7 9.30468,0 0,-9.697917 0,-19.395834 0,-29.09375 -33.57747,-1e-6 -67.15494,0 -100.732418,0 0,9.697916 10e-7,19.395833 0,29.09375 z" />
  <path
     id="text5"
     style="font-size:64px;font-family:'Microsoft YaHei';-inkscape-font-specification:'Microsoft YaHei';display:none;stroke-width:1.94576"
     d="m 70.886719,167.40234 c 3.481771,0 6.963541,0 10.445312,0 0,-2.95703 0,-5.91406 0,-8.87109 27.369139,0 54.738279,0 82.107419,0 0,2.95703 0,5.91406 0,8.87109 3.48177,0 6.96354,0 10.44532,0 0,-37.41145 0,-74.822913 0,-112.234371 -34.33269,0 -68.66537,0 -102.998051,0 0,37.411458 0,74.822921 0,112.234371 z M 83.332031,64.53125 c 26.702479,0 53.404949,0 80.107419,0 0,28.21224 0,56.42448 0,84.63672 -27.36914,0 -54.73828,0 -82.107419,0 0,-28.21224 0,-56.42448 0,-84.63672 0.666667,0 1.333334,0 2,0 z" />
  <path
     id="text6"
     style="font-size:64px;font-family:'Microsoft YaHei';-inkscape-font-specification:'Microsoft YaHei';display:none;stroke-width:1.07973"
     d="M 118.87109,70.869141 A 1.8894275,1.8894275 0 0 0 116.98242,72.75 c -0.0117,2.732445 -0.0234,5.464913 -0.0352,8.197266 -0.0219,2.842172 -0.0651,5.687599 -0.10743,8.535156 H 90.164062 a 1.8894275,1.8894275 0 0 0 -1.888671,1.888672 v 4.904297 a 1.8894275,1.8894275 0 0 0 1.888671,1.888671 h 26.197268 c -0.43232,3.002898 -0.98682,5.948328 -2.00586,8.687498 a 1.8894275,1.8894275 0 0 0 -0.0117,0.0332 c -2.23437,6.38279 -6.31958,12.08688 -11.46094,16.54687 a 1.8894275,1.8894275 0 0 0 -0.008,0.008 c -4.316178,3.78675 -9.320294,6.80538 -14.59375,9.27149 a 1.8894275,1.8894275 0 0 0 -0.675781,2.89062 c 1.287282,1.61147 2.558253,3.21566 3.771484,4.84375 a 1.8894275,1.8894275 0 0 0 2.410156,0.53516 c 8.610581,-4.63 16.773901,-10.73384 22.511721,-19.00977 l 0.002,-0.004 c 2.32671,-3.28609 4.04567,-6.89191 5.46485,-10.57227 1.16961,2.92261 2.42446,5.85831 4.17578,8.66016 4.18337,6.99296 10.22167,12.80814 17.32421,16.77539 0.71086,0.4046 1.6638,0.91882 2.50782,1.33789 h -0.004 c 1.07539,0.53665 2.17394,1.05414 3.30078,1.5332 a 1.8894275,1.8894275 0 0 0 2.21289,-0.55664 c 1.39329,-1.73989 2.95342,-3.39016 4.57422,-5.0293 a 1.8894275,1.8894275 0 0 0 -0.74414,-3.11914 c -8.27766,-2.77216 -15.97445,-7.63749 -21.1582,-14.56054 a 1.8894275,1.8894275 0 0 0 -0.01,-0.0137 c -4.03128,-5.27795 -6.51508,-11.65892 -7.9082,-18.257818 h 27.24609 a 1.8894275,1.8894275 0 0 0 1.88867,-1.888671 v -4.904297 a 1.8894275,1.8894275 0 0 0 -1.88867,-1.888672 h -27.5 c 0.0827,-5.572415 0.14505,-11.146253 0.14844,-16.722656 a 1.8894275,1.8894275 0 0 0 -1.88867,-1.890625 z" />
  <path
     id="text9"
     style="font-size:64px;font-family:'Microsoft YaHei';-inkscape-font-specification:'Microsoft YaHei';display:none;stroke-width:2.64129"
     d="M 51.001953,11.090821 C 40.514935,27.70329 26.955255,42.236691 11.550781,54.258407 c 1.637448,2.951216 3.222362,5.932836 4.712891,8.963003 C 33.151331,49.210033 48.201048,32.87293 60.457031,14.559733 57.647786,12.855602 54.838542,11.151471 52.029297,9.4473401 51.686849,9.9951665 51.344401,10.542994 51.001953,11.090821 Z M 55.259766,50.49877 C 44.53892,69.327964 31.784461,87.198238 15.837464,101.85991 c -1.705276,1.56238 -3.442365,3.08998 -5.22223,4.56469 1.466476,3.07286 2.838474,6.19222 4.111328,9.35261 7.094142,-6.36371 13.717984,-13.24417 20.044718,-20.384563 0.619209,-0.686183 1.238418,-1.372364 1.857626,-2.058547 0,24.44983 0,48.89966 0,73.34949 3.250651,0 6.501302,0 9.751953,0 0,-28.58128 0,-57.16255 0,-85.743831 6.235952,-8.34695 12.017682,-17.040465 17.316407,-26.026729 -2.710287,-1.653369 -5.420573,-3.30674 -8.13086,-4.960109 -0.102213,0.181949 -0.204427,0.3639 -0.30664,0.545849 z" />
  <path
     d="m 185.96524,36.092274 q 1.8125,0.8125 5.5625,1.9375 -0.8125,7.25 -1.875,12.25 -1.5625,7.75 -13.1875,7.875 -15.5,0.0625 -28.5625,0.0625 -13.125,-0.25 -13.125,-8.8125 0,-5.25 5.625,-10.8125 14.125,-13.4375 33.9375,-28.8125003 h -38.875 v -4.9375 h 47.3125 v 5.3125003 q -24.125,18.3125 -37.875,31.4375 -4.4375,4.25 -4.4375,7.1875 0,4.4375 8.25,4.625 12.1875,0.25 25.9375,-0.125 9.0625,-0.0625 10.125,-5.625 0.875,-4.625 1.1875,-11.5625 z"
     id="text10"
     style="font-size:64px;font-family:'Microsoft YaHei';-inkscape-font-specification:'Microsoft YaHei';display:none"
     aria-label="乙" />
  <path
     d="m 123.01887,83.981323 h 51.4375 v 5.125 h -46.125 v 43.624997 h 47.3125 v 5.125 h -52.625 z"
     id="text11"
     style="font-size:64px;font-family:'Microsoft YaHei';-inkscape-font-specification:'Microsoft YaHei';display:none"
     aria-label="匚" />
  <path
     id="text12"
     style="font-size:64px;font-family:'Microsoft YaHei';-inkscape-font-specification:'Microsoft YaHei';display:inline;stroke-width:2.74689"
     sodipodi:type="inkscape:offset"
     inkscape:radius="2.2889619"
     inkscape:original="M 40.808594 11.861328 C 29.982748 38.038282 19.521518 58.241524 9.3671875 72.46875 L 12.126953 82.720703 C 20.520305 81.950086 28.869279 81.296122 37.160156 80.792969 A 1.3334088 1.3334088 0 0 1 38.384766 82.808594 C 29.359269 97.873396 20.764377 110.0698 12.5625 119.48047 L 14.871094 130.71875 C 36.523945 126.99512 52.398325 124.37003 62.3125 122.87305 C 62.601067 119.18598 63.018986 115.62867 63.519531 112.15625 C 51.417129 114.34374 39.999571 116.26337 29.517578 117.81836 A 1.3334088 1.3334088 0 0 1 28.226562 115.74023 C 40.658094 97.804289 53.261583 77.844782 66.025391 55.970703 L 55.992188 50.761719 C 52.278025 58.00346 48.625924 64.902365 45.060547 71.3125 A 1.3334088 1.3334088 0 0 1 43.931641 71.996094 C 37.695143 72.171127 30.760244 72.344544 23.121094 72.519531 A 1.3334088 1.3334088 0 0 1 21.957031 70.484375 C 29.511895 58.318598 39.264868 40.050871 51.0625 16.066406 L 40.808594 11.861328 z M 62.291016 144.65625 C 44.559229 149.47772 26.876848 153.83832 9.2441406 157.72266 L 12.222656 168.55273 C 25.635497 164.40285 42.153357 159.94604 61.890625 155.16602 C 61.911515 151.81479 62.061298 148.29039 62.291016 144.65625 z "
     d="M 41.677734,9.7441406 A 2.2891908,2.2891908 0 0 0 38.693359,10.986328 C 27.907577,37.066407 17.494833,57.140391 7.5039062,71.138672 A 2.2891908,2.2891908 0 0 0 7.15625,73.064453 L 9.9160156,83.316406 A 2.2891908,2.2891908 0 0 0 12.335938,85 c 7.733746,-0.710057 15.415161,-1.291115 23.05664,-1.775391 -8.590787,14.177858 -16.792582,25.845871 -24.554687,34.751951 a 2.2891908,2.2891908 0 0 0 -0.517578,1.96485 l 2.308593,11.23828 a 2.2891908,2.2891908 0 0 0 2.63086,1.79492 c 21.64578,-3.72241 37.514306,-6.34604 47.394531,-7.83789 a 2.2891908,2.2891908 0 0 0 1.939453,-2.08594 c 0.284089,-3.62986 0.696688,-7.13636 1.191406,-10.56836 a 2.2891908,2.2891908 0 0 0 -2.671875,-2.57812 c -11.3206,2.04618 -21.884982,3.79781 -31.785156,5.29297 C 43.405725,97.66033 55.627707,78.331463 68.001953,57.125 A 2.2891908,2.2891908 0 0 0 67.080078,53.939453 L 57.046875,48.730469 a 2.2891908,2.2891908 0 0 0 -3.091797,0.986328 C 50.335825,56.773487 46.785022,63.467957 43.314453,69.722656 37.72171,69.878618 31.468675,70.031649 24.757812,70.1875 32.273864,57.920845 41.689982,40.307563 53.117187,17.076172 a 2.2891908,2.2891908 0 0 0 -1.185546,-3.126953 z m 2.19336,59.9628904 c -0.0013,6.51e-4 -0.01042,0.002 -0.01367,0.002 0.01748,-4.4e-5 -0.0097,-0.0013 0.01367,-0.002 z m -7.451172,11.925781 c 6.51e-4,0 -6.51e-4,0.0039 -0.002,0.0059 0.002,-0.0033 -7.2e-5,-0.0025 0.002,-0.0059 z m 25.269531,60.814458 c -17.697188,4.81206 -35.342299,9.16298 -52.9374999,13.03906 a 2.2891908,2.2891908 0 0 0 -1.7148437,2.84375 l 2.9785156,10.83008 a 2.2891908,2.2891908 0 0 0 2.882813,1.58007 c 13.347994,-4.12981 29.826382,-8.57743 49.531249,-13.34961 a 2.2891908,2.2891908 0 0 0 1.75,-2.21093 c 0.02053,-3.29304 0.168693,-6.77524 0.396485,-10.37891 a 2.2891908,2.2891908 0 0 0 -2.886719,-2.35351 z" />
</svg>
