<?xml version="1.0" encoding="UTF-8" standalone="no"?>
<!-- Created with Inkscape (http://www.inkscape.org/) -->

<svg
   width="180"
   height="180"
   viewBox="0 0 180 180"
   version="1.1"
   id="svg1"
   sodipodi:docname="sh.svg"
   inkscape:version="1.4.2 (f4327f4, 2025-05-13)"
   xmlns:inkscape="http://www.inkscape.org/namespaces/inkscape"
   xmlns:sodipodi="http://sodipodi.sourceforge.net/DTD/sodipodi-0.dtd"
   xmlns="http://www.w3.org/2000/svg"
   xmlns:svg="http://www.w3.org/2000/svg">
  <sodipodi:namedview
     id="namedview1"
     pagecolor="#ffffff"
     bordercolor="#000000"
     borderopacity="0.25"
     inkscape:showpageshadow="2"
     inkscape:pageopacity="0.0"
     inkscape:pagecheckerboard="0"
     inkscape:deskcolor="#d1d1d1"
     inkscape:zoom="7.0666667"
     inkscape:cx="28.726415"
     inkscape:cy="93.113208"
     inkscape:window-width="2560"
     inkscape:window-height="1566"
     inkscape:window-x="-11"
     inkscape:window-y="-11"
     inkscape:window-maximized="1"
     inkscape:current-layer="svg1" />
  <defs
     id="defs1" />
  <path
     id="text3"
     style="font-size:64px;font-family:'Microsoft YaHei';-inkscape-font-specification:'Microsoft YaHei';display:none;stroke-width:2.84296"
     d="m 8.6757812,21.591797 c 15.0156248,0 30.0312498,0 45.0468748,0 0,11.046224 0,22.092448 0,33.138672 -13.492187,0 -26.984375,0 -40.476562,0 -1.63737,16.42513 -3.2747398,32.85026 -4.9121096,49.275391 14.4303386,0 28.8606766,0 43.2910156,0 -0.634592,13.16184 -1.310443,26.34793 -3.140974,39.40715 -0.460842,4.00693 -2.035569,8.12511 -5.329187,10.64162 -3.338054,2.63798 -7.765066,3.23155 -11.896575,3.07492 -6.914055,-0.0935 -13.815869,-0.58637 -20.70553,-1.14322 0.826672,3.47264 1.573179,6.96526 2.208985,10.47851 7.937461,0.21858 15.877232,0.49804 23.818359,0.44727 5.251982,-0.16168 10.75076,-1.50133 14.726247,-5.11952 4.083334,-3.67268 6.030404,-9.1042 6.853008,-14.40901 0.572511,-4.06697 0.709124,-8.18001 1.071638,-12.26862 0.936223,-12.93755 1.787141,-25.87376 2.626451,-38.83371 -14.36849,0 -28.736979,0 -43.105469,0 1.110496,-11.275803 2.214862,-22.55221 3.324219,-33.828125 10.548828,0 21.097656,0 31.646484,0 0,1.781901 0,3.563802 0,5.345703 3.183594,0 6.367188,0 9.550782,0 0,-17.977213 -10e-7,-35.954427 0,-53.93164 -18.199219,-1e-6 -36.398438,0 -54.5976568,0 1e-7,2.574869 0,5.149739 0,7.724609 z" />
  <path
     id="text4"
     style="font-size:64px;font-family:'Microsoft YaHei';-inkscape-font-specification:'Microsoft YaHei';display:none;stroke-width:1.9079"
     d="m 72.539062,41.898438 c 3.102214,-10e-7 6.204428,0 9.306641,0 0,-6.601563 0,-13.203126 0,-19.804688 27.373697,0 54.747397,0 82.121097,0 0,6.601563 0,13.203125 0,19.804688 3.10156,0 6.20312,-10e-7 9.30468,0 0,-9.697917 0,-19.395834 0,-29.09375 -33.57747,-1e-6 -67.15494,0 -100.732418,0 0,9.697916 10e-7,19.395833 0,29.09375 z" />
  <path
     id="text5"
     style="font-size:64px;font-family:'Microsoft YaHei';-inkscape-font-specification:'Microsoft YaHei';display:none;stroke-width:1.94576"
     d="m 70.886719,167.40234 c 3.481771,0 6.963541,0 10.445312,0 0,-2.95703 0,-5.91406 0,-8.87109 27.369139,0 54.738279,0 82.107419,0 0,2.95703 0,5.91406 0,8.87109 3.48177,0 6.96354,0 10.44532,0 0,-37.41145 0,-74.822913 0,-112.234371 -34.33269,0 -68.66537,0 -102.998051,0 0,37.411458 0,74.822921 0,112.234371 z M 83.332031,64.53125 c 26.702479,0 53.404949,0 80.107419,0 0,28.21224 0,56.42448 0,84.63672 -27.36914,0 -54.73828,0 -82.107419,0 0,-28.21224 0,-56.42448 0,-84.63672 0.666667,0 1.333334,0 2,0 z" />
  <path
     id="text6"
     style="font-size:64px;font-family:'Microsoft YaHei';-inkscape-font-specification:'Microsoft YaHei';display:none;stroke-width:1.07973"
     d="M 118.87109,70.869141 A 1.8894275,1.8894275 0 0 0 116.98242,72.75 c -0.0117,2.732445 -0.0234,5.464913 -0.0352,8.197266 -0.0219,2.842172 -0.0651,5.687599 -0.10743,8.535156 H 90.164062 a 1.8894275,1.8894275 0 0 0 -1.888671,1.888672 v 4.904297 a 1.8894275,1.8894275 0 0 0 1.888671,1.888671 h 26.197268 c -0.43232,3.002898 -0.98682,5.948328 -2.00586,8.687498 a 1.8894275,1.8894275 0 0 0 -0.0117,0.0332 c -2.23437,6.38279 -6.31958,12.08688 -11.46094,16.54687 a 1.8894275,1.8894275 0 0 0 -0.008,0.008 c -4.316178,3.78675 -9.320294,6.80538 -14.59375,9.27149 a 1.8894275,1.8894275 0 0 0 -0.675781,2.89062 c 1.287282,1.61147 2.558253,3.21566 3.771484,4.84375 a 1.8894275,1.8894275 0 0 0 2.410156,0.53516 c 8.610581,-4.63 16.773901,-10.73384 22.511721,-19.00977 l 0.002,-0.004 c 2.32671,-3.28609 4.04567,-6.89191 5.46485,-10.57227 1.16961,2.92261 2.42446,5.85831 4.17578,8.66016 4.18337,6.99296 10.22167,12.80814 17.32421,16.77539 0.71086,0.4046 1.6638,0.91882 2.50782,1.33789 h -0.004 c 1.07539,0.53665 2.17394,1.05414 3.30078,1.5332 a 1.8894275,1.8894275 0 0 0 2.21289,-0.55664 c 1.39329,-1.73989 2.95342,-3.39016 4.57422,-5.0293 a 1.8894275,1.8894275 0 0 0 -0.74414,-3.11914 c -8.27766,-2.77216 -15.97445,-7.63749 -21.1582,-14.56054 a 1.8894275,1.8894275 0 0 0 -0.01,-0.0137 c -4.03128,-5.27795 -6.51508,-11.65892 -7.9082,-18.257818 h 27.24609 a 1.8894275,1.8894275 0 0 0 1.88867,-1.888671 v -4.904297 a 1.8894275,1.8894275 0 0 0 -1.88867,-1.888672 h -27.5 c 0.0827,-5.572415 0.14505,-11.146253 0.14844,-16.722656 a 1.8894275,1.8894275 0 0 0 -1.88867,-1.890625 z" />
  <path
     id="text9"
     style="font-size:64px;font-family:'Microsoft YaHei';-inkscape-font-specification:'Microsoft YaHei';display:none;stroke-width:2.64129"
     d="M 51.001953,11.090821 C 40.514935,27.70329 26.955255,42.236691 11.550781,54.258407 c 1.637448,2.951216 3.222362,5.932836 4.712891,8.963003 C 33.151331,49.210033 48.201048,32.87293 60.457031,14.559733 57.647786,12.855602 54.838542,11.151471 52.029297,9.4473401 51.686849,9.9951665 51.344401,10.542994 51.001953,11.090821 Z M 55.259766,50.49877 C 44.53892,69.327964 31.784461,87.198238 15.837464,101.85991 c -1.705276,1.56238 -3.442365,3.08998 -5.22223,4.56469 1.466476,3.07286 2.838474,6.19222 4.111328,9.35261 7.094142,-6.36371 13.717984,-13.24417 20.044718,-20.384563 0.619209,-0.686183 1.238418,-1.372364 1.857626,-2.058547 0,24.44983 0,48.89966 0,73.34949 3.250651,0 6.501302,0 9.751953,0 0,-28.58128 0,-57.16255 0,-85.743831 6.235952,-8.34695 12.017682,-17.040465 17.316407,-26.026729 -2.710287,-1.653369 -5.420573,-3.30674 -8.13086,-4.960109 -0.102213,0.181949 -0.204427,0.3639 -0.30664,0.545849 z" />
  <path
     id="text10"
     style="font-size:64px;font-family:'Microsoft YaHei';-inkscape-font-specification:'Microsoft YaHei';display:inline;stroke-width:2.62375"
     sodipodi:type="inkscape:offset"
     inkscape:radius="1.7161211"
     inkscape:original="M 34.412109 8.9082031 C 31.814729 10.232739 29.216876 11.556145 26.619141 12.880859 A 0.71072163 0.71072163 0 0 0 26.324219 13.865234 C 29.970755 20.283759 33.338271 26.871091 36.5625 33.53125 A 0.71072163 0.71072163 0 0 0 37.53125 33.849609 C 40.321632 32.388591 43.111911 30.927843 45.902344 29.466797 A 0.71072163 0.71072163 0 0 0 46.201172 28.505859 C 42.760174 21.9901 39.169685 15.516722 35.34375 9.1738281 A 0.71072163 0.71072163 0 0 0 34.412109 8.9082031 z M 10.212891 42.3125 A 0.71072163 0.71072163 0 0 0 9.5019531 43.023438 L 9.5019531 50.835938 A 0.71072163 0.71072163 0 0 0 10.212891 51.546875 L 48.738281 51.546875 C 45.481599 57.616355 42.010547 63.561859 38.076172 69.179688 A 0.71072163 0.71072163 0 0 0 38.074219 69.183594 C 29.746136 81.200604 19.877855 92.071266 9.0820312 101.8418 A 0.71072163 0.71072163 0 0 0 8.8847656 102.59375 C 9.9677981 105.83067 10.979244 109.1457 11.962891 112.39844 A 0.71072163 0.71072163 0 0 0 13.132812 112.70703 C 19.449159 106.68901 25.414781 100.31351 31.169922 93.755859 L 31.173828 93.751953 C 31.205138 93.716863 31.236268 93.681583 31.267578 93.646484 L 31.267578 166.89844 A 0.71072163 0.71072163 0 0 0 31.978516 167.60938 L 40.291016 167.60938 A 0.71072163 0.71072163 0 0 0 41.001953 166.89844 L 41.001953 81.394531 C 47.827048 72.38749 54.066504 62.915341 59.591797 53.021484 A 0.71072163 0.71072163 0 0 0 59.681641 52.675781 L 59.681641 43.023438 A 0.71072163 0.71072163 0 0 0 58.970703 42.3125 L 10.212891 42.3125 z M 48.808594 86.763672 C 47.111867 88.332829 45.41395 89.901149 43.716797 91.470703 A 0.71072163 0.71072163 0 0 0 43.6875 92.484375 C 49.581661 98.600311 55.370696 104.82352 60.951172 111.22852 A 0.71072163 0.71072163 0 0 0 61.960938 111.29102 C 64.059491 109.4099 66.15765 107.52729 68.255859 105.64648 A 0.71072163 0.71072163 0 0 0 68.287109 104.61719 C 62.249696 98.51509 56.084577 92.596049 49.773438 86.763672 A 0.71072163 0.71072163 0 0 0 48.808594 86.763672 z "
     d="m 35.392578,7.2363281 c -0.581856,-0.165896 -1.221476,-0.1332869 -1.761719,0.1425781 -2.596436,1.3240544 -5.193371,2.6479888 -7.791015,3.9726568 -1.164573,0.594009 -1.65392,2.224833 -1.007813,3.361328 3.62158,6.374597 6.972145,12.928611 10.185547,19.566406 a 1.7162927,1.7162927 0 0 0 0.002,0.0039 c 0.566792,1.163687 2.162001,1.686557 3.308594,1.085938 2.79032,-1.460986 5.580599,-2.921734 8.371094,-4.382813 1.127251,-0.59072 1.612982,-2.155434 1.019531,-3.28125 C 44.266732,21.168453 40.659894,14.66558 36.8125,8.2871094 36.498968,7.7678204 35.974434,7.4022241 35.392578,7.2363281 Z M 10.212891,40.595703 c -1.2711847,-3.87e-4 -2.4281218,1.15655 -2.4277348,2.427734 v 7.8125 c -3.852e-4,1.271184 1.1565512,2.428122 2.4277348,2.427735 h 35.585937 c -2.831426,5.138821 -5.798842,10.176696 -9.128906,14.93164 a 1.7162927,1.7162927 0 0 0 -0.01172,0.01953 c -8.24139,11.890415 -18.018881,22.662939 -28.7285155,32.355466 -0.6941524,0.62822 -0.968248,1.67834 -0.671875,2.56641 a 1.7162927,1.7162927 0 0 0 0,0.002 c 1.0731766,3.20747 2.079689,6.50589 3.0625005,9.75586 a 1.7162927,1.7162927 0 0 0 0,0.002 c 0.239198,0.78824 0.906638,1.43249 1.703125,1.64258 0.796486,0.21009 1.696113,-0.0202 2.292968,-0.58789 a 1.7162927,1.7162927 0 0 0 0,-0.002 c 5.318521,-5.06732 10.340627,-10.41305 15.234375,-15.865236 v 68.814456 c -3.9e-4,1.27118 1.156548,2.42812 2.427735,2.42773 h 8.3125 c 1.271185,3.9e-4 2.428125,-1.15655 2.427734,-2.42773 V 93.966797 c 5.785177,6.009512 11.469939,12.111033 16.939453,18.388673 0.842002,0.96583 2.492586,1.06947 3.447266,0.21484 a 1.7162927,1.7162927 0 0 0 0,-0.002 c 2.098968,-1.88149 4.197128,-3.76409 6.294922,-5.64453 0.975318,-0.87476 1.028792,-2.58209 0.107421,-3.51367 C 63.449821,97.287257 57.264552,91.350989 50.9375,85.503906 c -0.886431,-0.819357 -2.406538,-0.819357 -3.292969,0 a 1.7162927,1.7162927 0 0 0 -0.002,0 c -1.640093,1.516782 -3.282308,3.032798 -4.923828,4.550781 v -8.11914 c 6.728166,-8.92267 12.903899,-18.288302 18.371094,-28.078125 a 1.7162927,1.7162927 0 0 0 0.002,0 c 0.199999,-0.359007 0.306535,-0.770684 0.30664,-1.181641 v -9.652344 c 3.88e-4,-1.271184 -1.156549,-2.428121 -2.427734,-2.427734 z" />
</svg>
