<?xml version="1.0" encoding="UTF-8" standalone="no"?>
<!-- Created with Inkscape (http://www.inkscape.org/) -->

<svg
   width="180"
   height="180"
   viewBox="0 0 180 180"
   version="1.1"
   id="svg1"
   sodipodi:docname="x.svg"
   inkscape:version="1.4.2 (f4327f4, 2025-05-13)"
   xmlns:inkscape="http://www.inkscape.org/namespaces/inkscape"
   xmlns:sodipodi="http://sodipodi.sourceforge.net/DTD/sodipodi-0.dtd"
   xmlns="http://www.w3.org/2000/svg"
   xmlns:svg="http://www.w3.org/2000/svg">
  <sodipodi:namedview
     id="namedview1"
     pagecolor="#ffffff"
     bordercolor="#000000"
     borderopacity="0.25"
     inkscape:showpageshadow="2"
     inkscape:pageopacity="0.0"
     inkscape:pagecheckerboard="0"
     inkscape:deskcolor="#d1d1d1"
     inkscape:zoom="2.498444"
     inkscape:cx="-45.228151"
     inkscape:cy="140.08719"
     inkscape:window-width="2560"
     inkscape:window-height="1566"
     inkscape:window-x="-11"
     inkscape:window-y="-11"
     inkscape:window-maximized="1"
     inkscape:current-layer="svg1" />
  <defs
     id="defs1" />
  <path
     id="text23"
     style="font-size:64px;font-family:'Microsoft YaHei';-inkscape-font-specification:'Microsoft YaHei';stroke-width:1.70043"
     d="m 15.111963,10.295456 c -2.116593,0 -5.5292622,-1.1153693 -6.3993866,1.382812 V 161.15911 c 0.1988,1.92084 -0.9425556,5.77803 2.1836756,5.39607 2.072594,-0.42932 5.529259,1.11537 6.399388,-1.38281 -3e-6,-49.49251 0.03996,-98.985034 -4e-6,-148.477527 -0.0016,-2.010485 1.262566,-6.399387 -1.382813,-6.399387 z M 34.896424,20.87749 c -6.139637,-1.248321 -3.011969,7.072881 -3.721881,10.593753 0.38346,28.367389 -1.001547,57.469096 -11.35847,84.219787 -3.652032,4.39872 0.159453,12.01662 4.408962,13.28261 3.015004,-6.55134 4.703818,-13.73901 6.670052,-20.69474 1.548059,-4.70975 2.224171,-11.820689 4.061411,-15.147756 2.513085,13.446846 4.851898,27.038236 9.042971,40.136516 1.176655,6.79462 5.392595,-0.39703 6.905786,-3.04515 1.14933,-5.48475 -3.711699,-11.42143 -4.16626,-17.29418 2.851312,-7.5978 4.495796,-15.57008 6.787157,-23.320307 2.071735,10.232463 3.913498,20.530347 6.768371,30.633717 0.679698,7.86215 6.211252,0.46679 7.939344,-2.89753 C 64.228993,104.14593 61.423027,90.536802 59.815322,76.812722 57.316447,58.713116 57.626976,40.400215 57.465217,22.197861 55.776735,20.633182 52.713988,21.407355 50.581482,21.676615 48.535389,26.723046 50.470959,33.852571 49.810496,39.80513 49.699176,58.267085 49.252513,77.211065 43.307403,94.867762 39.699913,75.012387 38.979032,54.725834 39.041762,34.577516 38.043174,30.373875 40.859759,23.848799 37.668684,20.877487 Z"
     sodipodi:nodetypes="sccccssscccccccccccccccccccc" />
</svg>
