<?xml version="1.0" encoding="UTF-8" standalone="no"?>
<!-- Created with Inkscape (http://www.inkscape.org/) -->

<svg
   width="180"
   height="180"
   viewBox="0 0 180 180"
   version="1.1"
   id="svg1"
   sodipodi:docname="y.svg"
   inkscape:version="1.4.2 (f4327f4, 2025-05-13)"
   xmlns:inkscape="http://www.inkscape.org/namespaces/inkscape"
   xmlns:sodipodi="http://sodipodi.sourceforge.net/DTD/sodipodi-0.dtd"
   xmlns="http://www.w3.org/2000/svg"
   xmlns:svg="http://www.w3.org/2000/svg">
  <sodipodi:namedview
     id="namedview1"
     pagecolor="#ffffff"
     bordercolor="#000000"
     borderopacity="0.25"
     inkscape:showpageshadow="2"
     inkscape:pageopacity="0.0"
     inkscape:pagecheckerboard="0"
     inkscape:deskcolor="#d1d1d1"
     inkscape:zoom="7.0666667"
     inkscape:cx="89.929245"
     inkscape:cy="90"
     inkscape:window-width="2560"
     inkscape:window-height="1566"
     inkscape:window-x="-11"
     inkscape:window-y="-11"
     inkscape:window-maximized="1"
     inkscape:current-layer="svg1" />
  <defs
     id="defs1" />
  <path
     id="text3"
     style="font-size:64px;font-family:'Microsoft YaHei';-inkscape-font-specification:'Microsoft YaHei';display:none;stroke-width:2.84296"
     d="m 8.6757812,21.591797 c 15.0156248,0 30.0312498,0 45.0468748,0 0,11.046224 0,22.092448 0,33.138672 -13.492187,0 -26.984375,0 -40.476562,0 -1.63737,16.42513 -3.2747398,32.85026 -4.9121096,49.275391 14.4303386,0 28.8606766,0 43.2910156,0 -0.634592,13.16184 -1.310443,26.34793 -3.140974,39.40715 -0.460842,4.00693 -2.035569,8.12511 -5.329187,10.64162 -3.338054,2.63798 -7.765066,3.23155 -11.896575,3.07492 -6.914055,-0.0935 -13.815869,-0.58637 -20.70553,-1.14322 0.826672,3.47264 1.573179,6.96526 2.208985,10.47851 7.937461,0.21858 15.877232,0.49804 23.818359,0.44727 5.251982,-0.16168 10.75076,-1.50133 14.726247,-5.11952 4.083334,-3.67268 6.030404,-9.1042 6.853008,-14.40901 0.572511,-4.06697 0.709124,-8.18001 1.071638,-12.26862 0.936223,-12.93755 1.787141,-25.87376 2.626451,-38.83371 -14.36849,0 -28.736979,0 -43.105469,0 1.110496,-11.275803 2.214862,-22.55221 3.324219,-33.828125 10.548828,0 21.097656,0 31.646484,0 0,1.781901 0,3.563802 0,5.345703 3.183594,0 6.367188,0 9.550782,0 0,-17.977213 -10e-7,-35.954427 0,-53.93164 -18.199219,-1e-6 -36.398438,0 -54.5976568,0 1e-7,2.574869 0,5.149739 0,7.724609 z" />
  <path
     id="text4"
     style="font-size:64px;font-family:'Microsoft YaHei';-inkscape-font-specification:'Microsoft YaHei';display:none;stroke-width:1.9079"
     d="m 72.539062,41.898438 c 3.102214,-10e-7 6.204428,0 9.306641,0 0,-6.601563 0,-13.203126 0,-19.804688 27.373697,0 54.747397,0 82.121097,0 0,6.601563 0,13.203125 0,19.804688 3.10156,0 6.20312,-10e-7 9.30468,0 0,-9.697917 0,-19.395834 0,-29.09375 -33.57747,-1e-6 -67.15494,0 -100.732418,0 0,9.697916 10e-7,19.395833 0,29.09375 z" />
  <path
     id="text5"
     style="font-size:64px;font-family:'Microsoft YaHei';-inkscape-font-specification:'Microsoft YaHei';display:none;stroke-width:1.94576"
     d="m 70.886719,167.40234 c 3.481771,0 6.963541,0 10.445312,0 0,-2.95703 0,-5.91406 0,-8.87109 27.369139,0 54.738279,0 82.107419,0 0,2.95703 0,5.91406 0,8.87109 3.48177,0 6.96354,0 10.44532,0 0,-37.41145 0,-74.822913 0,-112.234371 -34.33269,0 -68.66537,0 -102.998051,0 0,37.411458 0,74.822921 0,112.234371 z M 83.332031,64.53125 c 26.702479,0 53.404949,0 80.107419,0 0,28.21224 0,56.42448 0,84.63672 -27.36914,0 -54.73828,0 -82.107419,0 0,-28.21224 0,-56.42448 0,-84.63672 0.666667,0 1.333334,0 2,0 z" />
  <path
     id="text6"
     style="font-size:64px;font-family:'Microsoft YaHei';-inkscape-font-specification:'Microsoft YaHei';display:none;stroke-width:1.07973"
     d="M 118.87109,70.869141 A 1.8894275,1.8894275 0 0 0 116.98242,72.75 c -0.0117,2.732445 -0.0234,5.464913 -0.0352,8.197266 -0.0219,2.842172 -0.0651,5.687599 -0.10743,8.535156 H 90.164062 a 1.8894275,1.8894275 0 0 0 -1.888671,1.888672 v 4.904297 a 1.8894275,1.8894275 0 0 0 1.888671,1.888671 h 26.197268 c -0.43232,3.002898 -0.98682,5.948328 -2.00586,8.687498 a 1.8894275,1.8894275 0 0 0 -0.0117,0.0332 c -2.23437,6.38279 -6.31958,12.08688 -11.46094,16.54687 a 1.8894275,1.8894275 0 0 0 -0.008,0.008 c -4.316178,3.78675 -9.320294,6.80538 -14.59375,9.27149 a 1.8894275,1.8894275 0 0 0 -0.675781,2.89062 c 1.287282,1.61147 2.558253,3.21566 3.771484,4.84375 a 1.8894275,1.8894275 0 0 0 2.410156,0.53516 c 8.610581,-4.63 16.773901,-10.73384 22.511721,-19.00977 l 0.002,-0.004 c 2.32671,-3.28609 4.04567,-6.89191 5.46485,-10.57227 1.16961,2.92261 2.42446,5.85831 4.17578,8.66016 4.18337,6.99296 10.22167,12.80814 17.32421,16.77539 0.71086,0.4046 1.6638,0.91882 2.50782,1.33789 h -0.004 c 1.07539,0.53665 2.17394,1.05414 3.30078,1.5332 a 1.8894275,1.8894275 0 0 0 2.21289,-0.55664 c 1.39329,-1.73989 2.95342,-3.39016 4.57422,-5.0293 a 1.8894275,1.8894275 0 0 0 -0.74414,-3.11914 c -8.27766,-2.77216 -15.97445,-7.63749 -21.1582,-14.56054 a 1.8894275,1.8894275 0 0 0 -0.01,-0.0137 c -4.03128,-5.27795 -6.51508,-11.65892 -7.9082,-18.257818 h 27.24609 a 1.8894275,1.8894275 0 0 0 1.88867,-1.888671 v -4.904297 a 1.8894275,1.8894275 0 0 0 -1.88867,-1.888672 h -27.5 c 0.0827,-5.572415 0.14505,-11.146253 0.14844,-16.722656 a 1.8894275,1.8894275 0 0 0 -1.88867,-1.890625 z" />
  <path
     id="text9"
     style="font-size:64px;font-family:'Microsoft YaHei';-inkscape-font-specification:'Microsoft YaHei';display:none;stroke-width:2.64129"
     d="M 51.001953,11.090821 C 40.514935,27.70329 26.955255,42.236691 11.550781,54.258407 c 1.637448,2.951216 3.222362,5.932836 4.712891,8.963003 C 33.151331,49.210033 48.201048,32.87293 60.457031,14.559733 57.647786,12.855602 54.838542,11.151471 52.029297,9.4473401 51.686849,9.9951665 51.344401,10.542994 51.001953,11.090821 Z M 55.259766,50.49877 C 44.53892,69.327964 31.784461,87.198238 15.837464,101.85991 c -1.705276,1.56238 -3.442365,3.08998 -5.22223,4.56469 1.466476,3.07286 2.838474,6.19222 4.111328,9.35261 7.094142,-6.36371 13.717984,-13.24417 20.044718,-20.384563 0.619209,-0.686183 1.238418,-1.372364 1.857626,-2.058547 0,24.44983 0,48.89966 0,73.34949 3.250651,0 6.501302,0 9.751953,0 0,-28.58128 0,-57.16255 0,-85.743831 6.235952,-8.34695 12.017682,-17.040465 17.316407,-26.026729 -2.710287,-1.653369 -5.420573,-3.30674 -8.13086,-4.960109 -0.102213,0.181949 -0.204427,0.3639 -0.30664,0.545849 z" />
  <path
     id="text10"
     style="font-size:64px;font-family:'Microsoft YaHei';-inkscape-font-specification:'Microsoft YaHei';display:none;stroke-width:1.83854"
     d="m 12.734375,12.345703 v 10.896484 h 42.037109 a 0.79001935,0.79001935 0 0 1 0.705078,1.146485 c -15.216615,30.018753 -28.252677,60.15316 -39.107421,86.404298 -4.28952,10.78707 -6.4277347,21.24742 -6.4277347,31.39258 -1e-7,8.25578 1.7446257,14.42909 4.6406247,18.55468 2.896,4.1256 6.91435,6.25637 11.744141,6.49024 9.896456,0.001 27.118029,0.68442 38.972656,0.5957 l 0.177734,-11.66601 c -10.550069,-0.007 -29.115455,-0.98031 -38.294921,-1.45899 a 0.79001935,0.79001935 0 0 1 -0.0039,0 c -3.355012,-0.19383 -5.609767,-1.63104 -6.800781,-4.11133 -1.191014,-2.48028 -1.455078,-5.86482 -1.455078,-10.23632 0,-5.89711 1.740191,-13.00444 5.175781,-21.36914 C 34.649098,93.380415 47.201299,62.686489 65.712891,26.943359 V 12.345703 Z" />
  <path
     d="M 10.649783,11.50425 H 58.998821 V 22.379338 H 21.643305 V 156.99896 H 60.11502 v 10.87509 H 10.649783 Z"
     id="text11"
     style="font-size:64px;font-family:'Microsoft YaHei';-inkscape-font-specification:'Microsoft YaHei';display:none;stroke-width:1.65172"
     aria-label="匚" />
  <path
     id="text12"
     style="font-size:64px;font-family:'Microsoft YaHei';-inkscape-font-specification:'Microsoft YaHei';display:none;stroke-width:2.74689"
     d="M 40.808594,11.861328 C 29.982748,38.038282 19.521518,58.241524 9.3671875,72.46875 l 2.7597655,10.251953 c 8.393352,-0.770617 16.742326,-1.424581 25.033203,-1.927734 a 1.3334088,1.3334088 0 0 1 1.22461,2.015625 C 29.359269,97.873396 20.764377,110.0698 12.5625,119.48047 l 2.308594,11.23828 c 21.652851,-3.72363 37.527231,-6.34872 47.441406,-7.8457 0.288567,-3.68707 0.706486,-7.24438 1.207031,-10.7168 -12.102402,2.18749 -23.51996,4.10712 -34.001953,5.66211 a 1.3334088,1.3334088 0 0 1 -1.291016,-2.07813 C 40.658094,97.804285 53.261583,77.844782 66.025391,55.970703 L 55.992187,50.761719 C 52.278024,58.00346 48.625924,64.902365 45.060547,71.3125 a 1.3334088,1.3334088 0 0 1 -1.128906,0.683594 c -6.236498,0.175033 -13.171397,0.34845 -20.810547,0.523437 A 1.3334088,1.3334088 0 0 1 21.957031,70.484375 C 29.511895,58.318598 39.264868,40.050871 51.0625,16.066406 Z M 62.291016,144.65625 c -17.731787,4.82147 -35.414168,9.18207 -53.0468754,13.06641 l 2.9785154,10.83007 c 13.412841,-4.14988 29.930701,-8.60669 49.667969,-13.38671 0.02089,-3.35123 0.170673,-6.87563 0.400391,-10.50977 z" />
  <path
     id="text13"
     style="font-size:64px;font-family:'Microsoft YaHei';-inkscape-font-specification:'Microsoft YaHei';display:none;stroke-width:2.58405"
     d="M 51.449219,9.6777344 C 42.88844,37.360776 30.501316,62.270203 14.25,84.347656 c 1.388602,3.767587 2.683527,7.391927 3.947266,10.972656 5.098391,-6.512591 10.015334,-13.471026 14.6875,-21.033203 a 1.5322967,1.5322967 0 0 1 2.833984,0.804688 v 89.718753 h 9.212891 V 52.804687 a 1.5322967,1.5322967 0 0 1 0.158203,-0.677734 C 50.986531,40.178404 56.467526,27.117684 61.572266,13.052734 Z" />
  <path
     id="text14"
     style="font-size:64px;font-family:'Microsoft YaHei';-inkscape-font-specification:'Microsoft YaHei';display:none;stroke-width:2.31634"
     d="m 31.033203,31.804687 v 95.005863 a 0.39500968,0.39500968 0 0 1 -0.378906,0.39453 l -10.214844,0.38672 a 0.39500968,0.39500968 0 0 1 -0.410156,-0.39453 V 56.494141 H 9.6308594 v 78.828129 l 42.3945316,-1.40821 a 0.39500968,0.39500968 0 0 1 0.408203,0.39453 v 5.29297 H 62.832031 V 80.53125 56.494141 H 52.433594 v 69.541019 a 0.39500968,0.39500968 0 0 1 -0.378907,0.39453 l -10.21289,0.38672 a 0.39500968,0.39500968 0 0 1 -0.410156,-0.39453 V 31.804687 Z" />
  <path
     id="text1"
     style="font-size:64px;font-family:'Microsoft YaHei';-inkscape-font-specification:'Microsoft YaHei';stroke-width:2.57497"
     sodipodi:type="inkscape:offset"
     inkscape:radius="1.6419435"
     inkscape:original="M 36.53125 8.3105469 L 26.214844 13.492188 C 30.077917 20.153249 33.940399 27.451978 37.800781 35.392578 L 48.880859 29.746094 C 44.812546 22.402587 40.696485 15.257016 36.53125 8.3105469 z M 11.96875 40.943359 L 11.96875 51.507812 L 46.160156 51.507812 A 0.56550876 0.56550876 0 0 1 46.669922 52.318359 C 37.552677 71.435774 25.259933 87.498041 9.8125 100.50391 C 11.255466 105.22 12.49875 109.53085 13.589844 113.53125 C 19.899275 107.42585 25.74085 101.24963 31.060547 94.996094 A 0.56550876 0.56550876 0 0 1 32.058594 95.363281 L 32.058594 167.49023 L 42.724609 167.49023 L 42.724609 105.0293 A 0.56550876 0.56550876 0 0 1 43.664062 104.60547 C 49.047028 109.3514 54.53487 114.46966 60.117188 119.93164 L 66.896484 110.67188 C 62.109285 107.10658 57.366904 103.58649 52.679688 100.12305 A 0.56550876 0.56550876 0 0 1 52.582031 99.304688 C 57.655716 93.238922 62.51188 87.340916 67.181641 81.583984 L 58.292969 75.304688 C 54.587208 81.951815 50.493851 88.376684 45.980469 94.560547 A 0.56550876 0.56550876 0 0 1 45.191406 94.683594 L 42.958984 93.058594 A 0.56550876 0.56550876 0 0 1 42.724609 92.601562 L 42.724609 80.175781 A 0.56550876 0.56550876 0 0 1 42.828125 79.851562 C 49.269821 70.65284 54.651756 61.29522 58.986328 51.78125 L 58.986328 40.943359 L 11.96875 40.943359 z "
     d="m 35.794922,6.84375 -10.316406,5.181641 a 1.6421076,1.6421076 0 0 0 -0.683594,2.291015 c 3.840221,6.621659 7.68423,13.885824 11.529297,21.794922 a 1.6421076,1.6421076 0 0 0 2.222656,0.744141 l 11.080078,-5.646485 a 1.6421076,1.6421076 0 0 0 0.689453,-2.257812 C 46.239393,21.591961 42.114735,14.430022 37.939453,7.4667969 A 1.6421076,1.6421076 0 0 0 35.794922,6.84375 Z M 11.96875,39.300781 a 1.6421076,1.6421076 0 0 0 -1.642578,1.642578 v 10.564453 a 1.6421076,1.6421076 0 0 0 1.642578,1.642579 H 44.357422 C 35.416915,71.370225 23.59087,86.757803 8.7558594,99.248047 a 1.6421076,1.6421076 0 0 0 -0.5136719,1.736333 c 1.4382658,4.70072 2.6771025,8.9947 3.7636715,12.97851 a 1.6421076,1.6421076 0 0 0 2.726563,0.74805 c 5.629574,-5.44753 10.824856,-10.96551 15.683594,-16.539065 v 69.318355 a 1.6421076,1.6421076 0 0 0 1.642578,1.64258 h 10.666015 a 1.6421076,1.6421076 0 0 0 1.642578,-1.64258 v -59.98632 c 4.795054,4.28158 9.644514,8.75137 14.601563,13.60156 a 1.6421076,1.6421076 0 0 0 2.472656,-0.20313 l 6.779297,-9.25976 a 1.6421076,1.6421076 0 0 0 -0.34375,-2.28711 c -4.482052,-3.33804 -8.91504,-6.62717 -13.310547,-9.876954 4.806808,-5.755385 9.44736,-11.38167 13.890625,-16.859375 a 1.6421076,1.6421076 0 0 0 -0.328125,-2.376954 l -8.888672,-6.279296 a 1.6421076,1.6421076 0 0 0 -2.380859,0.542968 c -3.500193,6.278393 -7.374462,12.338018 -11.597656,18.197266 l -0.894532,-0.650391 v -11.5625 C 50.769773,71.311369 56.148951,61.970157 60.480469,52.462891 A 1.6421076,1.6421076 0 0 0 60.628906,51.78125 V 40.943359 a 1.6421076,1.6421076 0 0 0 -1.642578,-1.642578 z" />
</svg>
