<?xml version="1.0" encoding="UTF-8" standalone="no"?>
<!-- Created with Inkscape (http://www.inkscape.org/) -->

<svg
   width="180"
   height="180"
   viewBox="0 0 180 180"
   version="1.1"
   id="svg1"
   sodipodi:docname="z.svg"
   inkscape:version="1.4.2 (f4327f4, 2025-05-13)"
   xmlns:inkscape="http://www.inkscape.org/namespaces/inkscape"
   xmlns:sodipodi="http://sodipodi.sourceforge.net/DTD/sodipodi-0.dtd"
   xmlns="http://www.w3.org/2000/svg"
   xmlns:svg="http://www.w3.org/2000/svg">
  <sodipodi:namedview
     id="namedview1"
     pagecolor="#ffffff"
     bordercolor="#000000"
     borderopacity="0.25"
     inkscape:showpageshadow="2"
     inkscape:pageopacity="0.0"
     inkscape:pagecheckerboard="0"
     inkscape:deskcolor="#d1d1d1"
     inkscape:zoom="4.9968879"
     inkscape:cx="29.418311"
     inkscape:cy="107.66701"
     inkscape:window-width="2560"
     inkscape:window-height="1566"
     inkscape:window-x="-11"
     inkscape:window-y="-11"
     inkscape:window-maximized="1"
     inkscape:current-layer="svg1" />
  <defs
     id="defs1" />
  <path
     id="text3"
     style="font-size:64px;font-family:'Microsoft YaHei';-inkscape-font-specification:'Microsoft YaHei';display:none;stroke-width:2.84296"
     d="m 8.6757812,21.591797 c 15.0156248,0 30.0312498,0 45.0468748,0 0,11.046224 0,22.092448 0,33.138672 -13.492187,0 -26.984375,0 -40.476562,0 -1.63737,16.42513 -3.2747398,32.85026 -4.9121096,49.275391 14.4303386,0 28.8606766,0 43.2910156,0 -0.634592,13.16184 -1.310443,26.34793 -3.140974,39.40715 -0.460842,4.00693 -2.035569,8.12511 -5.329187,10.64162 -3.338054,2.63798 -7.765066,3.23155 -11.896575,3.07492 -6.914055,-0.0935 -13.815869,-0.58637 -20.70553,-1.14322 0.826672,3.47264 1.573179,6.96526 2.208985,10.47851 7.937461,0.21858 15.877232,0.49804 23.818359,0.44727 5.251982,-0.16168 10.75076,-1.50133 14.726247,-5.11952 4.083334,-3.67268 6.030404,-9.1042 6.853008,-14.40901 0.572511,-4.06697 0.709124,-8.18001 1.071638,-12.26862 0.936223,-12.93755 1.787141,-25.87376 2.626451,-38.83371 -14.36849,0 -28.736979,0 -43.105469,0 1.110496,-11.275803 2.214862,-22.55221 3.324219,-33.828125 10.548828,0 21.097656,0 31.646484,0 0,1.781901 0,3.563802 0,5.345703 3.183594,0 6.367188,0 9.550782,0 0,-17.977213 -10e-7,-35.954427 0,-53.93164 -18.199219,-1e-6 -36.398438,0 -54.5976568,0 1e-7,2.574869 0,5.149739 0,7.724609 z" />
  <path
     id="text4"
     style="font-size:64px;font-family:'Microsoft YaHei';-inkscape-font-specification:'Microsoft YaHei';display:none;stroke-width:1.9079"
     d="m 72.539062,41.898438 c 3.102214,-10e-7 6.204428,0 9.306641,0 0,-6.601563 0,-13.203126 0,-19.804688 27.373697,0 54.747397,0 82.121097,0 0,6.601563 0,13.203125 0,19.804688 3.10156,0 6.20312,-10e-7 9.30468,0 0,-9.697917 0,-19.395834 0,-29.09375 -33.57747,-1e-6 -67.15494,0 -100.732418,0 0,9.697916 10e-7,19.395833 0,29.09375 z" />
  <path
     id="text5"
     style="font-size:64px;font-family:'Microsoft YaHei';-inkscape-font-specification:'Microsoft YaHei';display:none;stroke-width:1.94576"
     d="m 70.886719,167.40234 c 3.481771,0 6.963541,0 10.445312,0 0,-2.95703 0,-5.91406 0,-8.87109 27.369139,0 54.738279,0 82.107419,0 0,2.95703 0,5.91406 0,8.87109 3.48177,0 6.96354,0 10.44532,0 0,-37.41145 0,-74.822913 0,-112.234371 -34.33269,0 -68.66537,0 -102.998051,0 0,37.411458 0,74.822921 0,112.234371 z M 83.332031,64.53125 c 26.702479,0 53.404949,0 80.107419,0 0,28.21224 0,56.42448 0,84.63672 -27.36914,0 -54.73828,0 -82.107419,0 0,-28.21224 0,-56.42448 0,-84.63672 0.666667,0 1.333334,0 2,0 z" />
  <path
     id="text6"
     style="font-size:64px;font-family:'Microsoft YaHei';-inkscape-font-specification:'Microsoft YaHei';display:none;stroke-width:1.07973"
     d="M 118.87109,70.869141 A 1.8894275,1.8894275 0 0 0 116.98242,72.75 c -0.0117,2.732445 -0.0234,5.464913 -0.0352,8.197266 -0.0219,2.842172 -0.0651,5.687599 -0.10743,8.535156 H 90.164062 a 1.8894275,1.8894275 0 0 0 -1.888671,1.888672 v 4.904297 a 1.8894275,1.8894275 0 0 0 1.888671,1.888671 h 26.197268 c -0.43232,3.002898 -0.98682,5.948328 -2.00586,8.687498 a 1.8894275,1.8894275 0 0 0 -0.0117,0.0332 c -2.23437,6.38279 -6.31958,12.08688 -11.46094,16.54687 a 1.8894275,1.8894275 0 0 0 -0.008,0.008 c -4.316178,3.78675 -9.320294,6.80538 -14.59375,9.27149 a 1.8894275,1.8894275 0 0 0 -0.675781,2.89062 c 1.287282,1.61147 2.558253,3.21566 3.771484,4.84375 a 1.8894275,1.8894275 0 0 0 2.410156,0.53516 c 8.610581,-4.63 16.773901,-10.73384 22.511721,-19.00977 l 0.002,-0.004 c 2.32671,-3.28609 4.04567,-6.89191 5.46485,-10.57227 1.16961,2.92261 2.42446,5.85831 4.17578,8.66016 4.18337,6.99296 10.22167,12.80814 17.32421,16.77539 0.71086,0.4046 1.6638,0.91882 2.50782,1.33789 h -0.004 c 1.07539,0.53665 2.17394,1.05414 3.30078,1.5332 a 1.8894275,1.8894275 0 0 0 2.21289,-0.55664 c 1.39329,-1.73989 2.95342,-3.39016 4.57422,-5.0293 a 1.8894275,1.8894275 0 0 0 -0.74414,-3.11914 c -8.27766,-2.77216 -15.97445,-7.63749 -21.1582,-14.56054 a 1.8894275,1.8894275 0 0 0 -0.01,-0.0137 c -4.03128,-5.27795 -6.51508,-11.65892 -7.9082,-18.257818 h 27.24609 a 1.8894275,1.8894275 0 0 0 1.88867,-1.888671 v -4.904297 a 1.8894275,1.8894275 0 0 0 -1.88867,-1.888672 h -27.5 c 0.0827,-5.572415 0.14505,-11.146253 0.14844,-16.722656 a 1.8894275,1.8894275 0 0 0 -1.88867,-1.890625 z" />
  <path
     id="text9"
     style="font-size:64px;font-family:'Microsoft YaHei';-inkscape-font-specification:'Microsoft YaHei';display:none;stroke-width:2.64129"
     d="M 51.001953,11.090821 C 40.514935,27.70329 26.955255,42.236691 11.550781,54.258407 c 1.637448,2.951216 3.222362,5.932836 4.712891,8.963003 C 33.151331,49.210033 48.201048,32.87293 60.457031,14.559733 57.647786,12.855602 54.838542,11.151471 52.029297,9.4473401 51.686849,9.9951665 51.344401,10.542994 51.001953,11.090821 Z M 55.259766,50.49877 C 44.53892,69.327964 31.784461,87.198238 15.837464,101.85991 c -1.705276,1.56238 -3.442365,3.08998 -5.22223,4.56469 1.466476,3.07286 2.838474,6.19222 4.111328,9.35261 7.094142,-6.36371 13.717984,-13.24417 20.044718,-20.384563 0.619209,-0.686183 1.238418,-1.372364 1.857626,-2.058547 0,24.44983 0,48.89966 0,73.34949 3.250651,0 6.501302,0 9.751953,0 0,-28.58128 0,-57.16255 0,-85.743831 6.235952,-8.34695 12.017682,-17.040465 17.316407,-26.026729 -2.710287,-1.653369 -5.420573,-3.30674 -8.13086,-4.960109 -0.102213,0.181949 -0.204427,0.3639 -0.30664,0.545849 z" />
  <path
     id="text10"
     style="font-size:64px;font-family:'Microsoft YaHei';-inkscape-font-specification:'Microsoft YaHei';display:inline;stroke-width:1.83854"
     sodipodi:type="inkscape:offset"
     inkscape:radius="1.6009965"
     inkscape:original="M 12.734375 12.345703 L 12.734375 23.242188 L 54.771484 23.242188 C 55.360338 23.24215 55.742261 23.863168 55.476562 24.388672 C 40.259948 54.407425 27.223885 84.541831 16.369141 110.79297 C 12.079621 121.58004 9.9414062 128.04039 9.9414062 138.18555 C 9.9414062 146.44133 11.686032 152.61464 14.582031 156.74023 C 17.478031 160.86583 21.496381 162.9966 26.326172 163.23047 C 36.222628 163.23147 53.444201 163.91489 65.298828 163.82617 L 65.476562 152.16016 C 54.926493 152.15316 36.361107 151.17985 27.181641 150.70117 L 27.177734 150.70117 C 23.822722 150.50734 21.567967 149.07013 20.376953 146.58984 C 19.185939 144.10956 18.921875 140.72502 18.921875 136.35352 C 18.921875 130.45641 20.662066 127.34908 24.097656 118.98438 C 34.649091 93.38041 47.201299 62.686489 65.712891 26.943359 L 65.712891 12.345703 L 12.734375 12.345703 z "
     d="m 12.734375,10.744141 a 1.6011566,1.6011566 0 0 0 -1.601562,1.601562 v 10.896484 a 1.6011566,1.6011566 0 0 0 1.601562,1.601563 H 53.470703 C 38.48193,54.526768 25.608735,84.256215 14.888672,110.18164 a 1.6011566,1.6011566 0 0 0 -0.0078,0.0195 c -4.303119,10.82127 -6.5410153,17.61426 -6.5410152,27.98438 0,8.48133 1.7778652,14.98179 4.9316402,19.47461 3.147189,4.48344 7.720395,6.9154 12.976563,7.16992 a 1.6011566,1.6011566 0 0 0 0.07813,0.002 c 9.822937,9.9e-4 27.056618,0.68497 38.984375,0.5957 a 1.6011566,1.6011566 0 0 0 1.589844,-1.57812 l 0.177734,-11.66602 a 1.6011566,1.6011566 0 0 0 -1.599609,-1.625 c -10.452848,-0.007 -29.032825,-0.97832 -38.212891,-1.45703 a 1.6011566,1.6011566 0 0 0 -0.0039,0 c -2.9349,-0.17171 -4.488302,-1.22023 -5.441407,-3.20508 -0.98497,-2.05119 -1.296874,-5.23594 -1.296875,-9.54296 0,-5.58166 1.60049,-8.34997 5.054688,-16.75977 v -0.002 C 36.130745,93.984943 48.659751,63.352193 67.134766,27.679687 a 1.6011566,1.6011566 0 0 0 0.179687,-0.736328 V 12.345703 a 1.6011566,1.6011566 0 0 0 -1.601562,-1.601562 z" />
  <path
     d="M 10.649783,11.50425 H 58.998821 V 22.379338 H 21.643305 V 156.99896 H 60.11502 v 10.87509 H 10.649783 Z"
     id="text11"
     style="font-size:64px;font-family:'Microsoft YaHei';-inkscape-font-specification:'Microsoft YaHei';display:none;stroke-width:1.65172"
     aria-label="匚" />
  <path
     id="text12"
     style="font-size:64px;font-family:'Microsoft YaHei';-inkscape-font-specification:'Microsoft YaHei';display:none;stroke-width:2.74689"
     d="M 40.808594,11.861328 C 29.982748,38.038282 19.521518,58.241524 9.3671875,72.46875 l 2.7597655,10.251953 c 8.393352,-0.770617 16.742326,-1.424581 25.033203,-1.927734 a 1.3334088,1.3334088 0 0 1 1.22461,2.015625 C 29.359269,97.873396 20.764377,110.0698 12.5625,119.48047 l 2.308594,11.23828 c 21.652851,-3.72363 37.527231,-6.34872 47.441406,-7.8457 0.288567,-3.68707 0.706486,-7.24438 1.207031,-10.7168 -12.102402,2.18749 -23.51996,4.10712 -34.001953,5.66211 a 1.3334088,1.3334088 0 0 1 -1.291016,-2.07813 C 40.658094,97.804285 53.261583,77.844782 66.025391,55.970703 L 55.992187,50.761719 C 52.278024,58.00346 48.625924,64.902365 45.060547,71.3125 a 1.3334088,1.3334088 0 0 1 -1.128906,0.683594 c -6.236498,0.175033 -13.171397,0.34845 -20.810547,0.523437 A 1.3334088,1.3334088 0 0 1 21.957031,70.484375 C 29.511895,58.318598 39.264868,40.050871 51.0625,16.066406 Z M 62.291016,144.65625 c -17.731787,4.82147 -35.414168,9.18207 -53.0468754,13.06641 l 2.9785154,10.83007 c 13.412841,-4.14988 29.930701,-8.60669 49.667969,-13.38671 0.02089,-3.35123 0.170673,-6.87563 0.400391,-10.50977 z" />
</svg>
