<?xml version="1.0" encoding="UTF-8" standalone="no"?>
<!-- Created with Inkscape (http://www.inkscape.org/) -->

<svg
   width="180"
   height="180"
   viewBox="0 0 180 180"
   version="1.1"
   id="svg1"
   sodipodi:docname="zh.svg"
   inkscape:version="1.4.2 (f4327f4, 2025-05-13)"
   xmlns:inkscape="http://www.inkscape.org/namespaces/inkscape"
   xmlns:sodipodi="http://sodipodi.sourceforge.net/DTD/sodipodi-0.dtd"
   xmlns="http://www.w3.org/2000/svg"
   xmlns:svg="http://www.w3.org/2000/svg">
  <sodipodi:namedview
     id="namedview1"
     pagecolor="#ffffff"
     bordercolor="#000000"
     borderopacity="0.25"
     inkscape:showpageshadow="2"
     inkscape:pageopacity="0.0"
     inkscape:pagecheckerboard="0"
     inkscape:deskcolor="#d1d1d1"
     inkscape:zoom="7.0666667"
     inkscape:cx="37.924528"
     inkscape:cy="88.584906"
     inkscape:window-width="2560"
     inkscape:window-height="1566"
     inkscape:window-x="-11"
     inkscape:window-y="-11"
     inkscape:window-maximized="1"
     inkscape:current-layer="svg1" />
  <defs
     id="defs1" />
  <path
     id="text3"
     style="font-size:64px;font-family:'Microsoft YaHei';-inkscape-font-specification:'Microsoft YaHei';display:inline;stroke-width:2.84296"
     sodipodi:type="inkscape:offset"
     inkscape:radius="1.4150944"
     inkscape:original="M 8.6757812 13.867188 L 8.6757812 21.591797 L 53.722656 21.591797 L 53.722656 54.730469 L 13.246094 54.730469 L 8.3339844 104.00586 L 51.625 104.00586 C 50.990408 117.1677 50.314906 130.35289 48.484375 143.41211 C 48.023533 147.41904 46.447915 151.53818 43.154297 154.05469 C 39.816243 156.69267 35.389321 157.28554 31.257812 157.12891 C 24.343757 157.03541 17.442395 156.54318 10.552734 155.98633 C 11.379406 159.45897 12.125913 162.95159 12.761719 166.46484 C 20.69918 166.68342 28.638951 166.96288 36.580078 166.91211 C 41.83206 166.75043 47.331154 165.41116 51.306641 161.79297 C 55.389975 158.12029 57.337552 152.68762 58.160156 147.38281 C 58.732667 143.31584 58.867955 139.20384 59.230469 135.11523 C 60.166692 122.17768 61.018112 109.2412 61.857422 96.28125 L 18.751953 96.28125 C 19.862449 85.005447 20.966815 73.72904 22.076172 62.453125 L 53.722656 62.453125 L 53.722656 67.798828 L 63.273438 67.798828 L 63.273438 13.867188 L 8.6757812 13.867188 z "
     d="m 8.6757813,12.451172 a 1.4152359,1.4152359 0 0 0 -1.4160157,1.416016 v 7.724609 a 1.4152359,1.4152359 0 0 0 1.4160157,1.416015 H 52.306641 V 53.314453 H 13.246094 a 1.4152359,1.4152359 0 0 0 -1.408203,1.275391 L 6.9257812,103.86523 a 1.4152359,1.4152359 0 0 0 1.4082032,1.55665 H 50.126953 c -0.615014,12.66198 -1.294428,25.30474 -3.044922,37.79296 a 1.4152359,1.4152359 0 0 0 -0.0039,0.0352 c -0.431587,3.75257 -1.908531,7.48328 -4.783203,9.67969 a 1.4152359,1.4152359 0 0 0 -0.01758,0.0156 c -2.941461,2.32456 -7.008614,2.91959 -10.966797,2.76953 a 1.4152359,1.4152359 0 0 0 -0.0332,0 c -6.859642,-0.0928 -13.730558,-0.58254 -20.611328,-1.13867 a 1.4152359,1.4152359 0 0 0 -1.4902347,1.73828 c 0.8216158,3.4514 1.5628517,6.91838 2.1933597,10.40235 a 1.4152359,1.4152359 0 0 0 1.353515,1.16211 c 7.930241,0.21838 15.886833,0.50024 23.867188,0.44921 a 1.4152359,1.4152359 0 0 0 0.0332,-0.002 c 5.460979,-0.16811 11.307625,-1.54738 15.634765,-5.48437 4.429958,-3.98693 6.449036,-9.74945 7.300782,-15.24219 a 1.4152359,1.4152359 0 0 0 0.002,-0.0195 c 0.586575,-4.16688 0.7222,-8.30353 1.080078,-12.33985 a 1.4152359,1.4152359 0 0 0 0.002,-0.0234 c 0.936667,-12.94368 1.787579,-25.88282 2.626953,-38.843753 A 1.4152359,1.4152359 0 0 0 61.857422,94.865234 H 20.3125 c 1.017078,-10.332321 2.030754,-20.664463 3.046875,-30.996093 h 28.947266 v 3.929687 a 1.4152359,1.4152359 0 0 0 1.416015,1.416016 h 9.550781 a 1.4152359,1.4152359 0 0 0 1.416016,-1.416016 v -53.93164 a 1.4152359,1.4152359 0 0 0 -1.416016,-1.416016 z" />
</svg>
