<?xml version="1.0" encoding="UTF-8" standalone="no"?>
<!-- Created with Inkscape (http://www.inkscape.org/) -->

<svg
   width="180"
   height="180"
   viewBox="0 0 180 180"
   version="1.1"
   id="svg1"
   sodipodi:docname="v.svg"
   inkscape:version="1.4.2 (f4327f4, 2025-05-13)"
   xmlns:inkscape="http://www.inkscape.org/namespaces/inkscape"
   xmlns:sodipodi="http://sodipodi.sourceforge.net/DTD/sodipodi-0.dtd"
   xmlns="http://www.w3.org/2000/svg"
   xmlns:svg="http://www.w3.org/2000/svg">
  <sodipodi:namedview
     id="namedview1"
     pagecolor="#ffffff"
     bordercolor="#000000"
     borderopacity="0.25"
     inkscape:showpageshadow="2"
     inkscape:pageopacity="0.0"
     inkscape:pagecheckerboard="0"
     inkscape:deskcolor="#d1d1d1"
     inkscape:zoom="7.0666667"
     inkscape:cx="90"
     inkscape:cy="90"
     inkscape:window-width="2560"
     inkscape:window-height="1566"
     inkscape:window-x="-11"
     inkscape:window-y="-11"
     inkscape:window-maximized="1"
     inkscape:current-layer="svg1" />
  <defs
     id="defs1" />
  <path
     d="M 71.950642,20.175612 H 120.0653 c -1.69795,-3.268618 -3.82039,-6.950516 -6.36731,-11.0456762 l 8.19444,-4.0575957 c 3.02677,4.4332924 5.64753,8.7914569 7.86224,13.0744739 l -4.04185,2.028798 h 46.67509 v 21.865931 h -9.08033 V 28.741647 H 81.030968 v 13.299896 h -9.080326 z m 31.656888,10.889084 6.5334,6.424526 C 95.819131,48.910596 98.346282,48.040543 85.722414,55.254046 83.433871,52.173286 81.219156,49.731208 79.078273,47.927832 93.547741,40.413761 91.057494,41.584382 103.60753,31.064696 Z m 36.45907,0.112711 c 15.50299,9.392576 12.97584,8.07168 24.41853,16.412292 l -6.31194,7.777058 c -11.1474,-8.866603 -8.28802,-7.958968 -23.42189,-17.652113 z"
     id="text25"
     style="font-size:64px;font-family:'Microsoft YaHei';-inkscape-font-specification:'Microsoft YaHei';display:inline;stroke-width:1.78751"
     aria-label="空" />
</svg>
