<?xml version="1.0" encoding="UTF-8" standalone="no"?>
<!-- Created with Inkscape (http://www.inkscape.org/) -->

<svg
   width="180"
   height="180"
   viewBox="0 0 180 180"
   version="1.1"
   id="svg1"
   xmlns="http://www.w3.org/2000/svg"
   xmlns:svg="http://www.w3.org/2000/svg">
  <defs
     id="defs1" />
  <path
     id="text5"
     style="font-size:64px;font-family:'Microsoft YaHei';-inkscape-font-specification:'Microsoft YaHei';display:none;stroke-width:1.94576"
     d="m 70.886719,167.40234 c 3.481771,0 6.963541,0 10.445312,0 0,-2.95703 0,-5.91406 0,-8.87109 27.369139,0 54.738279,0 82.107419,0 0,2.95703 0,5.91406 0,8.87109 3.48177,0 6.96354,0 10.44532,0 0,-37.41145 0,-74.822913 0,-112.234371 -34.33269,0 -68.66537,0 -102.998051,0 0,37.411458 0,74.822921 0,112.234371 z M 83.332031,64.53125 c 26.702479,0 53.404949,0 80.107419,0 0,28.21224 0,56.42448 0,84.63672 -27.36914,0 -54.73828,0 -82.107419,0 0,-28.21224 0,-56.42448 0,-84.63672 0.666667,0 1.333334,0 2,0 z" />
  <path
     id="text6"
     style="font-size:64px;font-family:'Microsoft YaHei';-inkscape-font-specification:'Microsoft YaHei';display:none;stroke-width:1.07973"
     d="M 118.87109,70.869141 A 1.8894275,1.8894275 0 0 0 116.98242,72.75 c -0.0117,2.732445 -0.0234,5.464913 -0.0352,8.197266 -0.0219,2.842172 -0.0651,5.687599 -0.10743,8.535156 H 90.164062 a 1.8894275,1.8894275 0 0 0 -1.888671,1.888672 v 4.904297 a 1.8894275,1.8894275 0 0 0 1.888671,1.888671 h 26.197268 c -0.43232,3.002898 -0.98682,5.948328 -2.00586,8.687498 a 1.8894275,1.8894275 0 0 0 -0.0117,0.0332 c -2.23437,6.38279 -6.31958,12.08688 -11.46094,16.54687 a 1.8894275,1.8894275 0 0 0 -0.008,0.008 c -4.316178,3.78675 -9.320294,6.80538 -14.59375,9.27149 a 1.8894275,1.8894275 0 0 0 -0.675781,2.89062 c 1.287282,1.61147 2.558253,3.21566 3.771484,4.84375 a 1.8894275,1.8894275 0 0 0 2.410156,0.53516 c 8.610581,-4.63 16.773901,-10.73384 22.511721,-19.00977 l 0.002,-0.004 c 2.32671,-3.28609 4.04567,-6.89191 5.46485,-10.57227 1.16961,2.92261 2.42446,5.85831 4.17578,8.66016 4.18337,6.99296 10.22167,12.80814 17.32421,16.77539 0.71086,0.4046 1.6638,0.91882 2.50782,1.33789 h -0.004 c 1.07539,0.53665 2.17394,1.05414 3.30078,1.5332 a 1.8894275,1.8894275 0 0 0 2.21289,-0.55664 c 1.39329,-1.73989 2.95342,-3.39016 4.57422,-5.0293 a 1.8894275,1.8894275 0 0 0 -0.74414,-3.11914 c -8.27766,-2.77216 -15.97445,-7.63749 -21.1582,-14.56054 a 1.8894275,1.8894275 0 0 0 -0.01,-0.0137 c -4.03128,-5.27795 -6.51508,-11.65892 -7.9082,-18.257818 h 27.24609 a 1.8894275,1.8894275 0 0 0 1.88867,-1.888671 v -4.904297 a 1.8894275,1.8894275 0 0 0 -1.88867,-1.888672 h -27.5 c 0.0827,-5.572415 0.14505,-11.146253 0.14844,-16.722656 a 1.8894275,1.8894275 0 0 0 -1.88867,-1.890625 z" />
  <path
     id="text27"
     style="font-size:78.8961px;font-family:'Microsoft YaHei';-inkscape-font-specification:'Microsoft YaHei';text-align:start;writing-mode:lr-tb;direction:ltr;text-anchor:start;display:none;fill:#000000;stroke-width:1.23275"
     d="m 92.761719,72.046875 a 0.88397145,0.88397145 0 0 0 -0.884766,0.884766 v 0.08008 67.552729 a 0.88397145,0.88397145 0 0 0 0.884766,0.88477 h 6.216797 a 0.88397145,0.88397145 0 0 0 0.884765,-0.88477 v -6.88672 h 44.460939 v 6.88672 a 0.88397145,0.88397145 0 0 0 0.88476,0.88477 h 6.2168 a 0.88397145,0.88397145 0 0 0 0.88477,-0.88477 V 72.931641 a 0.88397145,0.88397145 0 0 0 -0.88477,-0.884766 z m 7.101562,7.9375 h 1.115239 43.3457 V 125.73633 H 99.863281 Z" />
  <path
     d="m 91.383142,122.47406 h 50.743318 v -13.805 H 94.395154 V 98.765455 H 142.12646 V 85.26055 H 92.286745 V 75.056845 h 59.411945 v 63.623105 h -9.57223 v -6.00218 H 91.383142 Z"
     id="text28"
     style="font-size:64px;font-family:'Microsoft YaHei';-inkscape-font-specification:'Microsoft YaHei';display:none;stroke-width:1.70076"
     aria-label="雪" />
  <path
     d="M 92.312501,130.61308 H 116.77972 V 80.798327 H 95.756866 v -8.454544 h 51.484184 v 8.454544 h -21.14372 v 49.814753 h 24.52765 v 8.29318 H 92.312501 Z"
     id="text29"
     style="font-size:71.4998px;font-family:'Microsoft YaHei';-inkscape-font-specification:'Microsoft YaHei';display:none;stroke-width:1.11718"
     aria-label="工" />
  <path
     id="text30"
     style="font-size:64px;font-family:'Microsoft YaHei';-inkscape-font-specification:'Microsoft YaHei';display:none;stroke-width:1.04889"
     d="m 119.46094,71.029297 c -0.45285,-2.8e-5 -0.8899,0.178965 -1.21094,0.5 -0.32104,0.321038 -0.50003,0.758098 -0.5,1.210937 V 86.087891 H 93.460937 c -0.452844,-2.9e-5 -0.889901,0.178964 -1.210937,0.5 -0.321036,0.321036 -0.500027,0.758095 -0.5,1.210937 v 5.363281 c -2.7e-5,0.452844 0.178964,0.889902 0.5,1.210938 0.321036,0.321036 0.758094,0.500027 1.210937,0.5 H 114.6875 c -6.65262,11.821443 -14.905819,21.648933 -24.898438,29.390623 -0.369777,0.28642 -0.608348,0.71388 -0.65625,1.17969 -0.04756,0.46254 0.09915,0.92319 0.398438,1.27734 a 0.42205945,0.42205945 0 0 0 0.0039,0.0117 c 1.405039,1.63673 2.727622,3.22885 3.964844,4.77149 a 0.42205945,0.42205945 0 0 0 0.002,0 c 0.29012,0.36066 0.714832,0.58989 1.175781,0.63281 0.460778,0.0429 0.918805,-0.10424 1.269532,-0.4043 8.550643,-7.30348 15.749223,-16.57905 21.802733,-27.49804 V 138.75 c -4e-5,0.45286 0.17897,0.8899 0.5,1.21094 0.32103,0.32103 0.75809,0.50002 1.21094,0.5 h 5 c 0.45284,2e-5 0.8899,-0.17896 1.21094,-0.5 0.32102,-0.32104 0.50002,-0.75809 0.5,-1.21094 v -34.15625 c 5.41938,10.20158 12.48234,18.96427 21.41406,26.01367 0.35885,0.2835 0.81718,0.4086 1.26953,0.35352 0.45315,-0.0552 0.86702,-0.2902 1.14648,-0.65039 1.43154,-1.84492 2.79535,-3.4547 4.08399,-4.82813 0.34449,-0.36757 0.51058,-0.87036 0.45117,-1.37109 -0.0594,-0.50092 -0.33936,-0.95141 -0.75977,-1.22852 -10.74443,-7.07153 -18.92148,-16.43078 -24.76757,-28.009763 h 21.45117 c 0.45283,2.3e-5 0.8899,-0.178963 1.21093,-0.5 0.32103,-0.321034 0.50003,-0.758091 0.5,-1.210938 v -5.363281 c 3e-5,-0.452846 -0.17897,-0.889904 -0.5,-1.210937 -0.32103,-0.321037 -0.75809,-0.500025 -1.21093,-0.5 h -24.2891 V 72.740234 c 2e-5,-0.452846 -0.17898,-0.889903 -0.5,-1.210937 -0.32104,-0.321037 -0.7581,-0.500024 -1.21094,-0.5 z" />
  <path
     id="text31"
     style="font-size:77.2164px;font-family:'Microsoft YaHei';-inkscape-font-specification:'Microsoft YaHei';text-align:start;writing-mode:lr-tb;direction:ltr;text-anchor:start;display:none;fill:#000000;stroke-width:1.20651"
     d="m 91.625467,70.884923 a 1.4993843,1.5849341 0 0 0 -1.49885,1.584369 v 68.999348 a 1.4993843,1.5849341 0 0 0 1.49885,1.58436 h 5.719938 a 1.4993843,1.5849341 0 0 0 1.498853,-1.58436 v -3.99808 h 46.435832 v 3.99808 a 1.4993843,1.5849341 0 0 0 1.49884,1.58436 h 5.72185 a 1.4993843,1.5849341 0 0 0 1.49885,-1.58436 V 72.469292 a 1.4993843,1.5849341 0 0 0 -1.49885,-1.584369 z m 7.218791,9.060418 H 117.7024 V 99.258974 H 98.844258 Z m 27.503592,0 h 18.93224 V 99.258974 H 126.34785 Z M 98.844258,108.3214 H 117.7024 v 20.08874 H 98.844258 Z m 27.503592,0 h 18.93224 v 20.08874 h -18.93224 z" />
  <path
     id="text32"
     style="font-size:76.4616px;font-family:'Microsoft YaHei';-inkscape-font-specification:'Microsoft YaHei';display:none;stroke-width:1.19471"
     d="m 151.08131,69.93037 c -16.26338,1.664728 -35.84454,2.890775 -58.731983,3.672255 a 1.3011528,1.4275948 0 0 0 -1.204549,1.835104 c 0.549208,2.008595 0.911807,3.955654 1.092671,5.840829 a 1.3011528,1.4275948 0 0 0 1.340666,1.276594 c 8.785635,-0.34603 16.949925,-0.746687 24.670865,-1.186577 V 93.465534 H 89.753768 a 1.3011528,1.4275948 0 0 0 -1.301509,1.427986 v 5.94517 a 1.3011528,1.4275948 0 0 0 1.301509,1.42798 h 22.946092 c -6.26401,11.89481 -15.136533,21.33668 -26.908423,28.20579 a 1.3011528,1.4275948 0 0 0 -0.350549,2.22176 c 1.922593,2.31522 3.361843,4.25832 4.303556,5.78354 a 1.3011528,1.4275948 0 0 0 1.760207,0.41531 c 12.189959,-8.25533 21.002199,-18.45705 26.744329,-30.34777 v 36.71846 a 1.3011528,1.4275948 0 0 0 1.30151,1.42799 h 5.84561 a 1.3011528,1.4275948 0 0 0 1.3015,-1.42799 V 109.2143 c 5.98871,13.26175 14.83003,22.92998 26.45345,28.81952 a 1.3011528,1.4275948 0 0 0 1.62222,-0.49305 c 1.59064,-2.5665 3.03067,-4.60093 4.29424,-6.08632 a 1.3011528,1.4275948 0 0 0 -0.49599,-2.31178 c -12.01878,-4.92692 -20.76485,-13.90867 -26.61008,-26.876 h 23.37495 a 1.3011528,1.4275948 0 0 0 1.30151,-1.42798 v -5.94517 a 1.3011528,1.4275948 0 0 0 -1.30151,-1.427986 H 126.6976 V 80.818248 c 9.31065,-0.602086 17.88221,-1.245887 25.46706,-1.943534 a 1.3011528,1.4275948 0 0 0 1.17844,-1.638705 l -0.854,-6.100649 a 1.3011528,1.4275948 0 0 0 -1.40779,-1.20499 z" />
  <path
     id="text33"
     style="font-size:64px;font-family:'Microsoft YaHei';-inkscape-font-specification:'Microsoft YaHei';display:none;stroke-width:1.14867"
     d="m 150.02556,69.011607 c -15.79414,1.520042 -34.35058,2.711073 -55.664012,3.573627 a 1.5373916,1.5704754 0 0 0 -1.447972,1.872437 c 0.448738,2.324318 0.806927,4.317059 1.074004,5.971099 a 1.5373916,1.5704754 0 0 0 1.597191,1.311646 c 7.988209,-0.426072 15.475689,-0.849899 22.642519,-1.275892 -0.0167,5.561809 -0.11014,10.764969 -0.28186,15.585451 H 90.293964 a 1.5373916,1.5704754 0 0 0 -1.536398,1.56946 v 5.865715 a 1.5373916,1.5704754 0 0 0 1.536398,1.56946 h 26.247706 c -3.31809,12.56125 -12.40337,22.44901 -27.841213,29.76328 a 1.5373916,1.5704754 0 0 0 -0.589505,2.35983 c 1.801062,2.48434 3.195478,4.43303 4.178117,5.84126 a 1.5373916,1.5704754 0 0 0 1.952735,0.48739 c 14.943736,-7.81576 24.672396,-18.02698 28.939166,-30.50284 5.23691,13.55333 14.73008,23.51019 28.33677,29.5544 a 1.5373916,1.5704754 0 0 0 1.86063,-0.52128 c 1.20652,-1.71077 2.73553,-3.80923 4.57972,-6.29101 a 1.5373916,1.5704754 0 0 0 -0.74057,-2.44075 C 142.74499,128.39237 133.463,119.06134 128.86233,105.05461 h 27.12644 a 1.5373916,1.5704754 0 0 0 1.53639,-1.56946 v -5.865715 a 1.5373916,1.5704754 0 0 0 -1.53639,-1.56946 h -28.95943 c 0.13581,-5.205411 0.19474,-10.566519 0.17132,-16.091668 8.57317,-0.578432 16.61963,-1.174966 23.90995,-1.799044 a 1.5373916,1.5704754 0 0 0 1.39456,-1.780227 l -0.81242,-6.018145 a 1.5373916,1.5704754 0 0 0 -1.66719,-1.349284 z" />
  <path
     id="text34"
     style="font-size:77.0191px;font-family:'Microsoft YaHei';-inkscape-font-specification:'Microsoft YaHei';display:none;stroke-width:1.20342"
     d="m 147.27716,71.164651 a 1.4143531,1.3465773 0 0 0 -1.41519,1.347367 v 70.894032 a 1.4143531,1.3465773 0 0 0 1.41519,1.34737 h 6.24321 a 1.4143531,1.3465773 0 0 0 1.41518,-1.34737 V 72.512018 a 1.4143531,1.3465773 0 0 0 -1.41518,-1.347367 z m -49.797647,0.07432 a 1.4143531,1.3465773 0 0 0 -1.415183,1.347367 v 23.410277 c 0,11.931025 -0.786427,20.679675 -2.265895,26.080245 -1.29e-4,4.7e-4 1.3e-4,9.8e-4 0,0.002 -1.516085,5.34502 -4.957322,10.67492 -10.430722,15.98165 a 1.4143531,1.3465773 0 0 0 -0.04604,1.83905 c 1.688239,1.80217 3.195165,3.45511 4.519779,4.95877 a 1.4143531,1.3465773 0 0 0 2.073734,0.0953 c 6.299992,-5.89813 10.442714,-12.14446 12.320304,-18.72974 1.97174,-6.60274 2.90443,-16.62143 2.90443,-30.227168 V 72.586343 a 1.4143531,1.3465773 0 0 0 -1.41519,-1.347368 z m 24.744697,3.449413 a 1.4143531,1.3465773 0 0 0 -1.41518,1.347368 v 62.527778 a 1.4143531,1.3465773 0 0 0 1.41518,1.34737 h 6.24321 a 1.4143531,1.3465773 0 0 0 1.41519,-1.34737 V 76.035757 a 1.4143531,1.3465773 0 0 0 -1.41519,-1.347368 z" />
  <path
     d="m 91.983477,80.120502 5.557299,-5.940765 c 8.269794,7.696841 16.919984,16.140951 25.950594,25.332327 6.91355,-8.444122 13.54591,-17.635486 19.89712,-27.574126 l 7.24433,5.492406 c -6.94663,10.162821 -13.99248,19.578361 -21.13759,28.246666 8.23672,8.48146 16.77113,17.56075 25.60327,27.23785 l -6.84739,7.8463 c -8.00514,-9.45293 -16.24185,-18.79375 -24.71012,-28.02249 -9.55987,10.94744 -19.28514,20.58718 -29.175813,28.91921 -1.587799,-2.31654 -3.704865,-4.74516 -6.351198,-7.28585 C 98.400835,126.37627 108.27496,117.05414 117.63636,106.4056 109.3335,97.550491 100.78253,88.788787 91.983477,80.120502 Z"
     id="text36"
     style="font-size:64px;font-family:'Microsoft YaHei';-inkscape-font-specification:'Microsoft YaHei';display:none;stroke-width:1.68749"
     aria-label="区" />
  <path
     id="text37"
     style="font-size:73.8891px;font-family:'Microsoft YaHei';-inkscape-font-specification:'Microsoft YaHei';display:none;stroke-width:1.15452"
     d="m 119.81457,70.497547 a 1.6667544,1.7211225 0 0 0 -1.6664,1.720757 V 98.948566 H 87.931946 a 1.6667544,1.7211225 0 0 0 -1.666399,1.720754 v 5.57113 a 1.6667544,1.7211225 0 0 0 1.666399,1.72075 h 24.011914 c -5.42912,9.07082 -13.892335,17.18755 -25.830154,24.20966 a 1.6667544,1.7211225 0 0 0 -0.447832,2.60595 c 1.537908,1.87681 2.761648,3.50049 3.663387,4.85066 a 1.6667544,1.7211225 0 0 0 2.208412,0.51206 c 11.755137,-7.0387 20.539187,-15.90063 26.610497,-26.33927 v 29.54261 a 1.6667544,1.7211225 0 0 0 1.6664,1.72076 h 5.67959 a 1.6667544,1.7211225 0 0 0 1.6664,-1.72076 v -29.9991 c 6.54912,10.57551 15.17748,19.0724 26.08962,25.13653 a 1.6667544,1.7211225 0 0 0 2.20265,-0.60335 c 0.88723,-1.46588 2.12028,-3.16727 3.69221,-5.07693 a 1.6667544,1.7211225 0 0 0 -0.54969,-2.66747 c -10.69089,-5.29027 -18.92572,-12.7305 -25.03443,-22.17135 h 23.31997 a 1.6667544,1.7211225 0 0 0 1.6664,-1.72075 v -5.57113 a 1.6667544,1.7211225 0 0 0 -1.6664,-1.720754 H 127.16056 V 72.218304 a 1.6667544,1.7211225 0 0 0 -1.6664,-1.720757 z m 26.12421,4.279066 a 1.6667544,1.7211225 0 0 0 -1.08979,0.728394 c -3.73581,5.690083 -8.05834,11.268668 -12.97562,16.733208 a 1.6667544,1.7211225 0 0 0 0.11725,2.461058 l 4.25922,3.886089 a 1.6667544,1.7211225 0 0 0 2.31412,-0.107175 c 3.42183,-3.732505 8.09766,-9.422865 14.07694,-17.11626 a 1.6667544,1.7211225 0 0 0 -0.3229,-2.472966 l -5.1126,-3.812655 a 1.6667544,1.7211225 0 0 0 -1.26662,-0.299693 z m -49.055947,0.220304 -4.047791,3.447466 a 1.6667544,1.7211225 0 0 0 -0.205657,2.44518 c 4.710159,5.690639 9.184065,11.475534 13.421535,17.358396 a 1.6667544,1.7211225 0 0 0 2.40637,0.293739 l 4.75703,-4.106394 a 1.6667544,1.7211225 0 0 0 0.19412,-2.441211 C 109.04715,86.756279 104.30835,81.152542 99.191197,75.183482 a 1.6667544,1.7211225 0 0 0 -2.308364,-0.186565 z" />
  <path
     id="text1"
     style="font-style:normal;font-variant:normal;font-weight:normal;font-stretch:normal;font-size:64px;font-family:'Microsoft YaHei';-inkscape-font-specification:'Microsoft YaHei';text-align:start;writing-mode:lr-tb;direction:ltr;text-anchor:start;fill:#000000"
     d="m 95.739903,79.768278 c 0,2.291667 0,4.583333 0,6.875 7.076817,0 14.153637,0 21.230467,0 -0.18097,3.517223 -0.53105,7.032434 -1.13867,10.5 -8.2806,0 -16.561196,0 -24.841797,0 0,2.958332 0,5.916672 0,8.875002 7.539062,0 15.078117,0 22.617187,0 -2.65663,7.57312 -7.52797,14.34658 -13.905056,19.2259 -3.285929,2.60196 -6.991186,4.59212 -10.731662,6.45183 1.989257,2.32464 3.958676,4.67513 5.591404,7.27032 0.259658,0.85426 0.933577,-0.0315 1.434514,-0.19076 8.2551,-4.41335 15.78671,-10.50562 20.91539,-18.41382 2.73029,-4.17423 4.77404,-8.79076 6.07822,-13.60324 0.0199,6.65901 -0.0397,13.31964 0.0295,19.97764 0.11238,3.07969 1.33105,6.35108 4.05057,8.03994 2.39072,1.57088 5.34863,1.62173 8.10742,1.55469 3.48319,-0.0411 6.97174,0.0856 10.45151,-0.0694 3.078,-0.18692 6.35336,-1.45475 7.97833,-4.22562 1.40236,-2.28183 1.35835,-5.05363 1.77524,-7.61707 0.28,-2.34294 0.51532,-4.69062 0.76367,-7.03711 -3.10616,-1.01746 -6.18818,-2.10475 -9.26367,-3.21094 -0.0946,1.79749 -0.18829,3.59501 -0.28125,5.39258 -0.0404,0.60637 -0.12327,1.78343 -0.16602,2.36328 -0.0938,0.95176 -0.16451,1.88833 -0.26539,2.73479 -0.13306,1.08966 -0.13839,2.59119 -1.40258,2.99959 -1.60404,0.44201 -3.29947,0.14539 -4.94258,0.23242 -2.02175,-0.0455 -4.05507,0.0936 -6.06956,-0.0742 -1.14593,-0.0796 -1.67,-1.26324 -1.67743,-2.27907 -0.0588,-6.33919 -0.009,-12.68141 -0.0253,-19.02176 -2.99935,0 -5.9987,0 -8.99805,0 -0.0381,-0.83725 0.91075,-0.39115 1.43281,-0.5 10.25092,0 20.50183,0 30.75274,0 0,-2.95833 0,-5.91667 0,-8.875002 -10.06641,0 -20.13281,0 -30.19922,0 0.54879,-3.479178 0.90082,-6.987086 1.14258,-10.5 8.10221,0 16.20443,0 24.30664,0 0,-2.958333 0,-5.916667 0,-8.875 -18.25,0 -36.5,0 -54.749997,0 0,0.666667 0,1.333333 0,2 z" />
</svg>
