<?xml version="1.0" encoding="UTF-8" standalone="no"?>
<!-- Created with Inkscape (http://www.inkscape.org/) -->

<svg
   width="180"
   height="180"
   viewBox="0 0 180 180"
   version="1.1"
   id="svg1"
   xmlns="http://www.w3.org/2000/svg"
   xmlns:svg="http://www.w3.org/2000/svg">
  <defs
     id="defs1" />
  <path
     id="text5"
     style="font-size:64px;font-family:'Microsoft YaHei';-inkscape-font-specification:'Microsoft YaHei';display:none;stroke-width:1.94576"
     d="m 70.886719,167.40234 c 3.481771,0 6.963541,0 10.445312,0 0,-2.95703 0,-5.91406 0,-8.87109 27.369139,0 54.738279,0 82.107419,0 0,2.95703 0,5.91406 0,8.87109 3.48177,0 6.96354,0 10.44532,0 0,-37.41145 0,-74.822913 0,-112.234371 -34.33269,0 -68.66537,0 -102.998051,0 0,37.411458 0,74.822921 0,112.234371 z M 83.332031,64.53125 c 26.702479,0 53.404949,0 80.107419,0 0,28.21224 0,56.42448 0,84.63672 -27.36914,0 -54.73828,0 -82.107419,0 0,-28.21224 0,-56.42448 0,-84.63672 0.666667,0 1.333334,0 2,0 z" />
  <path
     id="text6"
     style="font-size:64px;font-family:'Microsoft YaHei';-inkscape-font-specification:'Microsoft YaHei';display:none;stroke-width:1.07973"
     d="M 118.87109,70.869141 A 1.8894275,1.8894275 0 0 0 116.98242,72.75 c -0.0117,2.732445 -0.0234,5.464913 -0.0352,8.197266 -0.0219,2.842172 -0.0651,5.687599 -0.10743,8.535156 H 90.164062 a 1.8894275,1.8894275 0 0 0 -1.888671,1.888672 v 4.904297 a 1.8894275,1.8894275 0 0 0 1.888671,1.888671 h 26.197268 c -0.43232,3.002898 -0.98682,5.948328 -2.00586,8.687498 a 1.8894275,1.8894275 0 0 0 -0.0117,0.0332 c -2.23437,6.38279 -6.31958,12.08688 -11.46094,16.54687 a 1.8894275,1.8894275 0 0 0 -0.008,0.008 c -4.316178,3.78675 -9.320294,6.80538 -14.59375,9.27149 a 1.8894275,1.8894275 0 0 0 -0.675781,2.89062 c 1.287282,1.61147 2.558253,3.21566 3.771484,4.84375 a 1.8894275,1.8894275 0 0 0 2.410156,0.53516 c 8.610581,-4.63 16.773901,-10.73384 22.511721,-19.00977 l 0.002,-0.004 c 2.32671,-3.28609 4.04567,-6.89191 5.46485,-10.57227 1.16961,2.92261 2.42446,5.85831 4.17578,8.66016 4.18337,6.99296 10.22167,12.80814 17.32421,16.77539 0.71086,0.4046 1.6638,0.91882 2.50782,1.33789 h -0.004 c 1.07539,0.53665 2.17394,1.05414 3.30078,1.5332 a 1.8894275,1.8894275 0 0 0 2.21289,-0.55664 c 1.39329,-1.73989 2.95342,-3.39016 4.57422,-5.0293 a 1.8894275,1.8894275 0 0 0 -0.74414,-3.11914 c -8.27766,-2.77216 -15.97445,-7.63749 -21.1582,-14.56054 a 1.8894275,1.8894275 0 0 0 -0.01,-0.0137 c -4.03128,-5.27795 -6.51508,-11.65892 -7.9082,-18.257818 h 27.24609 a 1.8894275,1.8894275 0 0 0 1.88867,-1.888671 v -4.904297 a 1.8894275,1.8894275 0 0 0 -1.88867,-1.888672 h -27.5 c 0.0827,-5.572415 0.14505,-11.146253 0.14844,-16.722656 a 1.8894275,1.8894275 0 0 0 -1.88867,-1.890625 z" />
  <path
     id="text27"
     style="font-size:78.8961px;font-family:'Microsoft YaHei';-inkscape-font-specification:'Microsoft YaHei';text-align:start;writing-mode:lr-tb;direction:ltr;text-anchor:start;display:none;fill:#000000;stroke-width:1.23275"
     d="m 92.761719,72.046875 a 0.88397145,0.88397145 0 0 0 -0.884766,0.884766 v 0.08008 67.552731 a 0.88397145,0.88397145 0 0 0 0.884766,0.88477 h 6.216797 a 0.88397145,0.88397145 0 0 0 0.884765,-0.88477 v -6.88672 h 44.460939 v 6.88672 a 0.88397145,0.88397145 0 0 0 0.88476,0.88477 h 6.2168 a 0.88397145,0.88397145 0 0 0 0.88477,-0.88477 V 72.931641 a 0.88397145,0.88397145 0 0 0 -0.88477,-0.884766 z m 7.101562,7.9375 h 1.115239 43.3457 V 125.73633 H 99.863281 Z" />
  <path
     d="m 91.383142,122.47406 h 50.743318 v -13.805 H 94.395154 V 98.765455 H 142.12646 V 85.26055 H 92.286745 V 75.056845 h 59.411945 v 63.623105 h -9.57223 v -6.00218 H 91.383142 Z"
     id="text28"
     style="font-size:64px;font-family:'Microsoft YaHei';-inkscape-font-specification:'Microsoft YaHei';display:none;stroke-width:1.70076"
     aria-label="雪" />
  <path
     d="M 92.312501,130.61308 H 116.77972 V 80.798327 H 95.756866 v -8.454544 h 51.484184 v 8.454544 h -21.14372 v 49.814753 h 24.52765 v 8.29318 H 92.312501 Z"
     id="text29"
     style="font-size:71.4998px;font-family:'Microsoft YaHei';-inkscape-font-specification:'Microsoft YaHei';display:none;stroke-width:1.11718"
     aria-label="工" />
  <path
     id="text30"
     style="font-size:64px;font-family:'Microsoft YaHei';-inkscape-font-specification:'Microsoft YaHei';display:none;stroke-width:1.04889"
     d="m 119.46094,71.029297 c -0.45285,-2.8e-5 -0.8899,0.178965 -1.21094,0.5 -0.32104,0.321038 -0.50003,0.758098 -0.5,1.210937 V 86.087891 H 93.460937 c -0.452844,-2.9e-5 -0.889901,0.178964 -1.210937,0.5 -0.321036,0.321036 -0.500027,0.758095 -0.5,1.210937 v 5.363281 c -2.7e-5,0.452844 0.178964,0.889902 0.5,1.210938 0.321036,0.321036 0.758094,0.500027 1.210937,0.5 H 114.6875 c -6.65262,11.821443 -14.905819,21.648933 -24.898438,29.390623 -0.369777,0.28642 -0.608348,0.71388 -0.65625,1.17969 -0.04756,0.46254 0.09915,0.92319 0.398438,1.27734 a 0.42205945,0.42205945 0 0 0 0.0039,0.0117 c 1.405039,1.63673 2.727622,3.22885 3.964844,4.77149 a 0.42205945,0.42205945 0 0 0 0.002,0 c 0.29012,0.36066 0.714832,0.58989 1.175781,0.63281 0.460778,0.0429 0.918805,-0.10424 1.269532,-0.4043 8.550644,-7.30348 15.749224,-16.57905 21.802734,-27.49804 V 138.75 c -4e-5,0.45286 0.17897,0.8899 0.5,1.21094 0.32103,0.32103 0.75809,0.50002 1.21094,0.5 h 5 c 0.45284,2e-5 0.8899,-0.17896 1.21094,-0.5 0.32102,-0.32104 0.50002,-0.75809 0.5,-1.21094 v -34.15625 c 5.41938,10.20158 12.48234,18.96427 21.41406,26.01367 0.35885,0.2835 0.81718,0.4086 1.26953,0.35352 0.45315,-0.0552 0.86702,-0.2902 1.14648,-0.65039 1.43154,-1.84492 2.79535,-3.4547 4.08399,-4.82813 0.34449,-0.36757 0.51058,-0.87036 0.45117,-1.37109 -0.0594,-0.50092 -0.33936,-0.95141 -0.75977,-1.22852 -10.74443,-7.07153 -18.92148,-16.43078 -24.76757,-28.009763 h 21.45117 c 0.45283,2.3e-5 0.8899,-0.178963 1.21093,-0.5 0.32103,-0.321034 0.50003,-0.758091 0.5,-1.210938 v -5.363281 c 3e-5,-0.452846 -0.17897,-0.889904 -0.5,-1.210937 -0.32103,-0.321037 -0.75809,-0.500025 -1.21093,-0.5 H 126.17188 V 72.740234 c 2e-5,-0.452846 -0.17898,-0.889903 -0.5,-1.210937 -0.32104,-0.321037 -0.7581,-0.500024 -1.21094,-0.5 z" />
  <path
     id="text31"
     style="font-size:77.2164px;font-family:'Microsoft YaHei';-inkscape-font-specification:'Microsoft YaHei';text-align:start;writing-mode:lr-tb;direction:ltr;text-anchor:start;display:none;fill:#000000;stroke-width:1.20651"
     d="m 94.203125,68.945312 a 1.5415658,1.5415658 0 0 0 -1.541016,1.541016 v 67.111332 a 1.5415658,1.5415658 0 0 0 1.541016,1.54101 h 5.880855 a 1.5415658,1.5415658 0 0 0 1.54102,-1.54101 v -3.88868 h 47.74219 v 3.88868 a 1.5415658,1.5415658 0 0 0 1.54101,1.54101 h 5.88282 a 1.5415658,1.5415658 0 0 0 1.54101,-1.54101 V 70.486328 a 1.5415658,1.5415658 0 0 0 -1.54101,-1.541016 z m 7.421875,8.8125 h 19.38867 V 96.542969 H 101.625 Z m 28.27734,0 h 19.46485 V 96.542969 H 129.90234 Z M 101.625,105.35742 h 19.38867 v 19.53906 H 101.625 Z m 28.27734,0 h 19.46485 v 19.53906 h -19.46485 z"
     transform="scale(0.97263723,1.0281326)" />
  <path
     id="text32"
     style="font-size:76.4616px;font-family:'Microsoft YaHei';-inkscape-font-specification:'Microsoft YaHei';display:none;stroke-width:1.19471"
     d="m 158.25195,66.761719 c -17.03527,1.589296 -37.5458,2.759789 -61.519528,3.505859 a 1.3629083,1.3629083 0 0 0 -1.261719,1.751953 c 0.575274,1.917582 0.955083,3.776417 1.144531,5.576172 a 1.3629083,1.3629083 0 0 0 1.404297,1.21875 c 9.202619,-0.330351 17.754409,-0.712854 25.841799,-1.132812 V 89.230469 H 94.013672 a 1.3629083,1.3629083 0 0 0 -1.363281,1.363281 v 5.675781 a 1.3629083,1.3629083 0 0 0 1.363281,1.363281 h 24.035158 c -6.56131,11.355838 -15.85494,20.369878 -28.185549,26.927738 a 1.3629083,1.3629083 0 0 0 -0.367187,2.12109 c 2.013843,2.21032 3.521403,4.06537 4.507812,5.52148 a 1.3629083,1.3629083 0 0 0 1.84375,0.39649 c 12.768524,-7.88126 21.999004,-17.62073 28.013674,-28.97266 v 35.05469 a 1.3629083,1.3629083 0 0 0 1.36328,1.36328 h 6.12305 a 1.3629083,1.3629083 0 0 0 1.36328,-1.36328 v -34.41601 c 6.27294,12.66084 15.53389,21.89099 27.70898,27.51367 a 1.3629083,1.3629083 0 0 0 1.69922,-0.47071 c 1.66613,-2.45021 3.17451,-4.39246 4.49805,-5.81054 a 1.3629083,1.3629083 0 0 0 -0.51953,-2.20703 c -12.58922,-4.70367 -21.75039,-13.27845 -27.87305,-25.658208 h 24.48437 a 1.3629083,1.3629083 0 0 0 1.36329,-1.363281 V 90.59375 a 1.3629083,1.3629083 0 0 0 -1.36329,-1.363281 H 132.71094 V 77.15625 c 9.75255,-0.574804 18.73093,-1.189434 26.67578,-1.855469 a 1.3629083,1.3629083 0 0 0 1.23437,-1.564453 l -0.89453,-5.824219 a 1.3629083,1.3629083 0 0 0 -1.47461,-1.15039 z"
     transform="scale(0.95468846,1.0474621)" />
  <path
     id="text33"
     style="font-size:64px;font-family:'Microsoft YaHei';-inkscape-font-specification:'Microsoft YaHei';display:inline;stroke-width:1.20494"
     d="m 151.65039,67.597656 c -16.74513,1.577616 -36.41888,2.81376 -59.015624,3.708985 A 1.6299603,1.6299603 0 0 0 91.099609,73.25 c 0.475757,2.412356 0.855513,4.480576 1.138672,6.197266 a 1.6299603,1.6299603 0 0 0 1.69336,1.361328 c 8.469189,-0.442211 16.407509,-0.882091 24.005859,-1.324219 -0.0177,5.772473 -0.11677,11.172713 -0.29883,16.175781 H 88.322266 a 1.6299603,1.6299603 0 0 0 -1.628907,1.628906 v 6.087888 a 1.6299603,1.6299603 0 0 0 1.628907,1.62891 h 27.828124 c -3.51788,13.03703 -13.1502,23.29931 -29.517578,30.89062 a 1.6299603,1.6299603 0 0 0 -0.625,2.44922 c 1.909507,2.57843 3.387883,4.60094 4.429688,6.0625 a 1.6299603,1.6299603 0 0 0 2.070312,0.50586 c 15.843518,-8.1118 26.157958,-18.70979 30.681638,-31.6582 5.55223,14.06669 15.617,24.40068 30.04297,30.67383 a 1.6299603,1.6299603 0 0 0 1.97266,-0.54102 c 1.27917,-1.77557 2.90024,-3.95352 4.85547,-6.5293 a 1.6299603,1.6299603 0 0 0 -0.78516,-2.5332 c -15.34394,-5.09859 -25.18481,-14.78305 -30.0625,-29.32031 h 28.75977 a 1.6299603,1.6299603 0 0 0 1.6289,-1.62891 v -6.087888 a 1.6299603,1.6299603 0 0 0 -1.6289,-1.628906 h -30.70313 c 0.14399,-5.402577 0.20647,-10.966747 0.18164,-16.701172 9.08937,-0.600341 17.62032,-1.21947 25.34961,-1.867187 a 1.6299603,1.6299603 0 0 0 1.47852,-1.847656 l -0.86133,-6.246094 a 1.6299603,1.6299603 0 0 0 -1.76758,-1.400391 z"
     transform="matrix(0.94320801,0,0,0.96350533,6.9876949,3.8809053)" />
</svg>
