<?xml version="1.0" encoding="UTF-8" standalone="no"?>
<!-- Created with Inkscape (http://www.inkscape.org/) -->

<svg
   width="180"
   height="180"
   viewBox="0 0 180 180"
   version="1.1"
   id="svg1"
   sodipodi:docname="n.svg"
   inkscape:version="1.4.2 (f4327f4, 2025-05-13)"
   xmlns:inkscape="http://www.inkscape.org/namespaces/inkscape"
   xmlns:sodipodi="http://sodipodi.sourceforge.net/DTD/sodipodi-0.dtd"
   xmlns="http://www.w3.org/2000/svg"
   xmlns:svg="http://www.w3.org/2000/svg">
  <sodipodi:namedview
     id="namedview1"
     pagecolor="#ffffff"
     bordercolor="#000000"
     borderopacity="0.25"
     inkscape:showpageshadow="2"
     inkscape:pageopacity="0.0"
     inkscape:pagecheckerboard="0"
     inkscape:deskcolor="#d1d1d1"
     inkscape:zoom="3.5333333"
     inkscape:cx="207.31132"
     inkscape:cy="83.207547"
     inkscape:window-width="2560"
     inkscape:window-height="1566"
     inkscape:window-x="-11"
     inkscape:window-y="-11"
     inkscape:window-maximized="1"
     inkscape:current-layer="svg1" />
  <defs
     id="defs1" />
  <g
     id="g1"
     style="display:none"
     transform="matrix(1.0186137,0,0,1.0343716,-2.6002181,-0.44011815)">
    <path
       id="text4"
       style="font-size:64px;font-family:'Microsoft YaHei';-inkscape-font-specification:'Microsoft YaHei';display:inline;stroke-width:1.9079"
       d="m 72.539062,41.898438 c 3.102214,-10e-7 6.204428,0 9.306641,0 0,-6.601563 0,-13.203126 0,-19.804688 27.373697,0 54.747397,0 82.121097,0 0,6.601563 0,13.203125 0,19.804688 3.10156,0 6.20312,-10e-7 9.30468,0 0,-9.697917 0,-19.395834 0,-29.09375 -33.57747,-1e-6 -67.15494,0 -100.732418,0 0,9.697916 10e-7,19.395833 0,29.09375 z" />
  </g>
  <path
     id="text5"
     style="font-size:64px;font-family:'Microsoft YaHei';-inkscape-font-specification:'Microsoft YaHei';display:none;stroke-width:1.94576"
     d="m 70.886719,167.40234 c 3.481771,0 6.963541,0 10.445312,0 0,-2.95703 0,-5.91406 0,-8.87109 27.369139,0 54.738279,0 82.107419,0 0,2.95703 0,5.91406 0,8.87109 3.48177,0 6.96354,0 10.44532,0 0,-37.41145 0,-74.822913 0,-112.234371 -34.33269,0 -68.66537,0 -102.998051,0 0,37.411458 0,74.822921 0,112.234371 z M 83.332031,64.53125 c 26.702479,0 53.404949,0 80.107419,0 0,28.21224 0,56.42448 0,84.63672 -27.36914,0 -54.73828,0 -82.107419,0 0,-28.21224 0,-56.42448 0,-84.63672 0.666667,0 1.333334,0 2,0 z" />
  <g
     id="g3"
     style="display:none">
    <path
       id="text6"
       style="font-size:64px;font-family:'Microsoft YaHei';-inkscape-font-specification:'Microsoft YaHei';display:inline;stroke-width:1.07973"
       d="M 118.87109,70.869141 A 1.8894275,1.8894275 0 0 0 116.98242,72.75 c -0.0117,2.732445 -0.0234,5.464913 -0.0352,8.197266 -0.0219,2.842172 -0.0651,5.687599 -0.10743,8.535156 H 90.164062 a 1.8894275,1.8894275 0 0 0 -1.888671,1.888672 v 4.904297 a 1.8894275,1.8894275 0 0 0 1.888671,1.888671 h 26.197268 c -0.43232,3.002898 -0.98682,5.948328 -2.00586,8.687498 a 1.8894275,1.8894275 0 0 0 -0.0117,0.0332 c -2.23437,6.38279 -6.31958,12.08688 -11.46094,16.54687 a 1.8894275,1.8894275 0 0 0 -0.008,0.008 c -4.316178,3.78675 -9.320294,6.80538 -14.59375,9.27149 a 1.8894275,1.8894275 0 0 0 -0.675781,2.89062 c 1.287282,1.61147 2.558253,3.21566 3.771484,4.84375 a 1.8894275,1.8894275 0 0 0 2.410156,0.53516 c 8.610581,-4.63 16.773901,-10.73384 22.511721,-19.00977 l 0.002,-0.004 c 2.32671,-3.28609 4.04567,-6.89191 5.46485,-10.57227 1.16961,2.92261 2.42446,5.85831 4.17578,8.66016 4.18337,6.99296 10.22167,12.80814 17.32421,16.77539 0.71086,0.4046 1.6638,0.91882 2.50782,1.33789 h -0.004 c 1.07539,0.53665 2.17394,1.05414 3.30078,1.5332 a 1.8894275,1.8894275 0 0 0 2.21289,-0.55664 c 1.39329,-1.73989 2.95342,-3.39016 4.57422,-5.0293 a 1.8894275,1.8894275 0 0 0 -0.74414,-3.11914 c -8.27766,-2.77216 -15.97445,-7.63749 -21.1582,-14.56054 a 1.8894275,1.8894275 0 0 0 -0.01,-0.0137 c -4.03128,-5.27795 -6.51508,-11.65892 -7.9082,-18.257818 h 27.24609 a 1.8894275,1.8894275 0 0 0 1.88867,-1.888671 v -4.904297 a 1.8894275,1.8894275 0 0 0 -1.88867,-1.888672 h -27.5 c 0.0827,-5.572415 0.14505,-11.146253 0.14844,-16.722656 a 1.8894275,1.8894275 0 0 0 -1.88867,-1.890625 z" />
  </g>
  <path
     d="M 70.989486,56.090223 H 174.04057 v 92.305997 c 0,11.69375 -5.24523,17.62356 -15.73569,17.78943 -5.60018,0.1658 -20.64083,0.7491 -29.55376,0.4173 l -0.80585,-8.21998 28.27055,-1.12178 c 6.07342,0.1658 8.35967,-4.63532 8.35967,-11.60182 V 65.544744 H 80.454568 V 166.93206 h -9.465082 z"
     id="text25"
     style="font-size:64px;font-family:'Microsoft YaHei';-inkscape-font-specification:'Microsoft YaHei';display:inline;stroke-width:1.9411"
     aria-label="冈"
     sodipodi:nodetypes="ccsccccsccccc" />
</svg>
